<?xml version="1.0" encoding="iso-8859-1"?>
<!-- Generator: Adobe Illustrator 26.2.1, SVG Export Plug-In . SVG Version: 6.00 Build 0)  -->
<svg version="1.1" id="Layer_1" xmlns="http://www.w3.org/2000/svg" xmlns:xlink="http://www.w3.org/1999/xlink" x="0px" y="0px"
	 width="800px" height="800px" viewBox="0 0 800 800" enable-background="new 0 0 800 800" xml:space="preserve">
<g>
	<rect x="537.177" y="427.087" width="3.084" height="3.084"/>
	<polygon points="537.177,433.254 537.177,436.338 543.345,436.338 543.345,430.17 540.261,430.17 540.261,433.254 	"/>
	<polygon points="672.86,399.333 660.525,399.333 660.525,396.25 657.442,396.25 657.442,386.999 651.274,386.999 651.274,390.082 
		654.358,390.082 654.358,393.166 651.274,393.166 651.274,396.25 645.107,396.25 645.107,402.417 642.023,402.417 642.023,399.333 
		635.856,399.333 635.856,405.501 648.191,405.501 648.191,408.585 651.274,408.585 651.274,414.752 654.358,414.752 
		654.358,417.836 657.442,417.836 657.442,408.585 660.525,408.585 660.525,405.501 675.944,405.501 675.944,402.417 
		672.86,402.417 	"/>
	<rect x="568.014" y="402.417" width="3.084" height="3.084"/>
	<polygon points="210.305,399.333 210.305,393.166 207.221,393.166 207.221,383.915 210.305,383.915 210.305,380.831 
		204.138,380.831 204.138,393.166 201.054,393.166 201.054,399.333 191.803,399.333 191.803,402.417 194.887,402.417 
		194.887,405.501 201.054,405.501 201.054,411.668 204.138,411.668 204.138,427.087 207.221,427.087 207.221,424.003 
		210.305,424.003 210.305,420.919 207.221,420.919 207.221,414.752 210.305,414.752 210.305,405.501 219.556,405.501 
		219.556,402.417 222.64,402.417 222.64,399.333 	"/>
	<rect x="694.446" y="374.664" width="3.084" height="3.084"/>
	<rect x="537.177" y="420.919" width="3.084" height="3.084"/>
	<polygon points="709.865,399.333 700.614,399.333 700.614,396.25 697.53,396.25 697.53,380.831 694.446,380.831 694.446,377.748 
		691.362,377.748 691.362,383.915 694.446,383.915 694.446,393.166 691.362,393.166 691.362,396.25 688.279,396.25 688.279,399.333 
		675.944,399.333 675.944,402.417 679.028,402.417 679.028,405.501 688.279,405.501 688.279,408.585 691.362,408.585 
		691.362,411.668 694.446,411.668 694.446,417.836 691.362,417.836 691.362,420.919 694.446,420.919 694.446,424.003 
		697.53,424.003 697.53,408.585 700.614,408.585 700.614,405.501 712.948,405.501 712.948,402.417 709.865,402.417 	"/>
	<rect x="651.274" y="417.836" width="3.084" height="6.167"/>
	<rect x="225.724" y="464.091" width="3.084" height="3.084"/>
	<rect x="268.896" y="507.263" width="3.084" height="3.084"/>
	<polygon points="188.719,399.333 176.384,399.333 176.384,405.501 182.552,405.501 182.552,402.417 185.636,402.417 
		185.636,405.501 191.803,405.501 191.803,402.417 188.719,402.417 	"/>
	<polygon points="632.772,405.501 632.772,399.333 629.688,399.333 629.688,402.417 623.521,402.417 623.521,399.333 
		620.437,399.333 620.437,402.417 617.354,402.417 617.354,405.501 	"/>
	<rect x="601.935" y="383.915" width="3.084" height="3.084"/>
	<polygon points="238.059,399.333 225.724,399.333 225.724,402.417 222.64,402.417 222.64,405.501 228.807,405.501 228.807,402.417 
		234.975,402.417 234.975,405.501 241.142,405.501 241.142,402.417 238.059,402.417 	"/>
	<polygon points="598.851,396.25 595.768,396.25 595.768,399.333 589.6,399.333 589.6,402.417 592.684,402.417 592.684,405.501 
		595.768,405.501 595.768,408.585 598.851,408.585 598.851,417.836 601.935,417.836 601.935,414.752 605.019,414.752 
		605.019,408.585 608.103,408.585 608.103,405.501 614.27,405.501 614.27,402.417 617.354,402.417 617.354,399.333 608.103,399.333 
		608.103,396.25 605.019,396.25 605.019,390.082 601.935,390.082 601.935,386.999 598.851,386.999 	"/>
	<polygon points="568.014,334.576 568.014,340.743 571.098,340.743 571.098,337.659 583.433,337.659 583.433,334.576 	"/>
	<rect x="500.173" y="467.175" width="3.084" height="3.084"/>
	<rect x="515.592" y="467.175" width="3.084" height="3.084"/>
	<polygon points="509.424,473.342 515.592,473.342 515.592,470.259 512.508,470.259 512.508,467.175 506.34,467.175 506.34,470.259 
		509.424,470.259 	"/>
	<polygon points="577.266,399.333 571.098,399.333 571.098,402.417 574.182,402.417 574.182,405.501 580.349,405.501 
		580.349,402.417 577.266,402.417 	"/>
	<polygon points="586.517,399.333 580.349,399.333 580.349,402.417 583.433,402.417 583.433,405.501 589.6,405.501 589.6,402.417 
		586.517,402.417 	"/>
	<rect x="685.195" y="232.814" width="3.084" height="6.167"/>
	<rect x="500.173" y="334.576" width="3.084" height="3.084"/>
	<polygon points="691.362,242.065 691.362,238.981 688.279,238.981 688.279,245.148 691.362,245.148 691.362,251.316 
		694.446,251.316 694.446,242.065 	"/>
	<rect x="629.688" y="248.232" width="3.084" height="9.251"/>
	<rect x="632.772" y="257.483" width="3.084" height="9.251"/>
	<rect x="564.931" y="399.333" width="3.084" height="3.084"/>
	<polygon points="509.424,399.333 509.424,402.417 506.34,402.417 506.34,405.501 512.508,405.501 512.508,402.417 515.592,402.417 
		515.592,399.333 	"/>
	<rect x="336.737" y="516.514" width="3.084" height="6.167"/>
	<rect x="281.23" y="605.941" width="3.084" height="3.084"/>
	<polygon points="278.147,618.276 284.314,618.276 284.314,615.192 281.23,615.192 281.23,609.025 278.147,609.025 	"/>
	<polygon points="500.173,399.333 500.173,405.501 503.257,405.501 503.257,402.417 506.34,402.417 506.34,399.333 	"/>
	<polygon points="552.596,399.333 546.429,399.333 546.429,396.25 543.345,396.25 543.345,386.999 537.177,386.999 537.177,390.082 
		540.261,390.082 540.261,393.166 537.177,393.166 537.177,396.25 534.094,396.25 534.094,399.333 527.926,399.333 527.926,402.417 
		531.01,402.417 531.01,405.501 534.094,405.501 534.094,408.585 537.177,408.585 537.177,417.836 540.261,417.836 540.261,420.919 
		543.345,420.919 543.345,408.585 546.429,408.585 546.429,405.501 555.68,405.501 555.68,402.417 552.596,402.417 	"/>
	<polygon points="561.847,399.333 555.68,399.333 555.68,402.417 558.763,402.417 558.763,405.501 564.931,405.501 564.931,402.417 
		561.847,402.417 	"/>
	<rect x="503.257" y="470.259" width="3.084" height="3.084"/>
	<rect x="515.592" y="402.417" width="3.084" height="3.084"/>
	<polygon points="524.843,399.333 518.675,399.333 518.675,402.417 521.759,402.417 521.759,405.501 527.926,405.501 
		527.926,402.417 524.843,402.417 	"/>
	<rect x="469.336" y="488.761" width="3.084" height="6.167"/>
	<rect x="540.261" y="424.003" width="3.084" height="3.084"/>
	<polygon points="642.023,599.774 645.107,599.774 645.107,593.607 642.023,593.607 642.023,596.69 638.94,596.69 638.94,602.858 
		642.023,602.858 	"/>
	<polygon points="654.358,621.36 657.442,621.36 657.442,618.276 660.525,618.276 660.525,612.109 657.442,612.109 657.442,615.192 
		654.358,615.192 654.358,618.276 651.274,618.276 651.274,624.444 654.358,624.444 	"/>
	<polygon points="685.195,498.012 682.111,498.012 682.111,501.096 679.028,501.096 679.028,504.179 682.111,504.179 
		682.111,507.263 685.195,507.263 	"/>
	<polygon points="691.362,556.602 688.279,556.602 688.279,565.853 685.195,565.853 685.195,575.104 688.279,575.104 
		688.279,568.937 691.362,568.937 691.362,559.686 694.446,559.686 694.446,553.518 691.362,553.518 	"/>
	<polygon points="608.103,636.778 611.186,636.778 611.186,633.695 614.27,633.695 614.27,630.611 608.103,630.611 608.103,633.695 
		605.019,633.695 605.019,636.778 601.935,636.778 601.935,639.862 608.103,639.862 	"/>
	<polygon points="620.437,655.281 623.521,655.281 623.521,652.197 626.605,652.197 626.605,649.113 620.437,649.113 
		620.437,652.197 617.354,652.197 617.354,655.281 614.27,655.281 614.27,658.364 620.437,658.364 	"/>
	<polygon points="666.693,602.858 663.609,602.858 663.609,605.941 660.525,605.941 660.525,612.109 663.609,612.109 
		663.609,609.025 666.693,609.025 666.693,605.941 669.777,605.941 669.777,599.774 666.693,599.774 	"/>
	<polygon points="305.9,710.787 305.9,707.703 290.481,707.703 290.481,710.787 302.816,710.787 302.816,713.871 315.151,713.871 
		315.151,710.787 	"/>
	<rect x="524.843" y="605.941" width="3.084" height="3.084"/>
	<polygon points="145.547,612.109 145.547,615.192 148.631,615.192 148.631,618.276 151.715,618.276 151.715,612.109 
		148.631,612.109 148.631,609.025 145.547,609.025 145.547,605.941 142.464,605.941 142.464,612.109 	"/>
	<rect x="527.926" y="609.025" width="3.084" height="3.084"/>
	<polygon points="540.261,633.695 534.094,633.695 534.094,630.611 531.01,630.611 531.01,627.527 527.926,627.527 527.926,621.36 
		531.01,621.36 531.01,618.276 527.926,618.276 527.926,612.109 524.843,612.109 524.843,630.611 521.759,630.611 521.759,636.778 
		515.592,636.778 515.592,639.862 503.257,639.862 503.257,642.946 518.675,642.946 518.675,646.029 524.843,646.029 
		524.843,649.113 527.926,649.113 527.926,646.029 531.01,646.029 531.01,639.862 537.177,639.862 537.177,636.778 543.345,636.778 
		543.345,633.695 552.596,633.695 552.596,630.611 540.261,630.611 	"/>
	<rect x="564.931" y="686.118" width="6.167" height="3.084"/>
	<polygon points="642.023,205.06 642.023,201.977 638.94,201.977 638.94,208.144 642.023,208.144 642.023,211.228 645.107,211.228 
		645.107,205.06 	"/>
	<polygon points="635.856,198.893 635.856,201.977 638.94,201.977 638.94,195.809 635.856,195.809 635.856,192.726 632.772,192.726 
		632.772,198.893 	"/>
	<polygon points="657.442,186.558 657.442,183.474 654.358,183.474 654.358,189.642 657.442,189.642 657.442,192.726 
		660.525,192.726 660.525,186.558 	"/>
	<polygon points="654.358,183.474 654.358,180.391 651.274,180.391 651.274,177.307 648.191,177.307 648.191,183.474 	"/>
	<polygon points="503.257,710.787 500.173,710.787 500.173,713.871 506.34,713.871 506.34,710.787 515.592,710.787 515.592,707.703 
		503.257,707.703 	"/>
	<polygon points="712.948,306.822 712.948,288.32 709.865,288.32 709.865,285.237 706.781,285.237 706.781,294.488 709.865,294.488 
		709.865,309.906 712.948,309.906 712.948,319.157 716.032,319.157 716.032,306.822 	"/>
	<polygon points="197.97,661.448 197.97,658.364 194.887,658.364 194.887,655.281 191.803,655.281 191.803,652.197 185.636,652.197 
		185.636,655.281 188.719,655.281 188.719,658.364 191.803,658.364 191.803,661.448 194.887,661.448 194.887,664.532 
		201.054,664.532 201.054,661.448 	"/>
	<polygon points="605.019,140.303 605.019,143.386 608.103,143.386 608.103,146.47 614.27,146.47 614.27,143.386 611.186,143.386 
		611.186,140.303 608.103,140.303 608.103,137.219 601.935,137.219 601.935,140.303 	"/>
	<polygon points="302.816,90.963 299.733,90.963 299.733,94.047 293.565,94.047 293.565,97.131 305.9,97.131 305.9,94.047 
		302.816,94.047 	"/>
	<polygon points="611.186,171.14 611.186,168.056 608.103,168.056 608.103,164.972 601.935,164.972 601.935,168.056 
		605.019,168.056 605.019,171.14 608.103,171.14 608.103,174.223 614.27,174.223 614.27,171.14 	"/>
	<polygon points="620.437,149.554 620.437,146.47 614.27,146.47 614.27,149.554 617.354,149.554 617.354,152.637 623.521,152.637 
		623.521,149.554 	"/>
	<rect x="691.362" y="424.003" width="3.084" height="3.084"/>
	<rect x="136.296" y="254.4" width="3.084" height="9.251"/>
	<polygon points="164.05,303.739 160.966,303.739 160.966,312.99 157.882,312.99 157.882,316.074 160.966,316.074 160.966,319.157 
		164.05,319.157 	"/>
	<polygon points="145.547,245.148 148.631,245.148 148.631,242.065 142.464,242.065 142.464,251.316 145.547,251.316 	"/>
	<rect x="139.38" y="251.316" width="3.084" height="3.084"/>
	<rect x="111.627" y="248.232" width="3.084" height="6.167"/>
	<polygon points="222.64,248.232 225.724,248.232 225.724,232.814 228.807,232.814 228.807,229.73 231.891,229.73 231.891,226.646 
		234.975,226.646 234.975,223.563 244.226,223.563 244.226,220.479 234.975,220.479 234.975,217.395 231.891,217.395 
		231.891,214.311 228.807,214.311 228.807,205.06 231.891,205.06 231.891,189.642 234.975,189.642 234.975,186.558 238.059,186.558 
		238.059,180.391 247.31,180.391 247.31,177.307 241.142,177.307 241.142,174.223 231.891,174.223 231.891,168.056 228.807,168.056 
		228.807,177.307 225.724,177.307 225.724,180.391 222.64,180.391 222.64,183.474 216.473,183.474 216.473,186.558 213.389,186.558 
		213.389,189.642 225.724,189.642 225.724,192.726 228.807,192.726 228.807,201.977 225.724,201.977 225.724,217.395 
		222.64,217.395 222.64,220.479 219.556,220.479 219.556,223.563 201.054,223.563 201.054,226.646 194.887,226.646 194.887,223.563 
		191.803,223.563 191.803,211.228 188.719,211.228 188.719,217.395 185.636,217.395 185.636,220.479 182.552,220.479 
		182.552,223.563 179.468,223.563 179.468,226.646 176.384,226.646 176.384,223.563 173.301,223.563 173.301,226.646 
		167.133,226.646 167.133,229.73 173.301,229.73 173.301,232.814 176.384,232.814 176.384,235.897 179.468,235.897 179.468,242.065 
		176.384,242.065 176.384,251.316 179.468,251.316 179.468,245.148 182.552,245.148 182.552,235.897 188.719,235.897 
		188.719,232.814 194.887,232.814 194.887,229.73 204.138,229.73 204.138,226.646 207.221,226.646 207.221,229.73 210.305,229.73 
		210.305,226.646 216.473,226.646 216.473,229.73 219.556,229.73 219.556,232.814 222.64,232.814 222.64,245.148 219.556,245.148 
		219.556,254.4 216.473,254.4 216.473,257.483 219.556,257.483 219.556,260.567 222.64,260.567 	"/>
	<rect x="694.446" y="427.087" width="3.084" height="3.084"/>
	<rect x="691.362" y="430.17" width="3.084" height="3.084"/>
	<polygon points="500.173,94.047 500.173,97.131 515.592,97.131 515.592,94.047 506.34,94.047 506.34,90.963 490.922,90.963 
		490.922,94.047 	"/>
	<rect x="444.666" y="109.466" width="6.167" height="6.167"/>
	<rect x="657.442" y="279.069" width="3.084" height="3.084"/>
	<rect x="173.301" y="251.316" width="3.084" height="9.251"/>
	<polygon points="188.719,149.554 185.636,149.554 185.636,152.637 182.552,152.637 182.552,155.721 188.719,155.721 	"/>
	<polygon points="238.059,118.717 244.226,118.717 244.226,115.633 234.975,115.633 234.975,118.717 231.891,118.717 231.891,121.8 
		238.059,121.8 	"/>
	<polygon points="201.054,140.303 194.887,140.303 194.887,143.386 191.803,143.386 191.803,146.47 188.719,146.47 188.719,149.554 
		194.887,149.554 194.887,146.47 197.97,146.47 197.97,143.386 204.138,143.386 204.138,140.303 207.221,140.303 207.221,137.219 
		201.054,137.219 	"/>
	<polygon points="170.217,602.858 170.217,596.69 164.05,596.69 164.05,599.774 167.133,599.774 167.133,605.941 170.217,605.941 
		170.217,609.025 173.301,609.025 173.301,602.858 	"/>
	<polygon points="96.208,504.179 96.208,501.096 99.292,501.096 99.292,498.012 96.208,498.012 96.208,491.844 93.125,491.844 
		93.125,507.263 96.208,507.263 96.208,516.514 99.292,516.514 99.292,504.179 	"/>
	<polygon points="170.217,269.818 167.133,269.818 167.133,272.902 164.05,272.902 164.05,275.985 157.882,275.985 157.882,279.069 
		154.799,279.069 154.799,282.153 160.966,282.153 160.966,285.237 164.05,285.237 164.05,297.571 160.966,297.571 160.966,300.655 
		164.05,300.655 164.05,303.739 167.133,303.739 167.133,291.404 170.217,291.404 170.217,285.237 173.301,285.237 173.301,282.153 
		188.719,282.153 188.719,279.069 191.803,279.069 191.803,275.985 185.636,275.985 185.636,279.069 182.552,279.069 
		182.552,275.985 176.384,275.985 176.384,272.902 173.301,272.902 173.301,266.734 176.384,266.734 176.384,263.651 
		173.301,263.651 173.301,260.567 170.217,260.567 	"/>
	<polygon points="120.878,235.897 117.794,235.897 117.794,242.065 114.71,242.065 114.71,248.232 117.794,248.232 117.794,245.148 
		120.878,245.148 120.878,238.981 123.962,238.981 123.962,229.73 120.878,229.73 	"/>
	<rect x="151.715" y="618.276" width="3.084" height="3.084"/>
	<polygon points="148.631,275.985 148.631,282.153 151.715,282.153 151.715,279.069 154.799,279.069 154.799,275.985 	"/>
	<rect x="164.05" y="205.06" width="3.084" height="3.084"/>
	<polygon points="148.631,192.726 151.715,192.726 151.715,189.642 154.799,189.642 154.799,183.474 151.715,183.474 
		151.715,186.558 148.631,186.558 148.631,189.642 145.547,189.642 145.547,195.809 148.631,195.809 	"/>
	<polygon points="663.609,245.148 663.609,251.316 666.693,251.316 666.693,242.065 663.609,242.065 663.609,238.981 
		660.525,238.981 660.525,245.148 	"/>
	<rect x="250.393" y="692.285" width="6.167" height="3.084"/>
	<polygon points="259.644,667.615 259.644,664.532 253.477,664.532 253.477,661.448 244.226,661.448 244.226,664.532 
		250.393,664.532 250.393,667.615 256.561,667.615 256.561,670.699 265.812,670.699 265.812,667.615 	"/>
	<polygon points="241.142,689.201 241.142,692.285 250.393,692.285 250.393,689.201 247.31,689.201 247.31,686.118 238.059,686.118 
		238.059,689.201 	"/>
	<polygon points="210.305,581.272 210.305,578.188 213.389,578.188 213.389,575.104 207.221,575.104 207.221,578.188 
		204.138,578.188 204.138,581.272 	"/>
	<rect x="339.821" y="673.783" width="3.084" height="3.084"/>
	<rect x="336.737" y="670.699" width="3.084" height="3.084"/>
	<rect x="228.807" y="599.774" width="3.084" height="3.084"/>
	<polygon points="271.979,636.778 271.979,639.862 275.063,639.862 275.063,642.946 278.147,642.946 278.147,652.197 
		281.23,652.197 281.23,649.113 284.314,649.113 284.314,646.029 287.398,646.029 287.398,642.946 302.816,642.946 302.816,646.029 
		321.318,646.029 321.318,649.113 333.653,649.113 333.653,655.281 336.737,655.281 336.737,658.364 339.821,658.364 
		339.821,670.699 342.904,670.699 342.904,658.364 345.988,658.364 345.988,655.281 349.072,655.281 349.072,652.197 
		364.49,652.197 364.49,649.113 352.155,649.113 352.155,646.029 345.988,646.029 345.988,642.946 342.904,642.946 342.904,612.109 
		336.737,612.109 336.737,615.192 339.821,615.192 339.821,630.611 336.737,630.611 336.737,633.695 339.821,633.695 
		339.821,639.862 336.737,639.862 336.737,642.946 330.57,642.946 330.57,646.029 324.402,646.029 324.402,642.946 305.9,642.946 
		305.9,639.862 293.565,639.862 293.565,636.778 287.398,636.778 287.398,633.695 284.314,633.695 284.314,621.36 278.147,621.36 
		278.147,624.444 281.23,624.444 281.23,627.527 278.147,627.527 278.147,630.611 275.063,630.611 275.063,633.695 271.979,633.695 
		271.979,630.611 268.896,630.611 268.896,633.695 265.812,633.695 265.812,636.778 	"/>
	<polygon points="253.477,630.611 253.477,633.695 265.812,633.695 265.812,630.611 259.644,630.611 259.644,627.527 
		244.226,627.527 244.226,630.611 	"/>
	<rect x="281.23" y="652.197" width="3.084" height="3.084"/>
	<rect x="379.909" y="596.69" width="3.084" height="3.084"/>
	<rect x="364.49" y="689.201" width="3.084" height="3.084"/>
	<rect x="426.164" y="596.69" width="6.167" height="3.084"/>
	<rect x="379.909" y="649.113" width="3.084" height="3.084"/>
	<polygon points="376.825,596.69 367.574,596.69 367.574,602.858 370.658,602.858 370.658,599.774 373.741,599.774 373.741,602.858 
		379.909,602.858 379.909,599.774 376.825,599.774 	"/>
	<polygon points="367.574,649.113 367.574,652.197 370.658,652.197 370.658,655.281 373.741,655.281 373.741,652.197 
		376.825,652.197 376.825,649.113 	"/>
	<rect x="370.658" y="689.201" width="3.084" height="3.084"/>
	<rect x="367.574" y="692.285" width="3.084" height="3.084"/>
	<rect x="376.825" y="652.197" width="3.084" height="3.084"/>
	<polygon points="151.715,439.422 151.715,442.505 157.882,442.505 157.882,436.338 154.799,436.338 154.799,439.422 	"/>
	<rect x="154.799" y="430.17" width="3.084" height="3.084"/>
	<rect x="151.715" y="433.254" width="3.084" height="3.084"/>
	<rect x="151.715" y="420.919" width="3.084" height="9.251"/>
	<rect x="435.415" y="596.69" width="3.084" height="3.084"/>
	<rect x="176.384" y="550.435" width="3.084" height="9.251"/>
	<rect x="207.221" y="439.422" width="3.084" height="3.084"/>
	<polygon points="364.49,269.818 367.574,269.818 367.574,266.734 370.658,266.734 370.658,269.818 373.741,269.818 
		373.741,266.734 376.825,266.734 376.825,263.651 361.407,263.651 361.407,266.734 364.49,266.734 	"/>
	<rect x="367.574" y="201.977" width="3.084" height="6.167"/>
	<rect x="204.138" y="365.413" width="6.167" height="6.167"/>
	<rect x="204.138" y="374.664" width="3.084" height="3.084"/>
	<polygon points="114.71,553.518 114.71,550.435 111.627,550.435 111.627,556.602 114.71,556.602 114.71,562.77 117.794,562.77 
		117.794,553.518 	"/>
	<polygon points="157.882,488.761 157.882,491.844 160.966,491.844 160.966,507.263 164.05,507.263 164.05,519.598 160.966,519.598 
		160.966,522.681 151.715,522.681 151.715,528.849 157.882,528.849 157.882,525.765 160.966,525.765 160.966,528.849 
		164.05,528.849 164.05,531.933 167.133,531.933 167.133,535.016 170.217,535.016 170.217,541.184 173.301,541.184 173.301,531.933 
		176.384,531.933 176.384,528.849 182.552,528.849 182.552,525.765 179.468,525.765 179.468,522.681 176.384,522.681 
		176.384,519.598 170.217,519.598 170.217,513.43 167.133,513.43 167.133,504.179 164.05,504.179 164.05,501.096 167.133,501.096 
		167.133,498.012 164.05,498.012 164.05,485.677 160.966,485.677 160.966,488.761 	"/>
	<polygon points="139.38,544.267 139.38,541.184 136.296,541.184 136.296,547.351 139.38,547.351 139.38,556.602 142.464,556.602 
		142.464,544.267 	"/>
	<polygon points="204.138,439.422 207.221,439.422 207.221,436.338 210.305,436.338 210.305,430.17 204.138,430.17 	"/>
	<rect x="173.301" y="541.184" width="3.084" height="9.251"/>
	<rect x="222.64" y="467.175" width="3.084" height="3.084"/>
	<polygon points="185.636,528.849 188.719,528.849 188.719,522.681 182.552,522.681 182.552,525.765 185.636,525.765 	"/>
	<polygon points="219.556,568.937 219.556,575.104 216.473,575.104 216.473,578.188 213.389,578.188 213.389,581.272 
		219.556,581.272 219.556,584.355 222.64,584.355 222.64,590.523 225.724,590.523 225.724,599.774 228.807,599.774 228.807,590.523 
		231.891,590.523 231.891,587.439 234.975,587.439 234.975,584.355 250.393,584.355 250.393,587.439 259.644,587.439 
		259.644,590.523 271.979,590.523 271.979,593.607 275.063,593.607 275.063,596.69 278.147,596.69 278.147,605.941 281.23,605.941 
		281.23,599.774 284.314,599.774 284.314,596.69 287.398,596.69 287.398,593.607 299.733,593.607 299.733,596.69 327.486,596.69 
		327.486,599.774 330.57,599.774 330.57,602.858 336.737,602.858 336.737,609.025 342.904,609.025 342.904,602.858 349.072,602.858 
		349.072,599.774 361.407,599.774 361.407,602.858 364.49,602.858 364.49,596.69 345.988,596.69 345.988,590.523 342.904,590.523 
		342.904,587.439 339.821,587.439 339.821,544.267 342.904,544.267 342.904,541.184 358.323,541.184 358.323,535.016 
		355.239,535.016 355.239,538.1 352.155,538.1 352.155,535.016 342.904,535.016 342.904,531.933 339.821,531.933 339.821,525.765 
		336.737,525.765 336.737,522.681 333.653,522.681 333.653,531.933 330.57,531.933 330.57,535.016 305.9,535.016 305.9,538.1 
		327.486,538.1 327.486,541.184 333.653,541.184 333.653,547.351 336.737,547.351 336.737,590.523 333.653,590.523 333.653,593.607 
		308.984,593.607 308.984,590.523 305.9,590.523 305.9,593.607 302.816,593.607 302.816,590.523 287.398,590.523 287.398,587.439 
		284.314,587.439 284.314,584.355 281.23,584.355 281.23,578.188 278.147,578.188 278.147,538.1 284.314,538.1 284.314,535.016 
		296.649,535.016 296.649,538.1 302.816,538.1 302.816,535.016 299.733,535.016 299.733,531.933 281.23,531.933 281.23,528.849 
		278.147,528.849 278.147,525.765 275.063,525.765 275.063,510.347 271.979,510.347 271.979,513.43 268.896,513.43 268.896,516.514 
		271.979,516.514 271.979,522.681 268.896,522.681 268.896,528.849 238.059,528.849 238.059,531.933 259.644,531.933 
		259.644,535.016 268.896,535.016 268.896,538.1 271.979,538.1 271.979,547.351 275.063,547.351 275.063,550.435 271.979,550.435 
		271.979,553.518 275.063,553.518 275.063,584.355 268.896,584.355 268.896,587.439 265.812,587.439 265.812,584.355 
		253.477,584.355 253.477,581.272 234.975,581.272 234.975,578.188 231.891,578.188 231.891,575.104 228.807,575.104 
		228.807,572.021 225.724,572.021 225.724,562.77 222.64,562.77 222.64,568.937 	"/>
	<rect x="537.177" y="377.748" width="3.084" height="3.084"/>
	<rect x="490.922" y="399.333" width="6.167" height="6.167"/>
	<rect x="540.261" y="380.831" width="3.084" height="3.084"/>
	<polygon points="370.658,538.1 364.49,538.1 364.49,535.016 361.407,535.016 361.407,541.184 373.741,541.184 373.741,535.016 
		370.658,535.016 	"/>
	<rect x="651.274" y="380.831" width="6.167" height="3.084"/>
	<rect x="466.252" y="562.77" width="3.084" height="3.084"/>
	<polygon points="651.274,377.748 654.358,377.748 654.358,356.162 648.191,356.162 648.191,359.245 651.274,359.245 	"/>
	<rect x="432.332" y="599.774" width="3.084" height="3.084"/>
	<polygon points="611.186,279.069 614.27,279.069 614.27,282.153 617.354,282.153 617.354,275.985 608.103,275.985 608.103,282.153 
		611.186,282.153 	"/>
	<polygon points="543.345,371.58 537.177,371.58 537.177,374.664 540.261,374.664 540.261,377.748 543.345,377.748 	"/>
	<rect x="469.336" y="565.853" width="3.084" height="3.084"/>
	<polygon points="540.261,501.096 537.177,501.096 537.177,498.012 540.261,498.012 540.261,494.928 537.177,494.928 
		537.177,491.844 534.094,491.844 534.094,504.179 540.261,504.179 	"/>
	<polygon points="651.274,436.338 648.191,436.338 648.191,439.422 651.274,439.422 651.274,442.505 654.358,442.505 
		654.358,427.087 651.274,427.087 	"/>
	<polygon points="472.42,572.021 469.336,572.021 469.336,568.937 466.252,568.937 466.252,578.188 472.42,578.188 	"/>
	<path d="M753.036,386.999v-3.084h-3.084v-18.502h-3.084v-3.084h3.084v-6.167h-3.084v-12.335h3.084v-3.084h-3.084v-15.419h-3.084
		v-9.251h-3.084v-9.251h-3.084v-12.335h-3.084v-3.084h3.084v-3.084h-3.084v-6.167h-3.084v-9.251h-3.084v-3.084h3.084v-3.084h-3.084
		v-9.251h-3.084V254.4h-3.084v-6.167h-3.084v-6.167h-3.084v-6.167h-3.084v-9.251h-3.084v-6.167h-3.084v-3.084h-3.084v-9.251h-3.084
		v-6.167h-3.084v-3.084h-3.084v-3.084h-3.084v-6.167h-3.084v-3.084h-3.084v-3.084h-3.084v-6.167h-3.084v-3.084h-3.084v-3.084h-3.084
		v-3.084h-3.084v-3.084h-3.084v-6.167h-3.084v-3.084h-3.084v-6.167h-6.167v-6.167h-6.167v-3.084h-3.084v-3.084h-6.167v-3.084h-3.084
		v-3.084h-3.084v-3.084h-3.084v-3.084h-6.167V121.8h-3.084v-3.084h-3.084v-3.084h-6.167v-6.167h-6.167v-3.084h-6.167v-3.084h-6.167
		v-3.084h-6.167v-3.084h-6.167v-3.084h-6.167v-3.084h-6.167V87.88h-6.167v-3.084h-9.251v-3.084h-3.084v-3.084h-6.167v-3.084H531.01
		v-3.084h-12.335v-3.084H506.34v-3.084h-12.335V63.21h-9.251v-3.084H472.42v-3.084h-3.084v3.084h-3.084v-3.084h-3.084v3.084h-3.084
		v-3.084h-6.167v3.084h-3.084v-3.084h-9.251v-3.084h-3.084v3.084h-6.167v-3.084h-3.084v3.084h-3.084v-3.084h-21.586v-3.084h-3.084
		v3.084h-18.502v3.084h-3.084v-3.084h-3.084v3.084h-6.167v-3.084h-3.084v3.084h-15.418v3.084h-3.084v-3.084h-3.084v3.084h-3.084
		v-3.084h-6.167v3.084h-12.335v3.084h-12.335v3.084h-9.251v3.084h-6.167v3.084h-3.084v-3.084h-6.167v3.084h-6.167v3.084h-3.084
		v-3.084h-3.084v3.084h-3.084v3.084h-3.084v-3.084h-3.084v3.084h-6.167v3.084h-6.167v3.084h-6.167v3.084h-6.167v3.084h-6.167v3.084
		h-6.167v3.084h-6.167v3.084h-6.167v3.084h-9.251v3.084h-3.084v3.084h-6.167v6.167h-6.167v3.084h-6.167v3.084h-3.084v3.084h-3.084
		v3.084h-3.084v3.084h-3.084v3.084h-6.167v3.084h-3.084v3.084h-3.084v3.084h-6.167v3.084h-3.084v3.084h-3.084v3.084h-3.084v6.167
		h-3.084v3.084h-3.084v3.084h-3.084v6.167h-3.084v3.084h-3.084v3.084h-3.084v3.084h-3.084v6.167h-3.084v3.084h-3.084v3.084h-3.084
		v3.084h-3.084v6.167h-3.084v3.084h-3.084v9.251h-3.084v6.167h-3.084v6.167h-3.084v6.167h-3.084v6.167h-3.084v6.167h-3.084v6.167
		h-3.084v6.167H80.79v6.167h-3.084v15.419h-3.084v9.251h-3.084v12.335h-3.084v9.251h-3.084v12.335h-3.084v12.335h-3.084v3.084h3.084
		v6.167h-3.084v21.586H56.12v3.084h3.084v9.251H56.12v40.088h3.084v3.084H56.12v9.251h3.084v3.084H56.12v3.084h3.084v24.67h3.084
		v6.167h-3.084v3.084h3.084v12.335h3.084v9.251h3.084v12.335h3.084v12.335h3.084v12.335h3.084v12.335h3.084v9.251h6.167v9.251h3.084
		v6.167h3.084v6.167h3.084v6.167h3.084v6.167h3.084v6.167h3.084v9.251h3.084v6.167h3.084v3.084h6.167v6.167h3.084v3.084h3.084v6.167
		h3.084v3.084h3.084v6.167h6.167v6.167h3.084v3.084h3.084v6.167h6.167v6.167h3.084v3.084h3.084v3.084h6.167v3.084h3.084v3.084h3.084
		v3.084h6.167v3.084h3.084v3.084h3.084v3.084h3.084v3.084h6.167v3.084h3.084v3.084h3.084v3.084h6.167v6.167h9.251v3.084h3.084v3.084
		h9.251v3.084h6.167v3.084h6.167v3.084h6.167v3.084h6.167v3.084h6.167v3.084h6.167v3.084h6.167v3.084h12.335v3.084h12.335v3.084
		h9.251v3.084h12.335v3.084h12.335v3.084h12.335v3.084h3.084v-3.084h3.084v3.084h3.084v-3.084h3.084v3.084h15.419v3.084h3.084
		v-3.084h9.251v3.084h9.251v-3.084h3.084v3.084h33.921v-3.084h3.084v3.084h6.167v-3.084h6.167v3.084h3.084v-3.084h12.335v-3.084
		h3.084v3.084h6.167v-3.084h3.084v3.084h3.084v-3.084h3.084v3.084h3.084v-3.084h6.167v-3.084h12.335v-3.084h12.335v-3.084h9.251
		v-3.084h12.335v-3.084h3.084v3.084h3.084v-3.084h6.167v-3.084h9.251v-3.084h6.167v-3.084h6.167v-3.084h6.167v-3.084h6.167v-3.084
		h6.167v-3.084h6.167v-3.084h6.167v-3.084h6.167v-3.084h6.167v-3.084h3.084v-3.084h6.167v-3.084h3.084v-3.084h3.084v-3.084h3.084
		v-3.084h6.167v-3.084h3.084v-3.084h3.084v-3.084h6.167v-3.084h3.084v-3.084h3.084v-3.084h3.084v-3.084h6.167v-6.167h3.084v-3.084
		h3.084v-3.084h3.084v-6.167h3.084v-3.084h3.084v-3.084h3.084v-3.084h3.084v-6.167h3.084v-3.084h3.084v-3.084h3.084v-3.084h3.084
		v-6.167h3.084v-3.084h3.084v-3.084h3.084v-6.167h3.084v-9.251h3.084v-3.084h3.084v-9.251h3.084v-3.084h3.084v-9.251h3.084v-6.167
		h3.084v-6.167h3.084v-6.167h3.084V538.1h3.084v-12.335h3.084v-15.418h3.084v-9.251h3.084v-12.335h3.084v-9.251h3.084v-3.084h-3.084
		v-3.084h3.084V454.84h3.084v-6.167h-3.084v-3.084h3.084v-3.084h-3.084v-3.084h3.084v-21.586h3.084v-3.084h-3.084v-3.084h3.084
		v-12.335h-3.084v-3.084h3.084v-6.167h-3.084v-3.084H753.036z M716.032,272.902v3.084h3.084v3.084h3.084v15.418h3.084v9.251h3.084
		v12.335h3.084v12.335h-3.084v3.084h-3.084v-3.084h-3.084v-3.084h-3.084v-6.167h-3.084v9.251h-3.084v3.084h-3.084v3.084H697.53
		v-3.084h-6.167v-9.251h-3.084v-12.335h-3.084v-12.335h-3.084v-15.418h3.084v-3.084h3.084v-3.084h9.251v3.084h6.167v6.167h3.084
		v-3.084h3.084v-9.251H716.032z M645.107,168.056h3.084v-3.084h6.167v3.084h3.084v3.084h3.084v3.084h3.084v3.084h3.084v6.167h3.084
		v3.084h3.084v3.084h3.084v3.084h3.084v6.167h3.084v9.251h-6.167v-3.084h-6.167v-6.167h-3.084v-3.084h-3.084v-3.084h-3.084v6.167
		h3.084v3.084h3.084v6.167h3.084v6.167h-3.084v3.084h-3.084v3.084h-3.084v-3.084h-6.167v-3.084h-6.167v-3.084h-3.084v6.167h3.084
		v3.084h-3.084v3.084h-6.167v3.084h-3.084v-3.084h-3.084v3.084h-3.084v-3.084h-6.167v-6.167h-3.084v-3.084h-3.084v9.251h-3.084
		v3.084h-3.084v-3.084h-3.084v3.084h-3.084v-3.084H589.6v-3.084h-3.084v-3.084h-3.084v-6.167h-3.084v-18.502h3.084v-3.084h9.251
		v3.084h6.167v3.084h6.167v3.084h3.084v3.084h3.084v6.167h3.084v6.167h3.084v-12.335h-3.084v-6.167h3.084v-3.084h3.084v-3.084h6.167
		v3.084h6.167v-3.084h-3.084v-9.251h3.084v-6.167h9.251v3.084h6.167v-6.167h-3.084V168.056z M598.851,131.051v-6.167h3.084V121.8
		h3.084v3.084h3.084v3.084h6.167v3.084h3.084v3.084h3.084v3.084h3.084v3.084h6.167v3.084h3.084v3.084h3.084v3.084h3.084v3.084h3.084
		v6.167h-9.251v-3.084h-6.167v-3.084h-3.084v6.167h6.167v6.167h3.084v6.167h-3.084v3.084h-6.167v3.084h-3.084v-3.084h-6.167v9.251
		h3.084v3.084h-3.084v3.084h-6.167v3.084h-3.084v-3.084h-9.251v-3.084H589.6v-3.084h-6.167v-6.167h-3.084v-12.335h3.084v-6.167
		h6.167v3.084h6.167v3.084h6.167v-3.084h-3.084v-3.084h-6.167v-3.084H589.6v-6.167h-3.084v-6.167h3.084v-6.167h12.335v-6.167
		H598.851z M275.063,87.88h3.084v-3.084h12.335v-3.084h12.335v-3.084h12.335v-3.084h6.167v-3.084h6.167v3.084h6.167v3.084h-3.084
		v6.167h-6.167v3.084h-12.335v3.084H305.9v3.084h9.251v-3.084h18.502v3.084h3.084v12.335h-3.084v6.167h-3.084v3.084h-9.251v3.084
		H305.9v3.084h-15.418v3.084h-6.167V121.8h-3.084v-3.084h-3.084v-12.335h3.084v-3.084h3.084v-3.084h9.251v-3.084h-15.419v-3.084
		h-3.084V87.88z M68.455,377.748h3.084v-3.084h-3.084v-3.084h3.084v-6.167h-3.084v-3.084h3.084v-18.502h3.084v-6.167h6.167v3.084
		h3.084v3.084h3.084v3.084h-3.084v24.67H80.79v3.084h3.084v6.167H80.79v15.418h-3.084v3.084h-3.084v-3.084h-6.167V377.748z
		 M201.054,664.532v3.084h3.084v3.084h3.084v6.167h3.084v3.084h-3.084v3.084h-3.084v-3.084h-6.167v-3.084h-3.084v-3.084h-3.084
		v-3.084h-6.167v-3.084h-3.084v-3.084h-3.084v-3.084h-3.084v-3.084h-6.167v-3.084h-3.084v-9.251h9.251v3.084h3.084v3.084h6.167
		v-3.084h-3.084v-3.084h-3.084v-3.084h-3.084v-9.251h3.084v-3.084h12.335v3.084h6.167v-3.084h-3.084v-3.084h-3.084v-9.251h3.084
		v-3.084h6.167v-3.084h3.084v3.084h9.251v3.084h6.167v3.084h3.084v3.084h3.084v6.167h3.084v9.251h-3.084v3.084h-3.084v3.084h-6.167
		v-3.084h-3.084v-3.084h-6.167v-3.084h-3.084v-3.084h-6.167v3.084h3.084v3.084h3.084v3.084h6.167v3.084h3.084v3.084h3.084v3.084
		h3.084v6.167h3.084v3.084h-3.084v3.084h-3.084v3.084h-9.251v-3.084H201.054z M401.495,735.457h-3.084v3.084h-18.502v-3.084h-3.084
		v3.084h-6.167v-3.084h-3.084v3.084h-3.084v-3.084h-18.502v-3.084h-6.167v-6.167h3.084v-3.084h30.837v3.084h3.084v-3.084h6.167
		v3.084h15.418v6.167h3.084V735.457z M534.094,716.955h-9.251v3.084h-3.084v3.084h-3.084v-3.084h-3.084v3.084h-9.251v3.084h-12.335
		v3.084h-9.251v3.084h-3.084v-3.084h-6.167v-6.167h3.084v-3.084h3.084v-3.084h12.335v-3.084h3.084v-3.084h-6.167v3.084h-15.418
		v-3.084h-3.084v-9.251h-3.084v-3.084h3.084v-6.167h6.167v-3.084h9.251v-3.084h15.419v-3.084h15.418v-3.084h3.084v3.084h6.167v6.167
		h3.084v6.167h-3.084v6.167h-3.084v3.084h-9.251v3.084h15.419v6.167h3.084V716.955z M642.023,652.197h-3.084v3.084h-3.084v3.084
		h-3.084v3.084h-6.167v6.167h-6.167v3.084h-3.084v3.084h-3.084v3.084h-3.084v3.084h-12.335v-6.167h3.084v-3.084h3.084v-3.084h3.084
		v-3.084h3.084v-3.084h3.084v-3.084h-6.167v3.084h-3.084v3.084h-3.084v3.084h-9.251v-3.084h-6.167v-9.251h3.084v-6.167h3.084v-3.084
		h6.167v-3.084h3.084v-3.084h-6.167v3.084H589.6v3.084h-3.084v-3.084h-6.167v-15.419h3.084v-6.167h6.167v-3.084h3.084v-3.084h-9.251
		v-3.084h-3.084v-18.502h3.084v-6.167h3.084v-3.084h3.084v-3.084h9.251v-3.084h6.167v3.084h3.084v-3.084h6.167v6.167h3.084v3.084
		h-3.084v12.335h-3.084v3.084h-3.084v3.084h-3.084v3.084h-6.167v3.084h-6.167v3.084h12.335v-3.084h3.084v3.084h6.167v6.167h3.084
		v6.167h-3.084v3.084h15.419v3.084h3.084v3.084h-3.084v3.084h3.084v3.084h-3.084v3.084h-3.084v3.084h6.167v-3.084h9.251V652.197z
		 M682.111,605.941h-3.084v6.167h-3.084v3.084h-3.084v3.084h-3.084v3.084h-3.084v3.084h-3.084v6.167h-3.084v3.084h-3.084v3.084
		h-3.084v3.084h-6.167v-3.084h-3.084v-3.084h3.084v-6.167h3.084v-3.084h-6.167v6.167h-12.335v-9.251h-3.084v-6.167h3.084v-3.084
		h3.084v-3.084h3.084v-6.167h-3.084v3.084h-3.084v3.084h-3.084v3.084h-3.084v3.084h-9.251v-6.167h-3.084v-6.167h3.084v-12.335h3.084
		v-6.167h6.167v-3.084h3.084v-3.084h9.251v3.084h6.167v3.084h3.084v3.084h-3.084v6.167h6.167v-3.084h3.084v-3.084h3.084v-3.084
		h3.084v3.084h6.167v3.084h3.084v9.251h6.167v-3.084h6.167V605.941z M731.451,488.761h-3.084v12.335h-3.084v9.251h-3.084v9.251
		h-3.084v3.084h3.084v3.084h-3.084v3.084h-3.084v3.084h-6.167v-21.586h3.084v-12.335h3.084v-12.335h3.084v-6.167h3.084v-3.084h3.084
		v-3.084h3.084v3.084h3.084V488.761z M685.195,525.765v-3.084h-3.084v-15.419h-3.084v9.251h-3.084v3.084h-3.084v3.084h-6.167v3.084
		h-3.084v-3.084h-3.084v3.084h-3.084v-3.084h-9.251v-3.084h-3.084v-24.67h3.084V479.51h3.084v-6.167h3.084v-3.084h3.084v-3.084
		h21.586v3.084h6.167v21.586h-3.084v3.084h6.167V479.51h3.084v-6.167h6.167v-3.084h12.335v3.084h3.084v3.084h3.084v6.167h-3.084
		v12.335h-3.084v12.335h-3.084v12.335h-3.084v6.167h-6.167v3.084h-9.251v-3.084H685.195z M740.702,411.668h-3.084v3.084h3.084v3.084
		h-3.084v6.167h3.084v3.084h-3.084v24.67h-3.084v12.335h-3.084v3.084h-3.084v-3.084h-6.167v-12.335h3.084v-6.167h-3.084v3.084
		h-3.084v12.335h-3.084v3.084h-3.084v3.084h-9.251v-3.084h-6.167v-3.084h-3.084v-21.586h3.084v-3.084h-6.167v21.586h-3.084v3.084
		h-3.084v3.084h-24.67v-3.084h-6.167v-15.419h-3.084v6.167h-3.084v9.251h-6.167v3.084h-21.586v3.084h21.586v3.084h3.084v21.586
		h-3.084v21.586h-3.084v6.167h-6.167v3.084h-6.167v3.084h-3.084v-3.084h-3.084v6.167h12.335v18.502h3.084V538.1h3.084v-6.167h3.084
		v-3.084h9.251v-3.084h3.084v3.084h15.418v15.418h-3.084v6.167h-3.084v9.251h3.084v-6.167h3.084v-6.167h3.084V538.1h3.084v-3.084
		h3.084v-3.084h15.419v6.167h3.084v6.167h-3.084v9.251h3.084v-6.167h3.084v-6.167h6.167V538.1h3.084v3.084h3.084v9.251h-3.084v6.167
		h-3.084v3.084h-3.084v9.251h-3.084v6.167h-3.084v6.167h-3.084v6.167h-3.084v3.084h-6.167v-6.167h-3.084v-3.084h3.084v-6.167h-3.084
		v3.084h-3.084v3.084h-6.167v3.084h-6.167v-3.084h-6.167v-9.251h3.084v-9.251h-3.084v3.084h-3.084v6.167h-3.084v3.084h-9.251v3.084
		h-3.084v-3.084h-9.251v-3.084h-3.084v-12.335h3.084v-12.335h-3.084v9.251h-3.084v6.167h-3.084v6.167h-3.084v3.084h-3.084v3.084
		h-21.586v3.084H589.6v-6.167h-3.084v-18.502h3.084v-12.335h3.084v-9.251h6.167v-3.084h12.335v-6.167h-3.084v3.084h-6.167v-3.084
		h-3.084v-3.084h-3.084v-21.586h3.084v-3.084h-3.084v-3.084h-3.084v24.67H589.6v6.167h-6.167v3.084h-6.167v3.084h-3.084v-3.084
		h-3.084v3.084h-30.837v-3.084h-3.084v-18.502h-3.084v15.419h-3.084v3.084h-3.084v3.084h-3.084v3.084h-15.419v3.084h-3.084v3.084
		h6.167v-3.084h12.335v3.084h6.167v24.67h-3.084v9.251h6.167v-3.084h-3.084v-3.084h3.084v-21.586h3.084V538.1h3.084v-3.084h9.251
		v-3.084h37.004v18.502h-3.084v18.502h-3.084v6.167h-3.084v3.084h-6.167v3.084h-9.251v3.084h-18.502v3.084h-3.084v-3.084h-6.167
		v-6.167h-3.084v-3.084h-3.084v6.167h-3.084v6.167h-6.167v3.084h-15.418v3.084h18.502v3.084h3.084v6.167h3.084v3.084h3.084v-12.335
		h6.167v-3.084h9.251v-3.084h18.502v-3.084h9.251v6.167h3.084v21.586h-3.084v6.167h-3.084v3.084h-3.084v3.084h-6.167v3.084h-9.251
		v3.084h12.335v-3.084h6.167v3.084h3.084v6.167h3.084v15.419h-3.084v3.084h-3.084v3.084h-6.167v3.084h-9.251v3.084h-9.251v3.084
		h-6.167v3.084h9.251v-3.084h9.251v-3.084h9.251v-3.084h6.167v-3.084h3.084v3.084h6.167v9.251h3.084v3.084h-3.084v3.084h-3.084
		v3.084h-6.167v3.084h-3.084v3.084h6.167v-3.084h15.419v6.167H589.6v3.084h-6.167v3.084h-6.167v3.084h-6.167v3.084h-6.167v3.084
		h-3.084v3.084h-12.335v3.084h-3.084v3.084h-3.084v-3.084h-3.084v-9.251h6.167v-3.084h6.167v-3.084h6.167v-3.084h6.167v-3.084
		h-9.251v3.084h-6.167v3.084h-15.419v-18.502h3.084v-3.084h3.084v-3.084h-3.084v-3.084h-6.167v-6.167h-3.084v-3.084h3.084v-3.084
		h-3.084v-3.084h-3.084v21.586h-3.084v3.084h-6.167v3.084h-3.084v-3.084h-3.084v3.084h-9.251v3.084h-15.418v3.084h-9.251v-3.084
		h-3.084v-3.084h-3.084v-24.67h3.084v-3.084h3.084v-3.084h12.335v-3.084h15.419v-3.084h-3.084v-3.084h-3.084v3.084h-12.335v3.084
		h-9.251v-3.084h-6.167v-37.004h3.084v-3.084h3.084v-3.084h6.167v-3.084h21.586v-3.084h-6.167v-3.084h-3.084v3.084h-18.502v-3.084
		h-6.167v-6.167h3.084v-3.084h-6.167v9.251h-3.084v6.167h-21.586v3.084h3.084v3.084h3.084v-3.084h9.251v3.084h6.167v3.084h3.084
		v24.67h-3.084v3.084h3.084v6.167h-3.084v6.167h-6.167v3.084h-21.586v3.084h24.67v3.084h3.084v6.167h3.084v18.502h-3.084v6.167
		h-3.084v3.084H447.75v3.084h-3.084v3.084h6.167v-3.084h6.167v3.084h9.251v9.251h3.084v3.084h-3.084v6.167h-3.084v3.084h-3.084
		v3.084h-27.753v6.167h3.084v-3.084h27.753v3.084h3.084v3.084h3.084v3.084h-6.167v3.084h-21.586v3.084h-3.084v-3.084h-3.084v3.084
		h-24.67v-3.084h-3.084v-6.167h3.084v-3.084h15.419v-3.084h3.084v-3.084h-6.167v3.084h-6.167v-3.084h-9.251v-6.167h-3.084v-9.251
		h3.084v-3.084h3.084v-3.084h3.084v-3.084h21.586v-3.084h-9.251v-3.084h-3.084v3.084h-12.335v-3.084h-3.084v-3.084h-3.084v-3.084
		h3.084v-3.084h-3.084v-6.167h3.084v-3.084h-3.084v-6.167h3.084v-3.084h3.084v-6.167h12.335v-3.084h-9.251v-3.084h-3.084v-3.084
		h-3.084v-3.084h-3.084v-6.167h3.084v-3.084h-3.084v-6.167h-3.084v18.502h-3.084v3.084h-6.167v3.084h-9.251v3.084h12.335v3.084
		h6.167v30.837h-6.167v3.084h-21.586v3.084h21.586v3.084h3.084v3.084h3.084v15.419h-3.084v3.084h-3.084v3.084h-6.167v-3.084h-37.004
		v-3.084h-9.251v-3.084h-3.084v-12.335h3.084v-3.084h3.084v-6.167h12.335v3.084h6.167v-3.084h-3.084v-3.084h-12.335v-3.084h-3.084
		v-3.084h-3.084v-3.084h-3.084v-3.084h-3.084v6.167h-3.084v3.084h-9.251v-3.084h-15.419v3.084h9.251v3.084h12.335v3.084h3.084v3.084
		h3.084v12.335h-3.084v6.167h-18.502v3.084h9.251v3.084h6.167v3.084h3.084v3.084h-3.084v3.084h-6.167v3.084h-3.084v-3.084h-9.251
		v-3.084h-9.251v-3.084h-3.084v3.084h-3.084v-3.084h-6.167v-3.084h-12.335v-3.084h-3.084v-6.167h3.084v-3.084h12.335v-3.084h-6.167
		v-3.084h-3.084v-3.084h-3.084v-12.335h3.084v-3.084h3.084v-3.084h6.167v3.084h12.335v3.084h3.084v-3.084h3.084v-3.084h-12.335
		v-3.084h-9.251v-3.084h-3.084v-6.167h-3.084v-3.084h3.084v-3.084h-3.084v-6.167h-3.084v12.335h-9.251v3.084h-3.084v3.084h3.084
		v3.084h3.084v3.084h3.084v12.335h-3.084v3.084h-15.419v3.084h6.167v3.084h3.084v6.167h3.084v3.084h-12.335v-3.084h-9.251v-3.084
		h-3.084v-3.084h-9.251v-3.084h-6.167v-3.084h-6.167v-3.084h-3.084v-3.084h-3.084v-6.167h12.335v3.084h9.251v-3.084h-6.167v-3.084
		h-3.084v-3.084h-6.167v-3.084h3.084v-3.084h-3.084v-6.167h3.084v-3.084h18.502v-3.084h-9.251v-6.167h-3.084v-6.167h-3.084v-3.084
		h3.084v-12.335h6.167v-3.084h6.167v-3.084h-3.084v-3.084h-3.084v-3.084h-3.084v-3.084h-3.084v-9.251h-3.084v-3.084h-3.084v6.167
		h3.084v3.084h-3.084v3.084h-9.251v-3.084h-9.251v-3.084h-6.167v-6.167h-3.084v-3.084h-3.084v-6.167h-3.084v12.335h3.084v3.084
		h-3.084v3.084h-3.084v3.084h-9.251v-3.084h-3.084v-3.084h-3.084v6.167h3.084v12.335h-3.084v3.084h-9.251v-3.084h-3.084v-3.084
		h-3.084v-3.084h-3.084v6.167h3.084v3.084h3.084v9.251h-3.084v3.084h-3.084v-3.084h-3.084v-6.167h-3.084v-3.084h-3.084v-3.084
		h-3.084v-3.084h-3.084v-6.167h-3.084v-3.084h-3.084v-3.084h-3.084v-3.084h-3.084v-6.167h-3.084v-3.084h3.084v-3.084h3.084v3.084
		h6.167v3.084h3.084v3.084h3.084v-6.167h-3.084v-12.335h6.167v-3.084h3.084v3.084h6.167v3.084h3.084v3.084h3.084v3.084h3.084v-6.167
		h-3.084v-6.167h3.084v-3.084h6.167v-3.084h9.251v3.084h3.084v3.084h3.084v6.167h3.084v3.084h3.084v-12.335h3.084v-3.084h9.251
		v-3.084h-9.251v-3.084h-9.251v-6.167h-3.084v-6.167h-3.084v3.084h-3.084v3.084h3.084v3.084h-3.084v6.167h-9.251v3.084h-6.167
		v-3.084h-6.167v-3.084h-3.084v-3.084h-3.084v-6.167h-3.084v-6.167h-3.084v9.251h3.084v6.167h3.084v3.084h-3.084v6.167h-6.167v3.084
		h-9.251v-6.167h-3.084v-3.084h-3.084v-6.167h-3.084v-6.167h-3.084v9.251h3.084v6.167h3.084v12.335h-6.167v-3.084h-3.084v-3.084
		h-3.084v-6.167h-3.084v-6.167h-3.084v-6.167h-3.084v-9.251h-3.084v-6.167h-3.084v-3.084h-3.084v-3.084h3.084V538.1h3.084v3.084
		h6.167v3.084h3.084v6.167h3.084v-15.419h3.084v-3.084h15.418v6.167h3.084v3.084h3.084V538.1h3.084v-3.084h-3.084v-3.084h3.084
		v-3.084h9.251v-3.084h-3.084v-3.084h-3.084v3.084h-3.084v-3.084h-6.167v-3.084h-3.084v-9.251h-3.084v-12.335h-3.084v18.502h3.084
		v3.084h-3.084v6.167h-6.167v3.084h-9.251v-3.084h-3.084v-3.084h-3.084v-6.167h-3.084v12.335h-3.084v3.084h-3.084v-3.084h-3.084
		v-3.084h-3.084v-6.167h-3.084v-3.084h3.084v-3.084h-3.084v-6.167H80.79v-15.418h-3.084v-9.251h-3.084v-3.084h3.084v-3.084h3.084
		v-3.084h3.084v3.084h3.084v3.084h3.084v12.335h3.084v-18.502h3.084v-3.084h15.419v3.084h3.084v3.084h3.084v9.251h3.084v12.335
		h3.084v-15.418h-3.084v-9.251h3.084v-3.084h6.167v-3.084h18.502v3.084h6.167v6.167h3.084v9.251h3.084v-12.335h3.084v-3.084h3.084
		v-3.084h30.837v3.084h6.167v3.084h3.084v6.167h3.084v24.67h3.084v15.419h-3.084v3.084h-6.167v3.084h-3.084v-3.084h-3.084v3.084
		h-3.084v-3.084h-3.084v6.167h18.502v3.084h3.084v3.084h3.084v9.251h3.084v3.084h-3.084v3.084h3.084v12.335h3.084v-21.586h-3.084
		V538.1h3.084v-6.167h12.335v-3.084h3.084v-3.084h-6.167v3.084h-3.084v-3.084h-6.167v-3.084h-3.084v-3.084h-3.084v-18.502h-3.084
		v-3.084h3.084v-3.084h-3.084v-21.586h3.084v-3.084h3.084v-3.084h3.084v-3.084h-6.167v-3.084h-6.167v-15.419h-6.167v3.084h3.084
		v9.251h-3.084v3.084h-3.084v3.084h-33.921v-3.084h-6.167v-3.084h-3.084v-12.335h-3.084v12.335h-3.084v3.084h-3.084v3.084h-24.67
		v-3.084h-3.084v-3.084h-3.084v-15.418h-3.084v-3.084h-3.084v6.167h3.084v12.335h-3.084v6.167h-6.167v3.084h-9.251v-3.084h-3.084
		v-3.084h-3.084v-3.084h-3.084V430.17h-3.084v6.167H80.79v3.084h3.084v24.67H80.79v3.084h-6.167v-6.167h-3.084v-9.251h-3.084v-3.084
		h3.084v-12.335h-3.084v-3.084h3.084v-3.084h-3.084v-21.586h3.084v-3.084h3.084v3.084h6.167v9.251h3.084v-3.084h3.084v-3.084h-3.084
		v-3.084h6.167v-3.084h6.167v-3.084h-3.084v-3.084h-3.084v-3.084h-3.084v-3.084h-3.084v-3.084h3.084v-3.084h-3.084v-3.084h3.084
		v-33.921h3.084v-6.167h3.084v-3.084h3.084v-3.084h3.084v3.084h3.084v-3.084h3.084v3.084h6.167v6.167h3.084v9.251h3.084v-9.251
		h3.084v-3.084h3.084v-3.084h24.67v3.084h3.084v3.084h3.084v24.67h3.084v-21.586h3.084v-6.167h3.084v-3.084h37.004v3.084h3.084
		v3.084h3.084v3.084h-3.084v3.084h3.084v3.084h-3.084v3.084h3.084v3.084h3.084v-15.419h3.084v-6.167h6.167v-3.084h3.084v-3.084
		h-6.167v-3.084h-3.084v-3.084h-3.084v-3.084h3.084v-18.502h3.084V288.32h3.084v-6.167h3.084v-3.084h15.419v-3.084h30.837v6.167
		h3.084v3.084h-3.084v3.084h3.084v3.084h3.084v-12.335h3.084v-3.084h3.084v-3.084h24.67v-3.084h3.084v3.084h3.084v-6.167h-9.251
		v3.084h-18.502v-3.084h-6.167v-9.251h-3.084V254.4h-3.084v12.335h-3.084v3.084h-9.251v3.084h-24.67v3.084h-3.084v-3.084h-3.084
		v3.084h-3.084v-3.084h-3.084v-6.167h-3.084v-6.167h-3.084v9.251h-3.084v3.084h-3.084v3.084h-15.419v6.167h3.084v-3.084h6.167v3.084
		h6.167v3.084h3.084v12.335h-3.084v3.084h3.084v3.084h-3.084v18.502h-3.084v9.251h-3.084v3.084h-6.167v3.084h-30.837v-3.084h-3.084
		v-3.084h-3.084v-12.335h-3.084v12.335h-6.167v3.084h-3.084v3.084h-18.502v-3.084h-6.167v-3.084h-3.084v-9.251h-3.084v6.167h-3.084
		v3.084h-3.084v3.084H96.208v-3.084h-3.084v-15.419h3.084v-12.335h3.084v-3.084h-6.167v12.335h-3.084v12.335h-3.084v3.084H80.79
		v3.084h-3.084v-6.167h-3.084v-3.084h3.084v-12.335h3.084v-12.335h3.084v-6.167h3.084v-3.084h-3.084v-3.084h3.084v-6.167h3.084
		v-6.167h6.167v3.084h3.084v12.335h-3.084v9.251h3.084v-3.084h3.084v-12.335h3.084v-3.084h3.084v-3.084h12.335v3.084h3.084v3.084
		h3.084v3.084h-3.084v3.084h3.084v3.084h-3.084v12.335h-3.084v12.335h-3.084v3.084h3.084v3.084h3.084v-15.419h3.084v-12.335h3.084
		v-9.251h3.084v-3.084h9.251v-3.084h3.084v-3.084h-6.167v-6.167h-3.084v-6.167h-3.084v3.084h-3.084v3.084h-3.084v3.084H114.71
		v-3.084h-3.084V254.4h-3.084v6.167h-3.084v3.084h-3.084v3.084h-3.084v-3.084h-3.084V254.4h3.084v-9.251h3.084v-3.084h3.084v-9.251
		h3.084v-3.084h3.084v-9.251h3.084v-3.084h3.084v-3.084h6.167v15.418h3.084v-3.084h3.084v-3.084h3.084v-3.084h9.251v3.084h3.084
		v3.084h3.084v3.084h-3.084v9.251h3.084v-3.084h3.084v-3.084h3.084v-3.084h9.251v-3.084h3.084v-3.084h-3.084v-3.084h-3.084v-6.167
		h3.084v-6.167h-3.084v3.084h-3.084v3.084h-3.084v3.084H139.38V205.06h3.084v-3.084h3.084v-6.167h-3.084v3.084h-3.084v3.084h-3.084
		v3.084h-3.084v3.084h-6.167v-12.335h3.084v-3.084h3.084v-3.084h3.084v-3.084h3.084v-6.167h3.084v-3.084h3.084v-3.084h3.084v-6.167
		h3.084v-3.084h9.251v9.251h-3.084v3.084h-3.084v6.167h3.084v-3.084h3.084v-3.084h3.084v-3.084h9.251v3.084h3.084v12.335h-3.084
		v6.167h-3.084v3.084h-3.084v6.167h3.084v-3.084h3.084v-3.084h3.084v-6.167h3.084v-3.084h9.251v3.084h3.084v3.084h3.084v3.084
		h-3.084v12.335h3.084v-6.167h3.084v-3.084h3.084v-3.084h3.084v-3.084h3.084v-3.084h6.167v-3.084h-9.251v3.084h-3.084v-3.084h-9.251
		v-12.335h3.084v-3.084h3.084v-3.084h-6.167v3.084h-12.335v-3.084h-3.084v-9.251h3.084v-3.084h3.084v-3.084h-6.167v3.084h-9.251
		v-6.167h3.084v-6.167h6.167v-3.084h3.084v-3.084h3.084v-3.084h3.084v-3.084h6.167v-3.084h3.084v-3.084h3.084v-3.084h12.335v6.167
		h-3.084v6.167h9.251v3.084h3.084v3.084h3.084v3.084h-3.084v6.167h-3.084v3.084h-3.084v3.084h-3.084v3.084h-6.167v3.084h-3.084
		v3.084h-3.084v3.084h6.167v-3.084h6.167v-3.084h3.084v-3.084h3.084v-3.084h6.167v3.084h3.084v6.167h3.084v-3.084h3.084v-3.084
		h-3.084v-3.084h3.084v-6.167h3.084v-3.084h3.084v-3.084h6.167v-3.084h6.167v-3.084h-9.251v3.084h-6.167v3.084h-3.084v-3.084h-6.167
		v-3.084h-3.084v-9.251h3.084v-6.167h6.167V121.8h-15.419v-6.167h3.084v-3.084h6.167v-3.084h3.084v-3.084h6.167v-3.084h9.251v-3.084
		h3.084v-3.084h9.251v-3.084h6.167v-3.084h3.084v6.167h3.084v3.084h-3.084v3.084h-3.084v3.084h-6.167v3.084h-6.167v3.084h-6.167
		v3.084h9.251v-3.084h6.167v-3.084h12.335v3.084h3.084v9.251h-3.084v9.251h-6.167v3.084h-9.251v3.084h-6.167v3.084h9.251v-3.084
		h9.251v-3.084h3.084v3.084h6.167v15.419h3.084v3.084h-3.084v6.167h-3.084v3.084h-3.084v3.084h-9.251v3.084h-9.251v3.084h-6.167
		v3.084h9.251v-3.084h9.251v-3.084h6.167v3.084h6.167v30.837h-3.084v6.167h-3.084v3.084h-12.335v3.084h-15.419v3.084h3.084v3.084
		h3.084v-3.084h12.335v-3.084h3.084v3.084h9.251V254.4h3.084v-18.502h3.084v-3.084h-3.084v-6.167h3.084v-3.084h3.084v-6.167h6.167
		v-3.084H305.9v-3.084h-21.586v-9.251h-3.084v-9.251h3.084v-3.084h-3.084v-6.167h3.084V171.14h3.084v-3.084h6.167v-3.084H305.9
		v-3.084h-18.502v-3.084h-3.084v-9.251h-3.084v-6.167h3.084v-3.084h-3.084v-3.084h3.084v-6.167h3.084v-3.084h6.167v-3.084h3.084
		v3.084h3.084v-3.084h9.251V121.8h15.419v-3.084h9.251v3.084h3.084v6.167h3.084v-3.084h3.084V121.8h3.084v-3.084h3.084v-3.084
		h15.419v-3.084h-3.084v-3.084h-3.084v3.084h-3.084v-3.084h-3.084v3.084h-6.167v-3.084h-3.084v-6.167h-3.084v-9.251h3.084v-3.084
		h3.084V87.88h3.084v-3.084h-3.084v-3.084h-3.084v-3.084h-3.084v-6.167h3.084v-3.084h3.084v3.084h3.084v-3.084h12.335v-3.084h3.084
		v3.084h6.167v-3.084h3.084v3.084h6.167v-3.084h18.502v6.167h3.084v3.084h-6.167v3.084h-15.419v3.084h3.084v3.084h6.167v-3.084
		h6.167v3.084h3.084v3.084h3.084v15.419h-3.084v3.084h-6.167v3.084h-21.586v6.167h6.167v-3.084h21.586v3.084h3.084v27.753h-3.084
		v3.084h-3.084v3.084h-18.502v3.084h-3.084v3.084h6.167v-3.084h15.419v3.084h3.084v3.084h3.084v40.088h-6.167v3.084h-21.586v6.167
		h3.084v-3.084h3.084v3.084h3.084v-3.084h3.084v3.084h3.084v-3.084h6.167v3.084h3.084v3.084h3.084v46.256h-3.084v3.084h-3.084v3.084
		h-15.419v3.084h12.335v3.084h6.167v3.084h3.084v15.419h3.084v-3.084h3.084v-3.084h-3.084v-6.167h3.084v-6.167h6.167v-3.084h24.67
		v3.084h3.084v-3.084h3.084v3.084h3.084v-6.167h-33.921v-3.084h-6.167v-3.084h-3.084v-6.167h3.084v-3.084h-3.084v-3.084h3.084
		v-3.084h-3.084v-3.084h3.084v-3.084h-3.084v-3.084h3.084v-3.084h-3.084v-6.167h3.084v-3.084h-3.084v-6.167h3.084v-6.167h6.167
		v-3.084h3.084v3.084h3.084v-3.084h3.084v-3.084h-12.335v-3.084h-3.084v-6.167h-3.084v-3.084h3.084v-3.084h-3.084v-12.335h3.084
		v-3.084h-3.084v-3.084h3.084v-3.084h-3.084v-3.084h3.084v-6.167h6.167v-3.084h6.167v3.084h3.084v-3.084h9.251v-3.084h-21.586
		v-3.084h-3.084v-3.084h-3.084v-3.084h3.084v-3.084h-3.084v-6.167h3.084v-3.084h-3.084V121.8h3.084v-6.167h3.084v-3.084h24.67v3.084
		h6.167v-3.084h-3.084v-3.084h-24.67v-3.084h-3.084v-3.084h-3.084v-3.084h-3.084v-3.084h3.084v-3.084h-3.084v-3.084h3.084v-6.167
		h9.251v-3.084h3.084v3.084h3.084v-6.167h-12.335v-3.084h-3.084v-6.167h3.084v-3.084h21.586v3.084h3.084v-3.084h3.084v3.084h21.586
		v3.084h9.251v3.084h-3.084v6.167h-30.837v-3.084h-3.084v3.084h-3.084v-3.084h-3.084v6.167h33.921v3.084h3.084v3.084h3.084v6.167
		h3.084v6.167h-3.084v3.084h-3.084v3.084h-3.084v3.084h-6.167v3.084h6.167v3.084h3.084v3.084h3.084v18.502h-3.084v3.084h3.084v3.084
		h-3.084v3.084h-3.084v3.084h-27.753v3.084h24.67v3.084h6.167v6.167h3.084v9.251h-3.084v3.084h3.084v21.586h-3.084v3.084h-6.167
		v3.084h-9.251v3.084h12.335v3.084h3.084v3.084h3.084v21.586h3.084v-3.084h3.084v-3.084h-3.084v-12.335h3.084v-3.084h3.084v-3.084
		h6.167v-6.167h-6.167v-3.084h-3.084v-3.084h-3.084v-37.004h6.167v-3.084h9.251v3.084h18.502v-3.084h-15.419v-3.084h-12.335v-3.084
		h-3.084v-6.167h-3.084v-21.586h3.084V121.8h3.084v-3.084h6.167v3.084h18.502v-3.084h-12.335v-3.084h-12.335v-6.167h-3.084V94.047
		h3.084v-3.084h15.418V87.88h-9.251v-3.084h-3.084v-3.084h-3.084v-6.167h6.167v-3.084h3.084v3.084h9.251v3.084h15.418v3.084h6.167
		v3.084h3.084v-3.084h3.084v3.084h6.167v3.084h3.084v3.084h3.084v3.084h-3.084v3.084h-15.419v3.084h6.167v3.084h6.167v3.084h3.084
		v3.084h-3.084v3.084h3.084v3.084h-3.084v6.167h-6.167v3.084h-9.251V121.8h-6.167v-3.084h-3.084v3.084h-3.084v3.084h9.251v3.084
		h9.251v3.084h6.167v12.335h6.167v-6.167h6.167v-3.084h3.084v3.084h9.251v-3.084h-6.167v-3.084h-6.167v-3.084h-3.084v-3.084h-3.084
		V121.8h3.084v-9.251h3.084v-3.084h12.335v3.084h6.167v3.084h9.251v-3.084h-6.167v-3.084h-6.167v-3.084h-6.167v-3.084h-3.084v-3.084
		h-3.084v-6.167h12.335v3.084h6.167v3.084h6.167v3.084h9.251v3.084h3.084v3.084h6.167v3.084h6.167v3.084h3.084v6.167h-15.419v3.084
		h3.084v3.084h3.084v6.167h3.084v3.084h-3.084v6.167h-6.167v3.084h-3.084v-3.084h-9.251v-3.084h-9.251v3.084h6.167v3.084h9.251
		v3.084h3.084v3.084h3.084v15.419h-3.084v6.167h-3.084v3.084h-9.251v3.084h6.167v3.084h3.084v3.084h3.084v6.167h3.084v24.67h-3.084
		v3.084h-12.335v-3.084h-15.419v3.084h12.335v3.084h12.335v3.084h6.167v3.084h3.084v9.251h3.084v12.335h3.084V229.73h6.167v-3.084
		h9.251v3.084h9.251v3.084h9.251v3.084h3.084v3.084h3.084v9.251h3.084v-15.419h6.167v-3.084h6.167v-3.084h3.084v3.084h9.251v3.084
		h3.084v6.167h3.084v-6.167h3.084v-3.084h-3.084v-3.084h3.084v-3.084h3.084v-3.084h9.251v3.084h3.084v3.084h3.084v6.167h3.084
		v-12.335h-3.084v-3.084h3.084v-3.084h6.167v6.167h3.084v3.084h3.084v3.084h3.084v3.084h-3.084v3.084h3.084v3.084h3.084v9.251h3.084
		v3.084h3.084v6.167h3.084v9.251h-3.084v3.084h-3.084v-3.084h-3.084v-3.084h-3.084v-3.084h-3.084v-6.167h-3.084v9.251h3.084v9.251
		h-3.084v3.084h-12.335v-3.084h-6.167v-3.084h-3.084v-9.251h-3.084v-6.167h-3.084v9.251h3.084v12.335h-3.084v3.084h-6.167v3.084
		h3.084v3.084h3.084v-3.084h3.084v3.084h3.084v3.084h3.084v3.084h3.084v12.335h3.084v12.335h3.084v12.335h3.084v3.084h-3.084v6.167
		h-6.167v3.084h-18.502v-3.084h-6.167v-3.084h-3.084v-6.167h-3.084v-18.502h-3.084v-21.586h3.084v-3.084h6.167v-3.084h3.084v-3.084
		h-15.419v-6.167h-3.084v-3.084h-3.084v3.084h-3.084v6.167h-12.335v6.167h15.418v6.167h3.084v3.084h3.084v18.502h3.084v24.67h-3.084
		v3.084H614.27v-3.084h-3.084v3.084h-3.084v-3.084h-3.084v-3.084h-3.084v-6.167h-3.084v-9.251h-3.084v15.419h-3.084v3.084h-6.167
		v3.084h-3.084v3.084h9.251v3.084h3.084v3.084h3.084v37.004h3.084v-18.502h3.084v-3.084h-3.084v-18.502h3.084v-3.084h37.004v3.084
		h6.167v6.167h3.084v3.084h3.084v-9.251h6.167v-3.084h24.67v3.084h3.084v3.084h3.084v3.084h-3.084v3.084h3.084v21.586h3.084v-30.837
		h3.084v-3.084h3.084v-3.084h3.084v3.084h3.084v-3.084h6.167v3.084h3.084v3.084h3.084v15.419h3.084v37.004h-3.084v3.084h-6.167
		v3.084h3.084v3.084h3.084v3.084h3.084v24.67h3.084v-12.335h3.084v-3.084h-3.084v-3.084h3.084v-6.167h3.084v-3.084h3.084v3.084
		h6.167V411.668z M740.702,377.748h-3.084v3.084h3.084v3.084h-3.084v3.084h3.084v6.167h-3.084v6.167h-6.167v-3.084h-3.084v-6.167
		h-3.084v-6.167h3.084v-3.084h-3.084v-24.67h-3.084v-12.335h3.084v-6.167h6.167v3.084h3.084v9.251h3.084v3.084h-3.084v3.084h3.084
		v3.084h-3.084v3.084h3.084v12.335h3.084V377.748z"/>
	<rect x="614.27" y="522.681" width="3.084" height="6.167"/>
	<polygon points="423.081,535.016 419.997,535.016 419.997,538.1 413.829,538.1 413.829,535.016 407.662,535.016 407.662,528.849 
		404.578,528.849 404.578,525.765 407.662,525.765 407.662,522.681 404.578,522.681 404.578,516.514 407.662,516.514 
		407.662,513.43 404.578,513.43 404.578,510.347 407.662,510.347 407.662,507.263 404.578,507.263 404.578,504.179 407.662,504.179 
		407.662,498.012 401.495,498.012 401.495,531.933 398.411,531.933 398.411,538.1 376.825,538.1 376.825,541.184 395.327,541.184 
		395.327,544.267 398.411,544.267 398.411,547.351 401.495,547.351 401.495,559.686 404.578,559.686 404.578,556.602 
		407.662,556.602 407.662,553.518 404.578,553.518 404.578,550.435 407.662,550.435 407.662,544.267 410.746,544.267 
		410.746,541.184 426.164,541.184 426.164,538.1 423.081,538.1 	"/>
	<rect x="537.177" y="488.761" width="3.084" height="3.084"/>
	<polygon points="435.415,535.016 432.332,535.016 432.332,538.1 429.248,538.1 429.248,541.184 441.583,541.184 441.583,538.1 
		435.415,538.1 	"/>
	<polygon points="336.737,177.307 339.821,177.307 339.821,186.558 342.904,186.558 342.904,171.14 336.737,171.14 	"/>
	<rect x="438.499" y="692.285" width="3.084" height="3.084"/>
	<rect x="432.332" y="652.197" width="3.084" height="3.084"/>
	<rect x="426.164" y="652.197" width="3.084" height="3.084"/>
	<rect x="441.583" y="689.201" width="3.084" height="3.084"/>
	<rect x="435.415" y="689.201" width="3.084" height="3.084"/>
	<rect x="404.578" y="624.444" width="3.084" height="3.084"/>
	<rect x="429.248" y="649.113" width="3.084" height="3.084"/>
	<polygon points="407.662,621.36 407.662,618.276 404.578,618.276 404.578,612.109 407.662,612.109 407.662,605.941 
		410.746,605.941 410.746,602.858 426.164,602.858 426.164,599.774 419.997,599.774 419.997,596.69 416.913,596.69 416.913,599.774 
		413.829,599.774 413.829,596.69 407.662,596.69 407.662,590.523 404.578,590.523 404.578,587.439 407.662,587.439 407.662,584.355 
		404.578,584.355 404.578,581.272 407.662,581.272 407.662,578.188 404.578,578.188 404.578,575.104 407.662,575.104 
		407.662,572.021 404.578,572.021 404.578,565.853 407.662,565.853 407.662,562.77 401.495,562.77 401.495,593.607 398.411,593.607 
		398.411,596.69 395.327,596.69 395.327,599.774 392.244,599.774 392.244,596.69 389.16,596.69 389.16,599.774 382.992,599.774 
		382.992,602.858 395.327,602.858 395.327,605.941 401.495,605.941 401.495,624.444 404.578,624.444 404.578,621.36 	"/>
	<rect x="423.081" y="649.113" width="3.084" height="3.084"/>
	<rect x="719.116" y="442.505" width="3.084" height="3.084"/>
	<polygon points="574.182,464.091 574.182,467.175 546.429,467.175 546.429,464.091 543.345,464.091 543.345,461.007 
		540.261,461.007 540.261,457.924 543.345,457.924 543.345,454.84 540.261,454.84 540.261,448.673 543.345,448.673 543.345,445.589 
		540.261,445.589 540.261,439.422 537.177,439.422 537.177,461.007 534.094,461.007 534.094,464.091 531.01,464.091 531.01,467.175 
		521.759,467.175 521.759,470.259 524.843,470.259 524.843,473.342 534.094,473.342 534.094,479.51 537.177,479.51 537.177,482.593 
		534.094,482.593 534.094,485.677 540.261,485.677 540.261,476.426 543.345,476.426 543.345,473.342 549.512,473.342 
		549.512,470.259 577.266,470.259 577.266,467.175 580.349,467.175 580.349,464.091 	"/>
	<rect x="438.499" y="599.774" width="3.084" height="3.084"/>
	<polygon points="725.283,436.338 719.116,436.338 719.116,439.422 722.199,439.422 722.199,442.505 725.283,442.505 	"/>
	<rect x="580.349" y="467.175" width="3.084" height="3.084"/>
	<polygon points="598.851,476.426 601.935,476.426 601.935,473.342 605.019,473.342 605.019,470.259 608.103,470.259 
		608.103,467.175 614.27,467.175 614.27,470.259 617.354,470.259 617.354,464.091 605.019,464.091 605.019,457.924 601.935,457.924 
		601.935,424.003 605.019,424.003 605.019,420.919 598.851,420.919 598.851,457.924 595.768,457.924 595.768,461.007 
		592.684,461.007 592.684,464.091 583.433,464.091 583.433,467.175 586.517,467.175 586.517,470.259 592.684,470.259 
		592.684,473.342 595.768,473.342 595.768,491.844 598.851,491.844 	"/>
	<polygon points="450.834,535.016 450.834,538.1 447.75,538.1 447.75,535.016 444.666,535.016 444.666,541.184 453.918,541.184 
		453.918,538.1 457.001,538.1 457.001,535.016 	"/>
	<polygon points="494.006,531.933 490.922,531.933 490.922,535.016 478.587,535.016 478.587,531.933 475.503,531.933 
		475.503,528.849 472.42,528.849 472.42,516.514 475.503,516.514 475.503,513.43 472.42,513.43 472.42,504.179 475.503,504.179 
		475.503,498.012 469.336,498.012 469.336,531.933 463.169,531.933 463.169,535.016 460.085,535.016 460.085,538.1 457.001,538.1 
		457.001,541.184 463.169,541.184 463.169,544.267 466.252,544.267 466.252,547.351 469.336,547.351 469.336,556.602 
		466.252,556.602 466.252,559.686 472.42,559.686 472.42,544.267 475.503,544.267 475.503,541.184 478.587,541.184 478.587,538.1 
		503.257,538.1 503.257,535.016 494.006,535.016 	"/>
	<rect x="503.257" y="531.933" width="3.084" height="3.084"/>
	<rect x="222.64" y="337.659" width="3.084" height="3.084"/>
	<rect x="302.816" y="331.492" width="3.084" height="3.084"/>
	<polygon points="512.508,164.972 512.508,168.056 521.759,168.056 521.759,174.223 524.843,174.223 524.843,183.474 
		527.926,183.474 527.926,177.307 531.01,177.307 531.01,174.223 534.094,174.223 534.094,171.14 540.261,171.14 540.261,174.223 
		552.596,174.223 552.596,177.307 561.847,177.307 561.847,174.223 555.68,174.223 555.68,171.14 543.345,171.14 543.345,168.056 
		537.177,168.056 537.177,164.972 531.01,164.972 531.01,158.805 527.926,158.805 527.926,155.721 531.01,155.721 531.01,152.637 
		527.926,152.637 527.926,146.47 524.843,146.47 524.843,158.805 518.675,158.805 518.675,161.889 503.257,161.889 503.257,164.972 
			"/>
	<polygon points="475.503,312.99 469.336,312.99 469.336,316.074 472.42,316.074 472.42,319.157 475.503,319.157 	"/>
	<rect x="503.257" y="331.492" width="3.084" height="3.084"/>
	<rect x="290.481" y="334.576" width="3.084" height="3.084"/>
	<rect x="305.9" y="334.576" width="3.084" height="3.084"/>
	<polygon points="299.733,331.492 293.565,331.492 293.565,334.576 296.649,334.576 296.649,337.659 302.816,337.659 
		302.816,334.576 299.733,334.576 	"/>
	<rect x="450.834" y="399.333" width="6.167" height="3.084"/>
	<polygon points="509.424,331.492 509.424,334.576 506.34,334.576 506.34,337.659 512.508,337.659 512.508,334.576 515.592,334.576 
		515.592,331.492 	"/>
	<polygon points="552.596,272.902 552.596,269.818 549.512,269.818 549.512,272.902 546.429,272.902 546.429,269.818 
		540.261,269.818 540.261,266.734 537.177,266.734 537.177,263.651 534.094,263.651 534.094,260.567 537.177,260.567 
		537.177,257.483 534.094,257.483 534.094,248.232 527.926,248.232 527.926,251.316 531.01,251.316 531.01,263.651 527.926,263.651 
		527.926,266.734 524.843,266.734 524.843,269.818 515.592,269.818 515.592,272.902 524.843,272.902 524.843,275.985 
		531.01,275.985 531.01,285.237 534.094,285.237 534.094,309.906 537.177,309.906 537.177,279.069 540.261,279.069 540.261,275.985 
		568.014,275.985 568.014,279.069 571.098,279.069 571.098,275.985 574.182,275.985 574.182,272.902 	"/>
	<polygon points="568.014,118.717 568.014,121.8 577.266,121.8 577.266,118.717 571.098,118.717 571.098,115.633 564.931,115.633 
		564.931,118.717 	"/>
	<polygon points="453.918,266.734 457.001,266.734 457.001,263.651 450.834,263.651 450.834,269.818 453.918,269.818 	"/>
	<rect x="549.512" y="137.219" width="6.167" height="3.084"/>
	<polygon points="531.01,189.642 531.01,186.558 524.843,186.558 524.843,195.809 527.926,195.809 527.926,189.642 	"/>
	<polygon points="487.838,208.144 487.838,205.06 484.755,205.06 484.755,211.228 500.173,211.228 500.173,208.144 	"/>
	<polygon points="583.433,269.818 583.433,272.902 580.349,272.902 580.349,275.985 574.182,275.985 574.182,279.069 
		583.433,279.069 583.433,282.153 589.6,282.153 589.6,288.32 592.684,288.32 592.684,312.99 598.851,312.99 598.851,306.822 
		595.768,306.822 595.768,282.153 601.935,282.153 601.935,279.069 605.019,279.069 605.019,275.985 598.851,275.985 
		598.851,272.902 595.768,272.902 595.768,269.818 592.684,269.818 592.684,263.651 589.6,263.651 589.6,251.316 586.517,251.316 
		586.517,269.818 	"/>
	<polygon points="447.75,399.333 441.583,399.333 441.583,402.417 444.666,402.417 444.666,405.501 450.834,405.501 
		450.834,402.417 447.75,402.417 	"/>
	<polygon points="534.094,312.99 534.094,316.074 537.177,316.074 537.177,325.325 534.094,325.325 534.094,331.492 
		527.926,331.492 527.926,334.576 524.843,334.576 524.843,331.492 521.759,331.492 521.759,334.576 515.592,334.576 
		515.592,337.659 531.01,337.659 531.01,340.743 534.094,340.743 534.094,343.827 537.177,343.827 537.177,368.496 543.345,368.496 
		543.345,365.413 540.261,365.413 540.261,359.245 543.345,359.245 543.345,356.162 540.261,356.162 540.261,349.994 
		543.345,349.994 543.345,346.911 540.261,346.911 540.261,343.827 543.345,343.827 543.345,340.743 546.429,340.743 
		546.429,337.659 564.931,337.659 564.931,334.576 546.429,334.576 546.429,331.492 543.345,331.492 543.345,328.408 
		540.261,328.408 540.261,309.906 537.177,309.906 537.177,312.99 	"/>
	<polygon points="527.926,242.065 527.926,245.148 534.094,245.148 534.094,238.981 531.01,238.981 531.01,242.065 	"/>
	<polygon points="478.587,331.492 478.587,328.408 475.503,328.408 475.503,322.241 472.42,322.241 472.42,319.157 469.336,319.157 
		469.336,328.408 466.252,328.408 466.252,331.492 413.829,331.492 413.829,328.408 410.746,328.408 410.746,325.325 
		407.662,325.325 407.662,322.241 404.578,322.241 404.578,316.074 407.662,316.074 407.662,312.99 404.578,312.99 404.578,309.906 
		407.662,309.906 407.662,306.822 404.578,306.822 404.578,300.655 407.662,300.655 407.662,297.571 404.578,297.571 
		404.578,294.488 407.662,294.488 407.662,291.404 401.495,291.404 401.495,325.325 398.411,325.325 398.411,328.408 
		395.327,328.408 395.327,331.492 342.904,331.492 342.904,328.408 339.821,328.408 339.821,322.241 336.737,322.241 
		336.737,300.655 339.821,300.655 339.821,297.571 333.653,297.571 333.653,325.325 330.57,325.325 330.57,328.408 327.486,328.408 
		327.486,331.492 308.984,331.492 308.984,334.576 315.151,334.576 315.151,337.659 318.235,337.659 318.235,334.576 
		324.402,334.576 324.402,337.659 330.57,337.659 330.57,340.743 333.653,340.743 333.653,356.162 330.57,356.162 330.57,359.245 
		333.653,359.245 333.653,371.58 330.57,371.58 330.57,374.664 333.653,374.664 333.653,383.915 330.57,383.915 330.57,386.999 
		336.737,386.999 336.737,343.827 339.821,343.827 339.821,337.659 342.904,337.659 342.904,334.576 395.327,334.576 
		395.327,337.659 401.495,337.659 401.495,362.329 407.662,362.329 407.662,359.245 404.578,359.245 404.578,353.078 
		407.662,353.078 407.662,349.994 404.578,349.994 404.578,343.827 407.662,343.827 407.662,337.659 410.746,337.659 
		410.746,334.576 463.169,334.576 463.169,337.659 469.336,337.659 469.336,343.827 472.42,343.827 472.42,349.994 469.336,349.994 
		469.336,353.078 472.42,353.078 472.42,365.413 469.336,365.413 469.336,368.496 472.42,368.496 472.42,393.166 469.336,393.166 
		469.336,399.333 460.085,399.333 460.085,402.417 457.001,402.417 457.001,405.501 469.336,405.501 469.336,411.668 
		472.42,411.668 472.42,448.673 469.336,448.673 469.336,451.756 472.42,451.756 472.42,454.84 469.336,454.84 469.336,457.924 
		472.42,457.924 472.42,461.007 469.336,461.007 469.336,467.175 463.169,467.175 463.169,470.259 410.746,470.259 410.746,467.175 
		407.662,467.175 407.662,464.091 404.578,464.091 404.578,461.007 407.662,461.007 407.662,457.924 404.578,457.924 
		404.578,451.756 407.662,451.756 407.662,448.673 404.578,448.673 404.578,442.505 407.662,442.505 407.662,439.422 
		404.578,439.422 404.578,436.338 407.662,436.338 407.662,433.254 404.578,433.254 404.578,430.17 407.662,430.17 407.662,427.087 
		404.578,427.087 404.578,420.919 407.662,420.919 407.662,417.836 404.578,417.836 404.578,411.668 407.662,411.668 
		407.662,405.501 423.081,405.501 423.081,399.333 416.913,399.333 416.913,402.417 413.829,402.417 413.829,399.333 
		410.746,399.333 410.746,396.25 407.662,396.25 407.662,390.082 404.578,390.082 404.578,386.999 407.662,386.999 407.662,383.915 
		404.578,383.915 404.578,377.748 407.662,377.748 407.662,374.664 404.578,374.664 404.578,368.496 407.662,368.496 
		407.662,365.413 401.495,365.413 401.495,396.25 398.411,396.25 398.411,399.333 392.244,399.333 392.244,402.417 389.16,402.417 
		389.16,405.501 398.411,405.501 398.411,408.585 401.495,408.585 401.495,467.175 395.327,467.175 395.327,470.259 
		342.904,470.259 342.904,467.175 339.821,467.175 339.821,464.091 336.737,464.091 336.737,433.254 330.57,433.254 330.57,436.338 
		333.653,436.338 333.653,461.007 330.57,461.007 330.57,467.175 324.402,467.175 324.402,470.259 321.318,470.259 321.318,467.175 
		318.235,467.175 318.235,470.259 312.067,470.259 312.067,473.342 327.486,473.342 327.486,476.426 330.57,476.426 330.57,479.51 
		333.653,479.51 333.653,516.514 336.737,516.514 336.737,510.347 339.821,510.347 339.821,507.263 336.737,507.263 
		336.737,494.928 339.821,494.928 339.821,491.844 336.737,491.844 336.737,482.593 339.821,482.593 339.821,476.426 
		342.904,476.426 342.904,473.342 395.327,473.342 395.327,476.426 398.411,476.426 398.411,479.51 401.495,479.51 401.495,494.928 
		404.578,494.928 404.578,491.844 407.662,491.844 407.662,488.761 404.578,488.761 404.578,482.593 407.662,482.593 
		407.662,479.51 410.746,479.51 410.746,476.426 413.829,476.426 413.829,473.342 466.252,473.342 466.252,476.426 469.336,476.426 
		469.336,485.677 472.42,485.677 472.42,488.761 475.503,488.761 475.503,476.426 478.587,476.426 478.587,473.342 500.173,473.342 
		500.173,470.259 494.006,470.259 494.006,467.175 490.922,467.175 490.922,470.259 484.755,470.259 484.755,467.175 
		478.587,467.175 478.587,464.091 475.503,464.091 475.503,411.668 478.587,411.668 478.587,405.501 487.838,405.501 
		487.838,399.333 478.587,399.333 478.587,393.166 475.503,393.166 475.503,340.743 478.587,340.743 478.587,337.659 
		481.671,337.659 481.671,334.576 484.755,334.576 484.755,337.659 487.838,337.659 487.838,334.576 500.173,334.576 
		500.173,331.492 	"/>
	<rect x="271.979" y="504.179" width="3.084" height="3.084"/>
	<rect x="302.816" y="531.933" width="3.084" height="3.084"/>
	<polygon points="275.063,476.426 275.063,473.342 278.147,473.342 278.147,470.259 281.23,470.259 281.23,473.342 284.314,473.342 
		284.314,470.259 287.398,470.259 287.398,467.175 275.063,467.175 275.063,464.091 271.979,464.091 271.979,454.84 268.896,454.84 
		268.896,448.673 271.979,448.673 271.979,445.589 268.896,445.589 268.896,420.919 271.979,420.919 271.979,417.836 
		268.896,417.836 268.896,411.668 271.979,411.668 271.979,405.501 278.147,405.501 278.147,402.417 284.314,402.417 
		284.314,405.501 290.481,405.501 290.481,402.417 287.398,402.417 287.398,399.333 271.979,399.333 271.979,393.166 
		268.896,393.166 268.896,365.413 271.979,365.413 271.979,362.329 268.896,362.329 268.896,356.162 271.979,356.162 
		271.979,349.994 265.812,349.994 265.812,393.166 262.728,393.166 262.728,399.333 250.393,399.333 250.393,402.417 
		253.477,402.417 253.477,405.501 259.644,405.501 259.644,408.585 265.812,408.585 265.812,464.091 259.644,464.091 
		259.644,467.175 228.807,467.175 228.807,470.259 259.644,470.259 259.644,473.342 265.812,473.342 265.812,482.593 
		268.896,482.593 268.896,504.179 271.979,504.179 271.979,476.426 	"/>
	<polygon points="302.816,467.175 296.649,467.175 296.649,470.259 299.733,470.259 299.733,473.342 308.984,473.342 
		308.984,470.259 302.816,470.259 	"/>
	<polygon points="438.499,399.333 435.415,399.333 435.415,405.501 441.583,405.501 441.583,402.417 438.499,402.417 	"/>
	<polygon points="315.151,405.501 318.235,405.501 318.235,399.333 312.067,399.333 312.067,402.417 315.151,402.417 	"/>
	<polygon points="293.565,405.501 299.733,405.501 299.733,402.417 296.649,402.417 296.649,399.333 290.481,399.333 
		290.481,402.417 293.565,402.417 	"/>
	<rect x="299.733" y="399.333" width="3.084" height="3.084"/>
	<polygon points="312.067,405.501 312.067,402.417 308.984,402.417 308.984,399.333 305.9,399.333 305.9,402.417 302.816,402.417 
		302.816,405.501 	"/>
	<polygon points="293.565,467.175 290.481,467.175 290.481,473.342 296.649,473.342 296.649,470.259 293.565,470.259 	"/>
	<polygon points="373.741,399.333 373.741,402.417 370.658,402.417 370.658,405.501 376.825,405.501 376.825,402.417 
		382.992,402.417 382.992,399.333 	"/>
	<polygon points="355.239,399.333 355.239,402.417 352.155,402.417 352.155,405.501 358.323,405.501 358.323,402.417 
		361.407,402.417 361.407,399.333 	"/>
	<polygon points="364.49,399.333 364.49,402.417 361.407,402.417 361.407,405.501 367.574,405.501 367.574,402.417 370.658,402.417 
		370.658,399.333 	"/>
	<rect x="308.984" y="467.175" width="3.084" height="3.084"/>
	<rect x="386.076" y="399.333" width="3.084" height="3.084"/>
	<rect x="382.992" y="402.417" width="3.084" height="3.084"/>
	<rect x="349.072" y="399.333" width="3.084" height="3.084"/>
	<polygon points="345.988,399.333 339.821,399.333 339.821,396.25 336.737,396.25 336.737,390.082 330.57,390.082 330.57,396.25 
		327.486,396.25 327.486,399.333 321.318,399.333 321.318,405.501 327.486,405.501 327.486,408.585 330.57,408.585 330.57,411.668 
		333.653,411.668 333.653,420.919 330.57,420.919 330.57,424.003 336.737,424.003 336.737,408.585 339.821,408.585 339.821,405.501 
		349.072,405.501 349.072,402.417 345.988,402.417 	"/>
	<polygon points="537.177,214.311 537.177,211.228 534.094,211.228 534.094,208.144 531.01,208.144 531.01,205.06 527.926,205.06 
		527.926,201.977 531.01,201.977 531.01,195.809 527.926,195.809 527.926,198.893 524.843,198.893 524.843,208.144 521.759,208.144 
		521.759,211.228 506.34,211.228 506.34,208.144 503.257,208.144 503.257,211.228 500.173,211.228 500.173,214.311 518.675,214.311 
		518.675,217.395 524.843,217.395 524.843,223.563 527.926,223.563 527.926,238.981 531.01,238.981 531.01,226.646 534.094,226.646 
		534.094,220.479 537.177,220.479 537.177,217.395 540.261,217.395 540.261,220.479 543.345,220.479 543.345,217.395 
		546.429,217.395 546.429,214.311 	"/>
	<rect x="151.715" y="377.748" width="3.084" height="3.084"/>
	<rect x="151.715" y="371.58" width="3.084" height="3.084"/>
	<rect x="111.627" y="368.496" width="3.084" height="3.084"/>
	<rect x="154.799" y="374.664" width="3.084" height="3.084"/>
	<rect x="154.799" y="380.831" width="3.084" height="3.084"/>
	<rect x="469.336" y="235.897" width="3.084" height="3.084"/>
	<polygon points="99.292,405.501 105.459,405.501 105.459,408.585 108.543,408.585 108.543,411.668 111.627,411.668 
		111.627,436.338 114.71,436.338 114.71,408.585 120.878,408.585 120.878,405.501 123.962,405.501 123.962,399.333 117.794,399.333 
		117.794,396.25 114.71,396.25 114.71,377.748 117.794,377.748 117.794,374.664 111.627,374.664 111.627,393.166 108.543,393.166 
		108.543,396.25 105.459,396.25 105.459,399.333 96.208,399.333 96.208,402.417 99.292,402.417 	"/>
	<polygon points="151.715,396.25 145.547,396.25 145.547,399.333 139.38,399.333 139.38,402.417 142.464,402.417 142.464,405.501 
		148.631,405.501 148.631,411.668 151.715,411.668 151.715,417.836 157.882,417.836 157.882,414.752 154.799,414.752 
		154.799,411.668 157.882,411.668 157.882,408.585 160.966,408.585 160.966,405.501 164.05,405.501 164.05,402.417 167.133,402.417 
		167.133,399.333 160.966,399.333 160.966,396.25 157.882,396.25 157.882,393.166 154.799,393.166 154.799,383.915 151.715,383.915 
			"/>
	<polygon points="136.296,399.333 127.045,399.333 127.045,405.501 139.38,405.501 139.38,402.417 136.296,402.417 	"/>
	<polygon points="111.627,362.329 114.71,362.329 114.71,368.496 117.794,368.496 117.794,359.245 114.71,359.245 114.71,356.162 
		111.627,356.162 	"/>
	<rect x="500.173" y="266.734" width="6.167" height="3.084"/>
	<rect x="558.763" y="211.228" width="3.084" height="3.084"/>
	<polygon points="512.508,272.902 512.508,266.734 509.424,266.734 509.424,269.818 506.34,269.818 506.34,272.902 	"/>
	<polygon points="86.957,427.087 86.957,420.919 80.79,420.919 80.79,430.17 83.873,430.17 83.873,427.087 	"/>
	<polygon points="463.169,269.818 463.169,272.902 469.336,272.902 469.336,309.906 472.42,309.906 472.42,306.822 475.503,306.822 
		475.503,300.655 472.42,300.655 472.42,275.985 475.503,275.985 475.503,272.902 478.587,272.902 478.587,269.818 494.006,269.818 
		494.006,272.902 500.173,272.902 500.173,269.818 497.089,269.818 497.089,266.734 481.671,266.734 481.671,263.651 
		475.503,263.651 475.503,260.567 472.42,260.567 472.42,254.4 469.336,254.4 469.336,257.483 466.252,257.483 466.252,260.567 
		463.169,260.567 463.169,263.651 460.085,263.651 460.085,266.734 457.001,266.734 457.001,269.818 	"/>
	<rect x="426.164" y="399.333" width="6.167" height="6.167"/>
	<rect x="114.71" y="436.338" width="3.084" height="3.084"/>
	<rect x="330.57" y="427.087" width="6.167" height="3.084"/>
	<polygon points="173.301,405.501 173.301,399.333 170.217,399.333 170.217,402.417 167.133,402.417 167.133,405.501 	"/>
	<rect x="349.072" y="81.712" width="30.837" height="3.084"/>
	<rect x="370.658" y="149.554" width="3.084" height="3.084"/>
	<rect x="364.49" y="109.466" width="3.084" height="3.084"/>
	<rect x="339.821" y="127.968" width="3.084" height="3.084"/>
	<rect x="423.081" y="205.06" width="3.084" height="3.084"/>
	<polygon points="466.252,248.232 466.252,251.316 472.42,251.316 472.42,242.065 469.336,242.065 469.336,248.232 	"/>
	<rect x="466.252" y="238.981" width="3.084" height="3.084"/>
	<polygon points="444.666,208.144 444.666,201.977 441.583,201.977 441.583,205.06 435.415,205.06 435.415,208.144 	"/>
	<polygon points="429.248,208.144 432.332,208.144 432.332,205.06 435.415,205.06 435.415,201.977 426.164,201.977 426.164,205.06 
		429.248,205.06 	"/>
	<polygon points="247.31,399.333 241.142,399.333 241.142,402.417 244.226,402.417 244.226,405.501 250.393,405.501 
		250.393,402.417 247.31,402.417 	"/>
	<rect x="268.896" y="291.404" width="3.084" height="3.084"/>
	<polygon points="268.896,322.241 265.812,322.241 265.812,331.492 259.644,331.492 259.644,334.576 241.142,334.576 
		241.142,337.659 262.728,337.659 262.728,343.827 265.812,343.827 265.812,346.911 271.979,346.911 271.979,340.743 
		275.063,340.743 275.063,337.659 287.398,337.659 287.398,331.492 284.314,331.492 284.314,334.576 278.147,334.576 
		278.147,331.492 275.063,331.492 275.063,328.408 271.979,328.408 271.979,297.571 268.896,297.571 	"/>
	<polygon points="324.402,158.805 333.653,158.805 333.653,161.889 336.737,161.889 336.737,168.056 342.904,168.056 
		342.904,161.889 345.988,161.889 345.988,158.805 349.072,158.805 349.072,155.721 370.658,155.721 370.658,152.637 
		349.072,152.637 349.072,149.554 342.904,149.554 342.904,134.135 336.737,134.135 336.737,140.303 339.821,140.303 
		339.821,146.47 336.737,146.47 336.737,152.637 330.57,152.637 330.57,155.721 321.318,155.721 321.318,158.805 305.9,158.805 
		305.9,161.889 324.402,161.889 	"/>
	<rect x="271.979" y="294.488" width="3.084" height="3.084"/>
	<polygon points="234.975,340.743 238.059,340.743 238.059,334.576 225.724,334.576 225.724,337.659 234.975,337.659 	"/>
	<polygon points="355.239,269.818 358.323,269.818 358.323,263.651 352.155,263.651 352.155,266.734 355.239,266.734 	"/>
	<polygon points="333.653,214.311 336.737,214.311 336.737,257.483 333.653,257.483 333.653,260.567 330.57,260.567 330.57,263.651 
		327.486,263.651 327.486,266.734 315.151,266.734 315.151,269.818 330.57,269.818 330.57,272.902 333.653,272.902 333.653,282.153 
		336.737,282.153 336.737,279.069 339.821,279.069 339.821,272.902 342.904,272.902 342.904,269.818 352.155,269.818 
		352.155,266.734 349.072,266.734 349.072,263.651 342.904,263.651 342.904,260.567 339.821,260.567 339.821,217.395 
		342.904,217.395 342.904,214.311 345.988,214.311 345.988,208.144 364.49,208.144 364.49,205.06 361.407,205.06 361.407,201.977 
		358.323,201.977 358.323,205.06 349.072,205.06 349.072,201.977 345.988,201.977 345.988,198.893 342.904,198.893 342.904,195.809 
		339.821,195.809 339.821,192.726 342.904,192.726 342.904,189.642 336.737,189.642 336.737,201.977 333.653,201.977 
		333.653,205.06 327.486,205.06 327.486,208.144 305.9,208.144 305.9,211.228 333.653,211.228 	"/>
	<polygon points="333.653,285.237 333.653,294.488 336.737,294.488 336.737,288.32 339.821,288.32 339.821,282.153 336.737,282.153 
		336.737,285.237 	"/>
</g>
</svg>
