<?xml version="1.0" encoding="iso-8859-1"?>
<!-- Generator: Adobe Illustrator 26.2.1, SVG Export Plug-In . SVG Version: 6.00 Build 0)  -->
<svg version="1.1" id="Layer_1" xmlns="http://www.w3.org/2000/svg" xmlns:xlink="http://www.w3.org/1999/xlink" x="0px" y="0px"
	 width="800px" height="800px" viewBox="0 0 800 800" enable-background="new 0 0 800 800" xml:space="preserve">
<g>
	<path d="M138.578,418.471h9.333v21.114h9.333v14.076h9.333v14.076h9.333v7.038h9.333v14.076h9.333v7.038h9.333v7.038h18.667v7.038
		h9.333v7.038h18.667v7.038h65.333v-7.038h9.333v-7.038h18.667V495.89h9.333v-14.076h9.333v-7.038h9.333v-14.076h9.333v-14.076
		h9.333v-14.076h9.333v-21.114h9.333v-14.076h9.333v-35.19h9.333v-21.114h9.333v-35.19h9.333v-7.038h-9.333v-7.038h9.333v-77.419
		h-18.667v-7.038h-9.333v-7.038h-18.667v-7.038h-84v7.038h-18.667v7.038h-18.667v7.038h-18.667v7.038h-9.333v7.038h-18.667v14.076
		h-18.667v7.038h-9.333v14.076h-9.333v7.038h-9.333v14.076h-9.333v7.038h-9.333v14.076h-9.333v14.076h-9.333v21.114h-9.333v21.114
		h-9.333v7.038h9.333V418.471z M166.578,362.166h9.333v-7.038h-9.333v-7.038h9.333v-28.152h9.333v-14.076h9.333v-7.038h9.333
		v-14.076h9.333v-7.038h9.333v-7.038h9.333v-14.076h18.667v-7.038h9.333v-7.038h18.667v-7.038h28v-7.038h9.333v7.038h9.333v-7.038
		h9.333v7.038h18.667v7.038h9.333v7.038h9.333v14.076h9.333v14.076h9.333v56.305h-9.333v7.038h9.333v7.038h-9.333v21.114h-9.333
		v21.114h-9.333v14.076h-9.333v14.076h-9.333v14.076h-9.333v7.038h-9.333v7.038h-9.333v7.038h-9.333v7.038h-18.667v7.038h-37.333
		v-7.038h-28v-14.076h-18.667v-14.076h-9.333v-7.038h-9.333v-14.076h-9.333v-35.19h-9.333V362.166z"/>
	<path d="M73.245,334.013v14.076h-9.333v28.152h-9.333v56.305h9.333v7.038h-9.333v7.038h9.333v14.076h9.333v28.152h9.333v21.114
		h9.333v21.114h9.333v14.076h9.333v21.114h9.333v14.076h9.333v7.038h9.333v21.114h9.333v7.038h9.333v14.076h9.333v7.038h9.333
		v14.076h9.333v7.038h9.333v7.038h9.333v7.038h9.333v7.038h9.333v7.038h18.667v7.038h9.333v7.038h18.667v7.038h18.667v7.038h18.667
		v7.038h9.333v-7.038h18.667v7.038h28v-7.038h9.333v7.038h9.333v-7.038h46.667v-7.038h18.667v-7.038h18.667v-7.038h18.667v-7.038
		h9.333v-14.076h9.333V643.69h9.333v-7.038h-9.333v-7.038h9.333v-14.076h-9.333v-14.076h9.333v-77.419h9.333v-35.19h9.333v-28.152
		h9.333v-28.152h9.333v-14.076h9.333v-21.114h9.333v-21.114h9.333v-14.076h18.667V348.09h9.333v-14.076h18.667v-7.038h9.333v-7.038
		h18.667v-7.038h28v-7.038h56v-7.038h18.667V270.67h-9.333v-21.114h-9.333V235.48h-9.333v-7.038h-9.333v-14.076h-9.333v-7.038
		h-9.333v-7.038h-9.333v-14.076h-9.333v-7.038h-9.333v-7.038h-9.333v-7.038h-9.333v-14.076h-9.333v-7.038h-9.333v-7.038h-9.333
		v-7.038h-9.333v-7.038h-18.667v-7.038h-9.333v-7.038h-28v-7.038h-37.333v-7.038h-46.667V87.68h-28v-7.038h-9.333v7.038h-18.667
		v-7.038h-9.333v7.038h-37.333v7.038h-9.333V87.68h-9.333v7.038h-28v7.038h-18.667v7.038h-18.667v7.038h-9.333v7.038h-9.333v7.038
		h-9.333v14.076h-9.333v7.038h-9.333v7.038h-9.333v7.038h-9.333v7.038h-9.333v14.076h-9.333v7.038h-9.333v14.076h-9.333v7.038
		h-9.333v7.038h-9.333v7.038h-9.333v7.038h-9.333v14.076h-9.333v7.038h-9.333v7.038h-9.333v14.076h-9.333v14.076h-9.333v7.038
		h-9.333v14.076h-9.333v21.114H73.245z M91.912,355.128v-28.152h9.333v-14.076h9.333v-14.076h9.333v-14.076h9.333V270.67h9.333
		v-7.038h9.333v-7.038h9.333v-14.076h9.333v-7.038h9.333v-7.038h9.333v-7.038h9.333v-7.038h9.333V200.29h9.333v-7.038h9.333v-7.038
		h18.667v-14.076h9.333v-7.038h18.667v-7.038h9.333v-7.038h9.333v-7.038h9.333v-7.038h18.667v-7.038h9.333v-7.038h37.333v-7.038h84
		v7.038h28v7.038h37.333v7.038h28v7.038h18.667v7.038h9.333v7.038h18.667v14.076h9.333v7.038h9.333v7.038h9.333v7.038h9.333v14.076
		h9.333v14.076h9.333v14.076h9.333v28.152h-9.333v7.038h-18.667v7.038h-18.667v7.038h-9.333v7.038h-9.333v7.038h-9.333v14.076
		h-9.333v7.038h-9.333v14.076h-9.333v14.076h-9.333v7.038h-9.333v14.076h-9.333v21.114h-9.333v21.114h-9.333v21.114h-9.333v35.19
		h-9.333v28.152h-9.333v35.19h-9.333v49.267h-9.333v35.19h-9.333v21.114h-9.333v14.076h-9.333v7.038h-18.667v7.038h-9.333v7.038h-28
		v7.038h-37.333v-7.038h-9.333v7.038h-9.333v-7.038h-9.333v7.038h-9.333v-7.038h-18.667v-7.038h-18.667v-7.038h-9.333v-7.038h-9.333
		v-7.038h-18.667v-7.038h-9.333v-7.038h-9.333v-7.038h-9.333v-14.076h-9.333v-7.038h-9.333v-14.076h-9.333v-7.038h-9.333v-7.038
		h-9.333v-14.076h-9.333v-14.076h-9.333v-21.114h-9.333v-7.038h-9.333V495.89h-9.333v-21.114h-9.333v-28.152h-9.333v-28.152h-9.333
		v-7.038h9.333v-7.038h-9.333V383.28h9.333v-28.152H91.912z"/>
	<path d="M110.578,319.937v21.114h-9.333v28.152h-9.333v56.305h9.333v28.152h9.333v21.114h9.333v21.114h9.333v7.038h9.333v21.114
		h9.333v7.038h9.333v14.076h9.333v14.076h18.667v14.076h9.333v14.076h18.667v14.076h9.333v7.038h18.667v7.038h9.333v7.038h18.667
		v7.038h18.667v7.038h74.667v-7.038h18.667v-7.038h9.333v-7.038h9.333v-14.076h9.333v-14.076h9.333v-21.114h9.333v-28.152h9.333
		v-28.152h9.333v-28.152h9.333v-21.114h9.333v-35.19h9.333v-21.114h9.333V383.28h9.333v-21.114h9.333V348.09h9.333v-14.076h9.333
		v-21.114h9.333v-14.076h9.333v-14.076h9.333v-7.038h9.333v-14.076h9.333v-7.038h9.333v-7.038h9.333V235.48h9.333v-7.038h-9.333
		v-14.076h-9.333V200.29h-9.333v-14.076h-9.333v-7.038h-18.667v-7.038h-9.333v-7.038h-18.667v-7.038h-28v-7.038h-28v-7.038h-28
		v-7.038h-56v7.038h-9.333v-7.038h-9.333v7.038h-28v7.038h-18.667v7.038h-9.333v7.038h-18.667v7.038h-9.333v7.038h-9.333v7.038
		h-9.333v7.038h-18.667v7.038h-9.333v7.038h-9.333v7.038h-9.333v14.076h-9.333v7.038h-9.333v7.038h-9.333v7.038h-9.333v7.038h-9.333
		v14.076h-9.333v7.038h-9.333v14.076h-9.333v7.038h-9.333v21.114H110.578z M129.245,341.051v-21.114h9.333v-14.076h9.333v-14.076
		h9.333v-14.076h9.333v-7.038h9.333v-7.038h9.333v-7.038h9.333v-14.076h9.333v-7.038h9.333v-7.038h9.333v-7.038h9.333v-7.038h9.333
		v-7.038h18.667v-7.038h9.333v-7.038h18.667v-7.038h9.333v-7.038h9.333v-7.038h9.333v7.038h9.333v-7.038h37.333v-7.038h9.333v7.038
		h18.667v-7.038h9.333v7.038h28v7.038h18.667v7.038h18.667v7.038h28v14.076h9.333v7.038h9.333v21.114h-9.333v14.076h-9.333v28.152
		h-9.333v28.152h-9.333v21.114h-9.333v21.114h-9.333v28.152h-9.333v21.114h-9.333v28.152h-9.333v21.114h-9.333v21.114h-9.333v7.038
		h-9.333v21.114h-9.333v21.114h-9.333v14.076h-9.333v14.076h-9.333v7.038h-9.333v7.038h-9.333v7.038h-28v7.038h-37.333v-7.038h-28
		v-7.038h-18.667v-7.038h-9.333v-7.038h-9.333v-7.038h-9.333v-7.038h-9.333v-7.038h-9.333v-7.038h-9.333v-14.076h-9.333v-7.038
		h-9.333v-7.038h-9.333v-21.114h-9.333v-14.076h-9.333v-21.114h-9.333v-35.19h-9.333v-7.038h9.333v-7.038h-9.333v-7.038h9.333
		v-35.19H129.245z"/>
	<polygon points="203.912,383.28 213.245,383.28 213.245,397.356 222.578,397.356 222.578,411.432 241.245,411.432 241.245,418.471 
		250.578,418.471 250.578,425.509 259.912,425.509 259.912,418.471 269.245,418.471 269.245,425.509 278.578,425.509 
		278.578,418.471 287.912,418.471 287.912,411.432 306.578,411.432 306.578,397.356 325.245,397.356 325.245,383.28 334.578,383.28 
		334.578,369.204 343.912,369.204 343.912,334.013 353.245,334.013 353.245,319.937 343.912,319.937 343.912,312.899 
		353.245,312.899 353.245,305.861 343.912,305.861 343.912,291.785 334.578,291.785 334.578,277.709 325.245,277.709 
		325.245,270.67 306.578,270.67 306.578,263.632 297.245,263.632 297.245,270.67 287.912,270.67 287.912,263.632 278.578,263.632 
		278.578,270.67 259.912,270.67 259.912,277.709 241.245,277.709 241.245,291.785 231.912,291.785 231.912,298.823 222.578,298.823 
		222.578,312.899 213.245,312.899 213.245,326.975 203.912,326.975 203.912,362.166 194.578,362.166 194.578,369.204 
		203.912,369.204 	"/>
</g>
</svg>
