<svg xmlns="http://www.w3.org/2000/svg" viewBox="0 0 99.19 99.19"><title>36</title><g id="Layer_2" data-name="Layer 2"><g id="Layer_1-2" data-name="Layer 1"><path d="M70.54,49.83c0,4.67-.19,9.35-.61,14a89.09,89.09,0,0,1-2.26,14,50.76,50.76,0,0,1-2.23,6.82,36.23,36.23,0,0,1-3.39,6.46,21.75,21.75,0,0,1-5.16,5.52,12.46,12.46,0,0,1-7.53,2.56A12.43,12.43,0,0,1,42,96.34a22.25,22.25,0,0,1-4.82-5.61A42.24,42.24,0,0,1,34,84.33a67.12,67.12,0,0,1-2.34-6.69,101.43,101.43,0,0,1-3-13.76c-.35-2.33-.62-4.66-.87-7s-.37-4.7-.46-7.05a86.43,86.43,0,0,1,3.18-28.19,49.14,49.14,0,0,1,6-13.28,22.09,22.09,0,0,1,5.2-5.62A13,13,0,0,1,49.36,0a13.07,13.07,0,0,1,7.69,2.81,21.83,21.83,0,0,1,5.12,5.64A35.83,35.83,0,0,1,65.52,15a51.42,51.42,0,0,1,2.19,6.85,88.28,88.28,0,0,1,2.25,14C70.36,40.48,70.56,45.15,70.54,49.83Zm-.4,0A77.78,77.78,0,0,0,65.2,22.6a52.58,52.58,0,0,0-6.19-12,20.64,20.64,0,0,0-4.39-4.54,8.94,8.94,0,0,0-5.26-1.84,9,9,0,0,0-5.21,1.91,20.22,20.22,0,0,0-4.31,4.56,45.35,45.35,0,0,0-5.78,12,89.22,89.22,0,0,0-3.17,13.31,112.57,112.57,0,0,0-1.41,13.75,79.06,79.06,0,0,0,3.4,27.43A42,42,0,0,0,39,89.47a19.53,19.53,0,0,0,4.68,4.58,9.73,9.73,0,0,0,5.64,1.81,9.74,9.74,0,0,0,5.42-2.1,20.91,20.91,0,0,0,4.35-4.67,52.67,52.67,0,0,0,6.11-12A76.94,76.94,0,0,0,70.14,49.83ZM49.36,71c-4.68,0-9.35-.19-14-.61a89.47,89.47,0,0,1-14-2.26,50.68,50.68,0,0,1-6.81-2.24,35.05,35.05,0,0,1-6.47-3.39,21.49,21.49,0,0,1-5.51-5.15A12.46,12.46,0,0,1,0,49.83a12.34,12.34,0,0,1,2.85-7.32,22.2,22.2,0,0,1,5.6-4.82,42.71,42.71,0,0,1,6.4-3.24,67.12,67.12,0,0,1,6.69-2.34,101.57,101.57,0,0,1,13.77-3c2.32-.35,4.66-.62,7-.87s4.69-.38,7-.47a86.47,86.47,0,0,1,28.19,3.19,49.36,49.36,0,0,1,13.27,5.94,22.15,22.15,0,0,1,5.62,5.21,13.08,13.08,0,0,1,2.75,7.74,13.16,13.16,0,0,1-2.81,7.69,21.71,21.71,0,0,1-5.65,5.12A35.19,35.19,0,0,1,84.22,66a51.29,51.29,0,0,1-6.84,2.19,89.38,89.38,0,0,1-14,2.25Q56.37,71,49.36,71Zm0-.4a78.05,78.05,0,0,0,27.23-4.94,52.63,52.63,0,0,0,12-6.2,20.6,20.6,0,0,0,4.54-4.38,8.94,8.94,0,0,0,1.84-5.26A9,9,0,0,0,93,44.62a20.21,20.21,0,0,0-4.56-4.31,45,45,0,0,0-12-5.78A89.08,89.08,0,0,0,63.1,31.35a114.41,114.41,0,0,0-13.74-1.41c-9.22-.32-18.63.51-27.43,3.41A42.28,42.28,0,0,0,9.71,39.5a20.14,20.14,0,0,0-4.58,4.69,9.65,9.65,0,0,0-1.8,5.64,9.8,9.8,0,0,0,2.1,5.42,20.64,20.64,0,0,0,4.66,4.35,53,53,0,0,0,12,6.11A77.39,77.39,0,0,0,49.36,70.61Zm-15-35.76c3.33-3.29,6.75-6.48,10.35-9.49a90,90,0,0,1,11.48-8.28,50.64,50.64,0,0,1,6.41-3.24,35,35,0,0,1,7-2.18,21.66,21.66,0,0,1,7.55-.25,12.4,12.4,0,0,1,7.13,3.52,12.27,12.27,0,0,1,3.16,7.18,22.36,22.36,0,0,1-.55,7.38,42.75,42.75,0,0,1-2.24,6.81,65.68,65.68,0,0,1-3.07,6.38A102.29,102.29,0,0,1,74,54.56c-1.4,1.88-2.86,3.73-4.33,5.56S66.57,63.7,65,65.44A86.84,86.84,0,0,1,42.79,83.12a49.35,49.35,0,0,1-13.6,5.18,21.94,21.94,0,0,1-7.65.29,13,13,0,0,1-7.41-3.53,13.11,13.11,0,0,1-3.46-7.42A22,22,0,0,1,11,70a35.67,35.67,0,0,1,2.24-7,52,52,0,0,1,3.29-6.39,89.45,89.45,0,0,1,8.3-11.48Q29.42,39.8,34.38,34.85Zm.29.28A77.93,77.93,0,0,0,18.9,57.88a53.25,53.25,0,0,0-4.07,12.83,20.62,20.62,0,0,0-.1,6.31,8.87,8.87,0,0,0,2.41,5,9,9,0,0,0,5,2.34,20.43,20.43,0,0,0,6.27-.18A45.45,45.45,0,0,0,41,79.78,89.23,89.23,0,0,0,52.7,72.61a114.31,114.31,0,0,0,10.72-8.72,79,79,0,0,0,17-21.81,41.87,41.87,0,0,0,4.28-13,20,20,0,0,0-.07-6.55,9.69,9.69,0,0,0-2.71-5.26,9.71,9.71,0,0,0-5.32-2.35,20.85,20.85,0,0,0-6.38.22,53.24,53.24,0,0,0-12.82,4.18A77.18,77.18,0,0,0,34.67,35.13Zm29.66-.28c3.29,3.33,6.48,6.74,9.49,10.35a89.11,89.11,0,0,1,8.29,11.48,50.51,50.51,0,0,1,3.24,6.4,35.71,35.71,0,0,1,2.17,7,21.65,21.65,0,0,1,.26,7.55A11.55,11.55,0,0,1,77.07,87.89a22.06,22.06,0,0,1-7.37-.56,41.11,41.11,0,0,1-6.81-2.23A63.67,63.67,0,0,1,56.5,82a100.87,100.87,0,0,1-11.87-7.6c-1.89-1.39-3.73-2.85-5.57-4.33s-3.58-3-5.31-4.65A86.5,86.5,0,0,1,16.07,43.25a49,49,0,0,1-5.18-13.59,22.19,22.19,0,0,1-.3-7.65,13.08,13.08,0,0,1,3.54-7.42,13.13,13.13,0,0,1,7.42-3.45,21.92,21.92,0,0,1,7.61.37,35.55,35.55,0,0,1,7,2.24A50.67,50.67,0,0,1,42.53,17,89.18,89.18,0,0,1,54,25.34Q59.4,29.87,64.33,34.85Zm-.28.28A77.91,77.91,0,0,0,41.31,19.37,52.81,52.81,0,0,0,28.48,15.3a20.31,20.31,0,0,0-6.31-.1,8.93,8.93,0,0,0-5,2.41,9.1,9.1,0,0,0-2.33,5A20.44,20.44,0,0,0,15,28.92,45.54,45.54,0,0,0,19.4,41.51a90,90,0,0,0,7.18,11.66A115.62,115.62,0,0,0,35.3,63.89a79.06,79.06,0,0,0,21.8,17,42.06,42.06,0,0,0,13,4.29,19.74,19.74,0,0,0,6.56-.08,8.81,8.81,0,0,0,7.61-8A21.16,21.16,0,0,0,84,70.68a53,53,0,0,0-4.19-12.82A77,77,0,0,0,64.05,35.13ZM62.2,49.83c-12-.5-12.35-.9-12.84-12.85-.49,12-.89,12.35-12.84,12.85,11.95.49,12.35.89,12.84,12.84C49.85,50.72,50.25,50.32,62.2,49.83Z"/></g></g></svg>