<svg xmlns="http://www.w3.org/2000/svg" viewBox="0 0 112.28 64.78"><title>76</title><g id="Layer_2" data-name="Layer 2"><g id="Layer_1-2" data-name="Layer 1"><path d="M88.48,30.51a32.4,32.4,0,0,0-62-11.17C11.06,18.21.59,19.15,0,22.26s8.93,7.67,23.79,12a32.39,32.39,0,0,0,62,11.19c15.44,1.12,25.91.18,26.47-2.94S103.33,34.85,88.48,30.51ZM17.93,21.83c.21-1.2,3.28-1.81,8.28-1.83a31.79,31.79,0,0,0-1.86,6.18C20.1,24.51,17.72,23,17.93,21.83Zm77.72,14c-.21,1.15-3,1.75-7.55,1.83a31.82,31.82,0,0,0,.44-5.29c0-.38,0-.76,0-1.15C93.19,33,95.87,34.63,95.65,35.84Zm8.45-22.31c-5.54,1.17-6.27,2.12-8.29,10.71.56-8.59.11-9.54-5.07-10.71C96.28,12.37,97,11.42,99,2.83,98.47,11.42,98.92,12.37,104.1,13.53Zm2.3-3.5c-2.47.52-2.79.94-3.7,4.76.26-3.82.06-4.24-2.25-4.76,2.46-.52,2.79-.94,3.69-4.76C103.89,9.09,104.09,9.51,106.4,10Zm-3.88,9.06c-1.52.32-1.72.58-2.28,2.94.16-2.36,0-2.62-1.39-2.94,1.52-.32,1.72-.58,2.28-2.94C101,18.51,101.1,18.77,102.52,19.09Z"/></g></g></svg>