<?xml version="1.0" encoding="iso-8859-1"?>
<!-- Generator: Adobe Illustrator 29.0.1, SVG Export Plug-In . SVG Version: 9.03 Build 54978)  -->
<svg color="#ebdbb2" fill="currentColor" version="1.1" id="Layer_1" xmlns="http://www.w3.org/2000/svg" xmlns:xlink="http://www.w3.org/1999/xlink" x="0px" y="0px"
	 width="1000px" height="1000px" viewBox="0 0 1000 1000" enable-background="new 0 0 1000 1000" xml:space="preserve">
<g>
	<path d="M869.467,788.936h-10.881v-10.881h-10.884v-20.678h-20.675v-10.884h-10.884v-10.881h10.884v-10.884h-21.765v-10.881
		h-10.884v-10.884h-21.765v-9.794H761.73v-10.881h-31.562v-10.884h-42.44v-10.881h-21.765v10.881h-21.765v10.884h-21.765v10.881
		h-9.797v9.794h-10.881v-20.675H590.87v10.881h-10.881v9.794h-10.884v10.884h-10.881v10.881h-9.794v10.884h-10.884v21.765h-10.881
		v10.881H515.78v9.797h21.765v32.647h10.884v21.765h9.794v20.678h10.881v10.881h21.765v10.884h10.884v-10.884h10.881v10.884h9.797
		v10.881h32.647v10.884h32.649v-10.884h42.44V874.91h21.765v-10.884h42.443v-10.881h10.884v-10.884h10.881v-9.794h20.678v-10.881
		h43.531V799.82h-10.884V788.936z M719.287,799.82h-10.884v-10.884h-10.881v-10.881h10.881v10.881h10.884V799.82z"/>
	<rect x="730.168" y="660.522" width="10.884" height="10.881"/>
	<path d="M526.664,649.637h10.881V628.96h10.884v-10.881h84.884v-10.884h32.649v-10.881h-10.884v-10.884h32.649v-10.881h42.44
		v-9.794h-10.881V553.87h10.881v-10.881h21.765v-10.884h20.678v-21.765H761.73v-10.881h10.881v-9.797h21.765v-21.765h10.884v-42.44
		h10.881v-32.65h-21.765v-10.881h10.884V371.04h-10.884v-20.678h10.884v-75.09h-10.884v10.884h-10.881v9.794h-10.884v-20.678h10.884
		v-21.765h-10.884v-10.881H761.73v-42.443h-9.797v-10.884h-10.881v-32.647h-10.884v-9.794h-10.881v-21.765h-10.884V82.65h-10.881V50
		h-9.794v42.443h-10.884v21.765h-10.881v21.765h-10.884v10.884h-32.647v9.794h-9.797v10.881h-32.647v10.884h-10.884v10.881h-10.881
		v21.765h-9.794v-21.765h-10.884v10.884h-10.881v10.881H515.78v10.884h-10.881v9.794h-10.884v21.765h-9.794v32.65h-10.884v-10.884
		h-10.881v-10.881h-10.884v-10.884H440.69v32.65h-10.884v53.325H409.13v20.678h9.794v54.412h-9.794v31.559h-10.884v21.765h10.884
		v21.765h9.794v9.797h10.881v10.881h10.884v10.884h10.881v10.881h-21.765v10.884h10.884v10.881h10.881v10.884h10.884v9.794h10.881
		v10.881h31.562v10.884h10.881v21.765h10.884v20.678H515.78v32.647h10.884V649.637z M569.104,542.988h-10.881v-21.765h10.881
		V542.988z M633.313,317.716h10.884v10.881h-10.884V317.716z M601.754,350.363h10.881v9.797h9.797v-9.797h10.881v9.797h-10.881
		v32.647h-9.797v-32.647h-10.881V350.363z M558.223,414.571v10.884h10.881v20.675h10.884v10.884h10.881v-21.765h10.884v-20.678
		h10.881v20.678h-10.881v21.765H590.87v32.647h-10.881v20.678h-10.884v-20.678h10.884v-21.765h-10.884V446.13h-10.881v-20.675
		h-9.794v-10.884H558.223z M537.545,392.806h10.884v10.884h-10.884V392.806z M537.545,574.548h10.884v10.881h-10.884V574.548z"/>
	<polygon points="515.78,671.403 504.898,671.403 504.898,702.962 494.014,702.962 494.014,746.493 504.898,746.493 
		504.898,713.846 515.78,713.846 	"/>
	<path d="M451.571,713.846h10.884v-53.325H440.69V628.96h-10.884v-21.765h-10.881v10.884h-9.794v-10.884h-10.884v-21.765H365.6
		v-10.881h-10.884v-9.794h-9.794V553.87h-43.531v20.678h-10.884v-9.794h-20.675V553.87h-43.531v10.884h-20.678V553.87h-75.09
		v-10.881h-10.884v21.765h10.884v9.794h10.881v43.531h9.794v20.678h10.884v10.881h-10.884v10.884h10.884v32.647h10.881v9.794h10.884
		v10.884h-10.884v10.881h10.884v10.884h10.881v10.881h20.678v21.765h10.884v9.797h10.881v10.881h43.531v21.765h9.794V799.82h54.415
		v10.881H365.6v10.884h10.881v-10.884h10.884V799.82h21.765v-10.884h9.794v-10.881h10.881v-20.678h10.884v-10.884h10.881V713.846z
		 M323.156,693.168h-10.884v-32.647h10.884V693.168z M354.716,713.846h-9.794v-10.884h9.794V713.846z M398.246,735.612h-10.881
		v-10.884h10.881V735.612z"/>
	<rect x="323.156" y="810.701" width="10.881" height="10.884"/>
	<polygon points="484.22,768.258 473.336,768.258 473.336,821.586 462.455,821.586 462.455,853.145 451.571,853.145 451.571,950 
		462.455,950 462.455,885.791 473.336,885.791 473.336,832.467 484.22,832.467 484.22,799.82 494.014,799.82 494.014,746.493 
		484.22,746.493 	"/>
	<rect x="398.246" y="403.69" width="10.884" height="10.881"/>
</g>
</svg>
