<svg color="#ebdbb2" fill="currentColor" xmlns="http://www.w3.org/2000/svg" viewBox="0 0 101.55 92.99"><defs><style>.cls-1{fill:currentColor;}</style></defs><title>33</title><g id="Layer_2" data-name="Layer 2"><g id="Layer_1-2" data-name="Layer 1"><path d="M90.2,46.34a8.2,8.2,0,0,1-1.54,4.81,16.94,16.94,0,0,1-3.9,4A33.57,33.57,0,0,1,77,59.42c0-.12-.06-.22-.08-.33A66.63,66.63,0,0,0,72,45.45l.25-.64a88.28,88.28,0,0,0,3.61-11.33A41.66,41.66,0,0,1,84.44,38a17.92,17.92,0,0,1,4,3.72A8.25,8.25,0,0,1,90.2,46.34Z"/><path d="M30.56,46.33c-.26.52-.52,1.05-.77,1.59a77.5,77.5,0,0,0-4.11,10.66,35.48,35.48,0,0,1-8-4.13,17.28,17.28,0,0,1-3.89-3.67,7.05,7.05,0,0,1-.06-8.92,17.73,17.73,0,0,1,3.88-3.74,41.28,41.28,0,0,1,8-4.4,75.82,75.82,0,0,0,4.21,11C30.07,45.28,30.31,45.81,30.56,46.33Z"/><path d="M49.68,17.59l-.28.28a76.94,76.94,0,0,0-7.63,9.35c-.33.47-.66,1-1,1.43L39,28.78a77,77,0,0,0-11.71,1.88A41.84,41.84,0,0,1,27,21.53a18,18,0,0,1,1.23-5.3,8.3,8.3,0,0,1,3.11-3.86,7.92,7.92,0,0,1,4.15-1.1c.25,0,.51,0,.77,0a16.66,16.66,0,0,1,5.42,1.38A33.3,33.3,0,0,1,49.68,17.59Z"/><path class="cls-1" d="M74.19,32.81a64.71,64.71,0,0,0-12-3.24c.59.79,1.17,1.57,1.74,2.36,1.17,1.63,2.27,3.31,3.34,5,1.46,2.31,2.82,4.69,4.06,7.14a58.79,58.79,0,0,0,3.51-11v0C74.62,33,74.4,32.9,74.19,32.81ZM70.57,48.9c-.22.47-.43,1-.64,1.45-.83,1.83-1.73,3.62-2.67,5.39-1.27,2.42-2.65,4.79-4.15,7.09a58,58,0,0,0,10.83-2.32c0-.24-.09-.48-.14-.72A75.05,75.05,0,0,0,70.57,48.9ZM51,65.15q-1.8.06-3.6.06-2.37,0-4.74-.12a64.3,64.3,0,0,0,8,7.86,1.42,1.42,0,0,1,.13-.12,77.46,77.46,0,0,0,7.83-8.25L57,64.76C55,65,53,65.07,51,65.15Zm.47-46.07-.05,0-.54.43a65.56,65.56,0,0,0-9.07,9.1c2.85-.17,5.68-.27,8.53-.27H51c3,0,6,.09,8.93.29A58.34,58.34,0,0,0,51.45,19.08ZM31,47.28a63.89,63.89,0,0,0-3.27,12,1,1,0,0,0,.16.06,77.34,77.34,0,0,0,11.34,2.7l.23,0c-1.45-2.2-2.83-4.46-4.14-6.75C33.84,52.71,32.38,50,31,47.28ZM27.64,32.9a.37.37,0,0,1,0,.11A64.46,64.46,0,0,0,31,45.41c1.36-2.75,2.8-5.45,4.35-8.09s3.14-5.24,4.84-7.79a65.54,65.54,0,0,0-12.42,3.32Z"/><path d="M27.77,32.85l-.13,0a.37.37,0,0,1,0,.11A64.46,64.46,0,0,0,31,45.41c1.36-2.75,2.8-5.45,4.35-8.09s3.14-5.24,4.84-7.79A65.54,65.54,0,0,0,27.77,32.85Zm7.58,22.51c-1.51-2.65-3-5.34-4.32-8.08a63.89,63.89,0,0,0-3.27,12,1,1,0,0,0,.16.06,77.34,77.34,0,0,0,11.34,2.7l.23,0C38,59.91,36.66,57.65,35.35,55.36Zm16.1-36.28-.05,0-.54.43a65.56,65.56,0,0,0-9.07,9.1c2.85-.17,5.68-.27,8.53-.27H51c3,0,6,.09,8.93.29A58.34,58.34,0,0,0,51.45,19.08ZM57,64.76c-2,.19-4,.31-6,.39q-1.8.06-3.6.06-2.37,0-4.74-.12a64.3,64.3,0,0,0,8,7.86,1.42,1.42,0,0,1,.13-.12,77.46,77.46,0,0,0,7.83-8.25Zm16.82-5A75.05,75.05,0,0,0,70.57,48.9c-.22.47-.43,1-.64,1.45-.83,1.83-1.73,3.62-2.67,5.39-1.27,2.42-2.65,4.79-4.15,7.09a58,58,0,0,0,10.83-2.32C73.9,60.27,73.85,60,73.8,59.79Zm.39-27a64.71,64.71,0,0,0-12-3.24c.59.79,1.17,1.57,1.74,2.36,1.17,1.63,2.27,3.31,3.34,5,1.46,2.31,2.82,4.69,4.06,7.14a58.79,58.79,0,0,0,3.51-11v0C74.62,33,74.4,32.9,74.19,32.81ZM51.45,19.08l-.05,0-.54.43a65.56,65.56,0,0,0-9.07,9.1c2.85-.17,5.68-.27,8.53-.27H51c3,0,6,.09,8.93.29A58.34,58.34,0,0,0,51.45,19.08ZM27.77,32.85l-.13,0a.37.37,0,0,1,0,.11A64.46,64.46,0,0,0,31,45.41c1.36-2.75,2.8-5.45,4.35-8.09s3.14-5.24,4.84-7.79A65.54,65.54,0,0,0,27.77,32.85Zm46.42,0a64.71,64.71,0,0,0-12-3.24c.59.79,1.17,1.57,1.74,2.36,1.17,1.63,2.27,3.31,3.34,5,1.46,2.31,2.82,4.69,4.06,7.14a58.79,58.79,0,0,0,3.51-11v0C74.62,33,74.4,32.9,74.19,32.81ZM35.35,55.36c-1.51-2.65-3-5.34-4.32-8.08a63.89,63.89,0,0,0-3.27,12,1,1,0,0,0,.16.06,77.34,77.34,0,0,0,11.34,2.7l.23,0C38,59.91,36.66,57.65,35.35,55.36ZM73.8,59.79A75.05,75.05,0,0,0,70.57,48.9c-.22.47-.43,1-.64,1.45-.83,1.83-1.73,3.62-2.67,5.39-1.27,2.42-2.65,4.79-4.15,7.09a58,58,0,0,0,10.83-2.32C73.9,60.27,73.85,60,73.8,59.79ZM57,64.76c-2,.19-4,.31-6,.39q-1.8.06-3.6.06-2.37,0-4.74-.12a64.3,64.3,0,0,0,8,7.86,1.42,1.42,0,0,1,.13-.12,77.46,77.46,0,0,0,7.83-8.25ZM27.77,32.85l-.13,0a.37.37,0,0,1,0,.11A64.46,64.46,0,0,0,31,45.41c1.36-2.75,2.8-5.45,4.35-8.09s3.14-5.24,4.84-7.79A65.54,65.54,0,0,0,27.77,32.85Zm7.58,22.51c-1.51-2.65-3-5.34-4.32-8.08a63.89,63.89,0,0,0-3.27,12,1,1,0,0,0,.16.06,77.34,77.34,0,0,0,11.34,2.7l.23,0C38,59.91,36.66,57.65,35.35,55.36Zm16.1-36.28-.05,0-.54.43a65.56,65.56,0,0,0-9.07,9.1c2.85-.17,5.68-.27,8.53-.27H51c3,0,6,.09,8.93.29A58.34,58.34,0,0,0,51.45,19.08ZM57,64.76c-2,.19-4,.31-6,.39q-1.8.06-3.6.06-2.37,0-4.74-.12a64.3,64.3,0,0,0,8,7.86,1.42,1.42,0,0,1,.13-.12,77.46,77.46,0,0,0,7.83-8.25Zm16.82-5A75.05,75.05,0,0,0,70.57,48.9c-.22.47-.43,1-.64,1.45-.83,1.83-1.73,3.62-2.67,5.39-1.27,2.42-2.65,4.79-4.15,7.09a58,58,0,0,0,10.83-2.32C73.9,60.27,73.85,60,73.8,59.79Zm.39-27a64.71,64.71,0,0,0-12-3.24c.59.79,1.17,1.57,1.74,2.36,1.17,1.63,2.27,3.31,3.34,5,1.46,2.31,2.82,4.69,4.06,7.14a58.79,58.79,0,0,0,3.51-11v0C74.62,33,74.4,32.9,74.19,32.81Zm0,0a64.71,64.71,0,0,0-12-3.24c.59.79,1.17,1.57,1.74,2.36,1.17,1.63,2.27,3.31,3.34,5,1.46,2.31,2.82,4.69,4.06,7.14a58.79,58.79,0,0,0,3.51-11v0C74.62,33,74.4,32.9,74.19,32.81Zm-.39,27A75.05,75.05,0,0,0,70.57,48.9c-.22.47-.43,1-.64,1.45-.83,1.83-1.73,3.62-2.67,5.39-1.27,2.42-2.65,4.79-4.15,7.09a58,58,0,0,0,10.83-2.32C73.9,60.27,73.85,60,73.8,59.79ZM57,64.76c-2,.19-4,.31-6,.39q-1.8.06-3.6.06-2.37,0-4.74-.12a64.3,64.3,0,0,0,8,7.86,1.42,1.42,0,0,1,.13-.12,77.46,77.46,0,0,0,7.83-8.25ZM51.45,19.08l-.05,0-.54.43a65.56,65.56,0,0,0-9.07,9.1c2.85-.17,5.68-.27,8.53-.27H51c3,0,6,.09,8.93.29A58.34,58.34,0,0,0,51.45,19.08ZM35.35,55.36c-1.51-2.65-3-5.34-4.32-8.08a63.89,63.89,0,0,0-3.27,12,1,1,0,0,0,.16.06,77.34,77.34,0,0,0,11.34,2.7l.23,0C38,59.91,36.66,57.65,35.35,55.36ZM27.77,32.85l-.13,0a.37.37,0,0,1,0,.11A64.46,64.46,0,0,0,31,45.41c1.36-2.75,2.8-5.45,4.35-8.09s3.14-5.24,4.84-7.79A65.54,65.54,0,0,0,27.77,32.85Zm0,0-.13,0a.37.37,0,0,1,0,.11A64.46,64.46,0,0,0,31,45.41c1.36-2.75,2.8-5.45,4.35-8.09s3.14-5.24,4.84-7.79A65.54,65.54,0,0,0,27.77,32.85Zm7.58,22.51c-1.51-2.65-3-5.34-4.32-8.08a63.89,63.89,0,0,0-3.27,12,1,1,0,0,0,.16.06,77.34,77.34,0,0,0,11.34,2.7l.23,0C38,59.91,36.66,57.65,35.35,55.36Zm16.1-36.28-.05,0-.54.43a65.56,65.56,0,0,0-9.07,9.1c2.85-.17,5.68-.27,8.53-.27H51c3,0,6,.09,8.93.29A58.34,58.34,0,0,0,51.45,19.08ZM57,64.76c-2,.19-4,.31-6,.39q-1.8.06-3.6.06-2.37,0-4.74-.12a64.3,64.3,0,0,0,8,7.86,1.42,1.42,0,0,1,.13-.12,77.46,77.46,0,0,0,7.83-8.25Zm16.82-5A75.05,75.05,0,0,0,70.57,48.9c-.22.47-.43,1-.64,1.45-.83,1.83-1.73,3.62-2.67,5.39-1.27,2.42-2.65,4.79-4.15,7.09a58,58,0,0,0,10.83-2.32C73.9,60.27,73.85,60,73.8,59.79Zm.39-27a64.71,64.71,0,0,0-12-3.24c.59.79,1.17,1.57,1.74,2.36,1.17,1.63,2.27,3.31,3.34,5,1.46,2.31,2.82,4.69,4.06,7.14a58.79,58.79,0,0,0,3.51-11v0C74.62,33,74.4,32.9,74.19,32.81Zm0,0a64.71,64.71,0,0,0-12-3.24c.59.79,1.17,1.57,1.74,2.36,1.17,1.63,2.27,3.31,3.34,5,1.46,2.31,2.82,4.69,4.06,7.14a58.79,58.79,0,0,0,3.51-11v0C74.62,33,74.4,32.9,74.19,32.81Zm-.39,27A75.05,75.05,0,0,0,70.57,48.9c-.22.47-.43,1-.64,1.45-.83,1.83-1.73,3.62-2.67,5.39-1.27,2.42-2.65,4.79-4.15,7.09a58,58,0,0,0,10.83-2.32C73.9,60.27,73.85,60,73.8,59.79ZM57,64.76c-2,.19-4,.31-6,.39q-1.8.06-3.6.06-2.37,0-4.74-.12a64.3,64.3,0,0,0,8,7.86,1.42,1.42,0,0,1,.13-.12,77.46,77.46,0,0,0,7.83-8.25ZM51.45,19.08l-.05,0-.54.43a65.56,65.56,0,0,0-9.07,9.1c2.85-.17,5.68-.27,8.53-.27H51c3,0,6,.09,8.93.29A58.34,58.34,0,0,0,51.45,19.08ZM35.35,55.36c-1.51-2.65-3-5.34-4.32-8.08a63.89,63.89,0,0,0-3.27,12,1,1,0,0,0,.16.06,77.34,77.34,0,0,0,11.34,2.7l.23,0C38,59.91,36.66,57.65,35.35,55.36ZM27.77,32.85l-.13,0a.37.37,0,0,1,0,.11A64.46,64.46,0,0,0,31,45.41c1.36-2.75,2.8-5.45,4.35-8.09s3.14-5.24,4.84-7.79A65.54,65.54,0,0,0,27.77,32.85Zm0,0-.13,0a.37.37,0,0,1,0,.11A64.46,64.46,0,0,0,31,45.41c1.36-2.75,2.8-5.45,4.35-8.09s3.14-5.24,4.84-7.79A65.54,65.54,0,0,0,27.77,32.85Zm7.58,22.51c-1.51-2.65-3-5.34-4.32-8.08a63.89,63.89,0,0,0-3.27,12,1,1,0,0,0,.16.06,77.34,77.34,0,0,0,11.34,2.7l.23,0C38,59.91,36.66,57.65,35.35,55.36Zm16.1-36.28-.05,0-.54.43a65.56,65.56,0,0,0-9.07,9.1c2.85-.17,5.68-.27,8.53-.27H51c3,0,6,.09,8.93.29A58.34,58.34,0,0,0,51.45,19.08ZM57,64.76c-2,.19-4,.31-6,.39q-1.8.06-3.6.06-2.37,0-4.74-.12a64.3,64.3,0,0,0,8,7.86,1.42,1.42,0,0,1,.13-.12,77.46,77.46,0,0,0,7.83-8.25Zm16.82-5A75.05,75.05,0,0,0,70.57,48.9c-.22.47-.43,1-.64,1.45-.83,1.83-1.73,3.62-2.67,5.39-1.27,2.42-2.65,4.79-4.15,7.09a58,58,0,0,0,10.83-2.32C73.9,60.27,73.85,60,73.8,59.79Zm.39-27a64.71,64.71,0,0,0-12-3.24c.59.79,1.17,1.57,1.74,2.36,1.17,1.63,2.27,3.31,3.34,5,1.46,2.31,2.82,4.69,4.06,7.14a58.79,58.79,0,0,0,3.51-11v0C74.62,33,74.4,32.9,74.19,32.81Zm0,0a64.71,64.71,0,0,0-12-3.24c.59.79,1.17,1.57,1.74,2.36,1.17,1.63,2.27,3.31,3.34,5,1.46,2.31,2.82,4.69,4.06,7.14a58.79,58.79,0,0,0,3.51-11v0C74.62,33,74.4,32.9,74.19,32.81Zm-.39,27A75.05,75.05,0,0,0,70.57,48.9c-.22.47-.43,1-.64,1.45-.83,1.83-1.73,3.62-2.67,5.39-1.27,2.42-2.65,4.79-4.15,7.09a58,58,0,0,0,10.83-2.32C73.9,60.27,73.85,60,73.8,59.79ZM57,64.76c-2,.19-4,.31-6,.39q-1.8.06-3.6.06-2.37,0-4.74-.12a64.3,64.3,0,0,0,8,7.86,1.42,1.42,0,0,1,.13-.12,77.46,77.46,0,0,0,7.83-8.25ZM51.45,19.08l-.05,0-.54.43a65.56,65.56,0,0,0-9.07,9.1c2.85-.17,5.68-.27,8.53-.27H51c3,0,6,.09,8.93.29A58.34,58.34,0,0,0,51.45,19.08ZM35.35,55.36c-1.51-2.65-3-5.34-4.32-8.08a63.89,63.89,0,0,0-3.27,12,1,1,0,0,0,.16.06,77.34,77.34,0,0,0,11.34,2.7l.23,0C38,59.91,36.66,57.65,35.35,55.36ZM27.77,32.85l-.13,0a.37.37,0,0,1,0,.11A64.46,64.46,0,0,0,31,45.41c1.36-2.75,2.8-5.45,4.35-8.09s3.14-5.24,4.84-7.79A65.54,65.54,0,0,0,27.77,32.85Zm0,0-.13,0a.37.37,0,0,1,0,.11A64.46,64.46,0,0,0,31,45.41c1.36-2.75,2.8-5.45,4.35-8.09s3.14-5.24,4.84-7.79A65.54,65.54,0,0,0,27.77,32.85Zm7.58,22.51c-1.51-2.65-3-5.34-4.32-8.08a63.89,63.89,0,0,0-3.27,12,1,1,0,0,0,.16.06,77.34,77.34,0,0,0,11.34,2.7l.23,0C38,59.91,36.66,57.65,35.35,55.36Zm16.1-36.28-.05,0-.54.43a65.56,65.56,0,0,0-9.07,9.1c2.85-.17,5.68-.27,8.53-.27H51c3,0,6,.09,8.93.29A58.34,58.34,0,0,0,51.45,19.08ZM57,64.76c-2,.19-4,.31-6,.39q-1.8.06-3.6.06-2.37,0-4.74-.12a64.3,64.3,0,0,0,8,7.86,1.42,1.42,0,0,1,.13-.12,77.46,77.46,0,0,0,7.83-8.25Zm16.82-5A75.05,75.05,0,0,0,70.57,48.9c-.22.47-.43,1-.64,1.45-.83,1.83-1.73,3.62-2.67,5.39-1.27,2.42-2.65,4.79-4.15,7.09a58,58,0,0,0,10.83-2.32C73.9,60.27,73.85,60,73.8,59.79Zm.39-27a64.71,64.71,0,0,0-12-3.24c.59.79,1.17,1.57,1.74,2.36,1.17,1.63,2.27,3.31,3.34,5,1.46,2.31,2.82,4.69,4.06,7.14a58.79,58.79,0,0,0,3.51-11v0C74.62,33,74.4,32.9,74.19,32.81Zm0,0a64.71,64.71,0,0,0-12-3.24c.59.79,1.17,1.57,1.74,2.36,1.17,1.63,2.27,3.31,3.34,5,1.46,2.31,2.82,4.69,4.06,7.14a58.79,58.79,0,0,0,3.51-11v0C74.62,33,74.4,32.9,74.19,32.81Zm-.39,27A75.05,75.05,0,0,0,70.57,48.9c-.22.47-.43,1-.64,1.45-.83,1.83-1.73,3.62-2.67,5.39-1.27,2.42-2.65,4.79-4.15,7.09a58,58,0,0,0,10.83-2.32C73.9,60.27,73.85,60,73.8,59.79ZM57,64.76c-2,.19-4,.31-6,.39q-1.8.06-3.6.06-2.37,0-4.74-.12a64.3,64.3,0,0,0,8,7.86,1.42,1.42,0,0,1,.13-.12,77.46,77.46,0,0,0,7.83-8.25ZM51.45,19.08l-.05,0-.54.43a65.56,65.56,0,0,0-9.07,9.1c2.85-.17,5.68-.27,8.53-.27H51c3,0,6,.09,8.93.29A58.34,58.34,0,0,0,51.45,19.08ZM35.35,55.36c-1.51-2.65-3-5.34-4.32-8.08a63.89,63.89,0,0,0-3.27,12,1,1,0,0,0,.16.06,77.34,77.34,0,0,0,11.34,2.7l.23,0C38,59.91,36.66,57.65,35.35,55.36ZM27.77,32.85l-.13,0a.37.37,0,0,1,0,.11A64.46,64.46,0,0,0,31,45.41c1.36-2.75,2.8-5.45,4.35-8.09s3.14-5.24,4.84-7.79A65.54,65.54,0,0,0,27.77,32.85Zm0,0-.13,0a.37.37,0,0,1,0,.11A64.46,64.46,0,0,0,31,45.41c1.36-2.75,2.8-5.45,4.35-8.09s3.14-5.24,4.84-7.79A65.54,65.54,0,0,0,27.77,32.85Zm7.58,22.51c-1.51-2.65-3-5.34-4.32-8.08a63.89,63.89,0,0,0-3.27,12,1,1,0,0,0,.16.06,77.34,77.34,0,0,0,11.34,2.7l.23,0C38,59.91,36.66,57.65,35.35,55.36Zm16.1-36.28-.05,0-.54.43a65.56,65.56,0,0,0-9.07,9.1c2.85-.17,5.68-.27,8.53-.27H51c3,0,6,.09,8.93.29A58.34,58.34,0,0,0,51.45,19.08ZM57,64.76c-2,.19-4,.31-6,.39q-1.8.06-3.6.06-2.37,0-4.74-.12a64.3,64.3,0,0,0,8,7.86,1.42,1.42,0,0,1,.13-.12,77.46,77.46,0,0,0,7.83-8.25Zm16.82-5A75.05,75.05,0,0,0,70.57,48.9c-.22.47-.43,1-.64,1.45-.83,1.83-1.73,3.62-2.67,5.39-1.27,2.42-2.65,4.79-4.15,7.09a58,58,0,0,0,10.83-2.32C73.9,60.27,73.85,60,73.8,59.79Zm.39-27a64.71,64.71,0,0,0-12-3.24c.59.79,1.17,1.57,1.74,2.36,1.17,1.63,2.27,3.31,3.34,5,1.46,2.31,2.82,4.69,4.06,7.14a58.79,58.79,0,0,0,3.51-11v0C74.62,33,74.4,32.9,74.19,32.81Zm0,0a64.71,64.71,0,0,0-12-3.24c.59.79,1.17,1.57,1.74,2.36,1.17,1.63,2.27,3.31,3.34,5,1.46,2.31,2.82,4.69,4.06,7.14a58.79,58.79,0,0,0,3.51-11v0C74.62,33,74.4,32.9,74.19,32.81Zm-.39,27A75.05,75.05,0,0,0,70.57,48.9c-.22.47-.43,1-.64,1.45-.83,1.83-1.73,3.62-2.67,5.39-1.27,2.42-2.65,4.79-4.15,7.09a58,58,0,0,0,10.83-2.32C73.9,60.27,73.85,60,73.8,59.79ZM57,64.76c-2,.19-4,.31-6,.39q-1.8.06-3.6.06-2.37,0-4.74-.12a64.3,64.3,0,0,0,8,7.86,1.42,1.42,0,0,1,.13-.12,77.46,77.46,0,0,0,7.83-8.25ZM51.45,19.08l-.05,0-.54.43a65.56,65.56,0,0,0-9.07,9.1c2.85-.17,5.68-.27,8.53-.27H51c3,0,6,.09,8.93.29A58.34,58.34,0,0,0,51.45,19.08ZM35.35,55.36c-1.51-2.65-3-5.34-4.32-8.08a63.89,63.89,0,0,0-3.27,12,1,1,0,0,0,.16.06,77.34,77.34,0,0,0,11.34,2.7l.23,0C38,59.91,36.66,57.65,35.35,55.36ZM27.77,32.85l-.13,0a.37.37,0,0,1,0,.11A64.46,64.46,0,0,0,31,45.41c1.36-2.75,2.8-5.45,4.35-8.09s3.14-5.24,4.84-7.79A65.54,65.54,0,0,0,27.77,32.85Zm0,0-.13,0a.37.37,0,0,1,0,.11A64.46,64.46,0,0,0,31,45.41c1.36-2.75,2.8-5.45,4.35-8.09s3.14-5.24,4.84-7.79A65.54,65.54,0,0,0,27.77,32.85Zm7.58,22.51c-1.51-2.65-3-5.34-4.32-8.08a63.89,63.89,0,0,0-3.27,12,1,1,0,0,0,.16.06,77.34,77.34,0,0,0,11.34,2.7l.23,0C38,59.91,36.66,57.65,35.35,55.36Zm16.1-36.28-.05,0-.54.43a65.56,65.56,0,0,0-9.07,9.1c2.85-.17,5.68-.27,8.53-.27H51c3,0,6,.09,8.93.29A58.34,58.34,0,0,0,51.45,19.08ZM57,64.76c-2,.19-4,.31-6,.39q-1.8.06-3.6.06-2.37,0-4.74-.12a64.3,64.3,0,0,0,8,7.86,1.42,1.42,0,0,1,.13-.12,77.46,77.46,0,0,0,7.83-8.25Zm16.82-5A75.05,75.05,0,0,0,70.57,48.9c-.22.47-.43,1-.64,1.45-.83,1.83-1.73,3.62-2.67,5.39-1.27,2.42-2.65,4.79-4.15,7.09a58,58,0,0,0,10.83-2.32C73.9,60.27,73.85,60,73.8,59.79Zm.39-27a64.71,64.71,0,0,0-12-3.24c.59.79,1.17,1.57,1.74,2.36,1.17,1.63,2.27,3.31,3.34,5,1.46,2.31,2.82,4.69,4.06,7.14a58.79,58.79,0,0,0,3.51-11v0C74.62,33,74.4,32.9,74.19,32.81Zm-46.42,0-.13,0a.37.37,0,0,1,0,.11A64.46,64.46,0,0,0,31,45.41c1.36-2.75,2.8-5.45,4.35-8.09s3.14-5.24,4.84-7.79A65.54,65.54,0,0,0,27.77,32.85Zm7.58,22.51c-1.51-2.65-3-5.34-4.32-8.08a63.89,63.89,0,0,0-3.27,12,1,1,0,0,0,.16.06,77.34,77.34,0,0,0,11.34,2.7l.23,0C38,59.91,36.66,57.65,35.35,55.36Zm16.1-36.28-.05,0-.54.43a65.56,65.56,0,0,0-9.07,9.1c2.85-.17,5.68-.27,8.53-.27H51c3,0,6,.09,8.93.29A58.34,58.34,0,0,0,51.45,19.08ZM57,64.76c-2,.19-4,.31-6,.39q-1.8.06-3.6.06-2.37,0-4.74-.12a64.3,64.3,0,0,0,8,7.86,1.42,1.42,0,0,1,.13-.12,77.46,77.46,0,0,0,7.83-8.25Zm16.82-5A75.05,75.05,0,0,0,70.57,48.9c-.22.47-.43,1-.64,1.45-.83,1.83-1.73,3.62-2.67,5.39-1.27,2.42-2.65,4.79-4.15,7.09a58,58,0,0,0,10.83-2.32C73.9,60.27,73.85,60,73.8,59.79Zm.39-27a64.71,64.71,0,0,0-12-3.24c.59.79,1.17,1.57,1.74,2.36,1.17,1.63,2.27,3.31,3.34,5,1.46,2.31,2.82,4.69,4.06,7.14a58.79,58.79,0,0,0,3.51-11v0C74.62,33,74.4,32.9,74.19,32.81Zm0,0a64.71,64.71,0,0,0-12-3.24c.59.79,1.17,1.57,1.74,2.36,1.17,1.63,2.27,3.31,3.34,5,1.46,2.31,2.82,4.69,4.06,7.14a58.79,58.79,0,0,0,3.51-11v0C74.62,33,74.4,32.9,74.19,32.81Zm-.39,27A75.05,75.05,0,0,0,70.57,48.9c-.22.47-.43,1-.64,1.45-.83,1.83-1.73,3.62-2.67,5.39-1.27,2.42-2.65,4.79-4.15,7.09a58,58,0,0,0,10.83-2.32C73.9,60.27,73.85,60,73.8,59.79ZM57,64.76c-2,.19-4,.31-6,.39q-1.8.06-3.6.06-2.37,0-4.74-.12a64.3,64.3,0,0,0,8,7.86,1.42,1.42,0,0,1,.13-.12,77.46,77.46,0,0,0,7.83-8.25ZM51.45,19.08l-.05,0-.54.43a65.56,65.56,0,0,0-9.07,9.1c2.85-.17,5.68-.27,8.53-.27H51c3,0,6,.09,8.93.29A58.34,58.34,0,0,0,51.45,19.08ZM35.35,55.36c-1.51-2.65-3-5.34-4.32-8.08a63.89,63.89,0,0,0-3.27,12,1,1,0,0,0,.16.06,77.34,77.34,0,0,0,11.34,2.7l.23,0C38,59.91,36.66,57.65,35.35,55.36ZM27.77,32.85l-.13,0a.37.37,0,0,1,0,.11A64.46,64.46,0,0,0,31,45.41c1.36-2.75,2.8-5.45,4.35-8.09s3.14-5.24,4.84-7.79A65.54,65.54,0,0,0,27.77,32.85Zm0,0-.13,0a.37.37,0,0,1,0,.11A64.46,64.46,0,0,0,31,45.41c1.36-2.75,2.8-5.45,4.35-8.09s3.14-5.24,4.84-7.79A65.54,65.54,0,0,0,27.77,32.85Zm7.58,22.51c-1.51-2.65-3-5.34-4.32-8.08a63.89,63.89,0,0,0-3.27,12,1,1,0,0,0,.16.06,77.34,77.34,0,0,0,11.34,2.7l.23,0C38,59.91,36.66,57.65,35.35,55.36Zm16.1-36.28-.05,0-.54.43a65.56,65.56,0,0,0-9.07,9.1c2.85-.17,5.68-.27,8.53-.27H51c3,0,6,.09,8.93.29A58.34,58.34,0,0,0,51.45,19.08ZM57,64.76c-2,.19-4,.31-6,.39q-1.8.06-3.6.06-2.37,0-4.74-.12a64.3,64.3,0,0,0,8,7.86,1.42,1.42,0,0,1,.13-.12,77.46,77.46,0,0,0,7.83-8.25Zm16.82-5A75.05,75.05,0,0,0,70.57,48.9c-.22.47-.43,1-.64,1.45-.83,1.83-1.73,3.62-2.67,5.39-1.27,2.42-2.65,4.79-4.15,7.09a58,58,0,0,0,10.83-2.32C73.9,60.27,73.85,60,73.8,59.79Zm.39-27a64.71,64.71,0,0,0-12-3.24c.59.79,1.17,1.57,1.74,2.36,1.17,1.63,2.27,3.31,3.34,5,1.46,2.31,2.82,4.69,4.06,7.14a58.79,58.79,0,0,0,3.51-11v0C74.62,33,74.4,32.9,74.19,32.81Zm0,0a64.71,64.71,0,0,0-12-3.24c.59.79,1.17,1.57,1.74,2.36,1.17,1.63,2.27,3.31,3.34,5,1.46,2.31,2.82,4.69,4.06,7.14a58.79,58.79,0,0,0,3.51-11v0C74.62,33,74.4,32.9,74.19,32.81Zm-.39,27A75.05,75.05,0,0,0,70.57,48.9c-.22.47-.43,1-.64,1.45-.83,1.83-1.73,3.62-2.67,5.39-1.27,2.42-2.65,4.79-4.15,7.09a58,58,0,0,0,10.83-2.32C73.9,60.27,73.85,60,73.8,59.79ZM57,64.76c-2,.19-4,.31-6,.39q-1.8.06-3.6.06-2.37,0-4.74-.12a64.3,64.3,0,0,0,8,7.86,1.42,1.42,0,0,1,.13-.12,77.46,77.46,0,0,0,7.83-8.25ZM51.45,19.08l-.05,0-.54.43a65.56,65.56,0,0,0-9.07,9.1c2.85-.17,5.68-.27,8.53-.27H51c3,0,6,.09,8.93.29A58.34,58.34,0,0,0,51.45,19.08ZM35.35,55.36c-1.51-2.65-3-5.34-4.32-8.08a63.89,63.89,0,0,0-3.27,12,1,1,0,0,0,.16.06,77.34,77.34,0,0,0,11.34,2.7l.23,0C38,59.91,36.66,57.65,35.35,55.36ZM27.77,32.85l-.13,0a.37.37,0,0,1,0,.11A64.46,64.46,0,0,0,31,45.41c1.36-2.75,2.8-5.45,4.35-8.09s3.14-5.24,4.84-7.79A65.54,65.54,0,0,0,27.77,32.85Zm0,0-.13,0a.37.37,0,0,1,0,.11A64.46,64.46,0,0,0,31,45.41c1.36-2.75,2.8-5.45,4.35-8.09s3.14-5.24,4.84-7.79A65.54,65.54,0,0,0,27.77,32.85Zm7.58,22.51c-1.51-2.65-3-5.34-4.32-8.08a63.89,63.89,0,0,0-3.27,12,1,1,0,0,0,.16.06,77.34,77.34,0,0,0,11.34,2.7l.23,0C38,59.91,36.66,57.65,35.35,55.36Zm16.1-36.28-.05,0-.54.43a65.56,65.56,0,0,0-9.07,9.1c2.85-.17,5.68-.27,8.53-.27H51c3,0,6,.09,8.93.29A58.34,58.34,0,0,0,51.45,19.08ZM57,64.76c-2,.19-4,.31-6,.39q-1.8.06-3.6.06-2.37,0-4.74-.12a64.3,64.3,0,0,0,8,7.86,1.42,1.42,0,0,1,.13-.12,77.46,77.46,0,0,0,7.83-8.25Zm16.82-5A75.05,75.05,0,0,0,70.57,48.9c-.22.47-.43,1-.64,1.45-.83,1.83-1.73,3.62-2.67,5.39-1.27,2.42-2.65,4.79-4.15,7.09a58,58,0,0,0,10.83-2.32C73.9,60.27,73.85,60,73.8,59.79Zm.39-27a64.71,64.71,0,0,0-12-3.24c.59.79,1.17,1.57,1.74,2.36,1.17,1.63,2.27,3.31,3.34,5,1.46,2.31,2.82,4.69,4.06,7.14a58.79,58.79,0,0,0,3.51-11v0C74.62,33,74.4,32.9,74.19,32.81Zm0,0a64.71,64.71,0,0,0-12-3.24c.59.79,1.17,1.57,1.74,2.36,1.17,1.63,2.27,3.31,3.34,5,1.46,2.31,2.82,4.69,4.06,7.14a58.79,58.79,0,0,0,3.51-11v0C74.62,33,74.4,32.9,74.19,32.81Zm-.39,27A75.05,75.05,0,0,0,70.57,48.9c-.22.47-.43,1-.64,1.45-.83,1.83-1.73,3.62-2.67,5.39-1.27,2.42-2.65,4.79-4.15,7.09a58,58,0,0,0,10.83-2.32C73.9,60.27,73.85,60,73.8,59.79ZM57,64.76c-2,.19-4,.31-6,.39q-1.8.06-3.6.06-2.37,0-4.74-.12a64.3,64.3,0,0,0,8,7.86,1.42,1.42,0,0,1,.13-.12,77.46,77.46,0,0,0,7.83-8.25ZM51.45,19.08l-.05,0-.54.43a65.56,65.56,0,0,0-9.07,9.1c2.85-.17,5.68-.27,8.53-.27H51c3,0,6,.09,8.93.29A58.34,58.34,0,0,0,51.45,19.08ZM35.35,55.36c-1.51-2.65-3-5.34-4.32-8.08a63.89,63.89,0,0,0-3.27,12,1,1,0,0,0,.16.06,77.34,77.34,0,0,0,11.34,2.7l.23,0C38,59.91,36.66,57.65,35.35,55.36ZM27.77,32.85l-.13,0a.37.37,0,0,1,0,.11A64.46,64.46,0,0,0,31,45.41c1.36-2.75,2.8-5.45,4.35-8.09s3.14-5.24,4.84-7.79A65.54,65.54,0,0,0,27.77,32.85Zm0,0-.13,0a.37.37,0,0,1,0,.11A64.46,64.46,0,0,0,31,45.41c1.36-2.75,2.8-5.45,4.35-8.09s3.14-5.24,4.84-7.79A65.54,65.54,0,0,0,27.77,32.85Zm7.58,22.51c-1.51-2.65-3-5.34-4.32-8.08a63.89,63.89,0,0,0-3.27,12,1,1,0,0,0,.16.06,77.34,77.34,0,0,0,11.34,2.7l.23,0C38,59.91,36.66,57.65,35.35,55.36Zm16.1-36.28-.05,0-.54.43a65.56,65.56,0,0,0-9.07,9.1c2.85-.17,5.68-.27,8.53-.27H51c3,0,6,.09,8.93.29A58.34,58.34,0,0,0,51.45,19.08ZM57,64.76c-2,.19-4,.31-6,.39q-1.8.06-3.6.06-2.37,0-4.74-.12a64.3,64.3,0,0,0,8,7.86,1.42,1.42,0,0,1,.13-.12,77.46,77.46,0,0,0,7.83-8.25Zm16.82-5A75.05,75.05,0,0,0,70.57,48.9c-.22.47-.43,1-.64,1.45-.83,1.83-1.73,3.62-2.67,5.39-1.27,2.42-2.65,4.79-4.15,7.09a58,58,0,0,0,10.83-2.32C73.9,60.27,73.85,60,73.8,59.79Zm.39-27a64.71,64.71,0,0,0-12-3.24c.59.79,1.17,1.57,1.74,2.36,1.17,1.63,2.27,3.31,3.34,5,1.46,2.31,2.82,4.69,4.06,7.14a58.79,58.79,0,0,0,3.51-11v0C74.62,33,74.4,32.9,74.19,32.81Zm0,0a64.71,64.71,0,0,0-12-3.24c.59.79,1.17,1.57,1.74,2.36,1.17,1.63,2.27,3.31,3.34,5,1.46,2.31,2.82,4.69,4.06,7.14a58.79,58.79,0,0,0,3.51-11v0C74.62,33,74.4,32.9,74.19,32.81Zm-.39,27A75.05,75.05,0,0,0,70.57,48.9c-.22.47-.43,1-.64,1.45-.83,1.83-1.73,3.62-2.67,5.39-1.27,2.42-2.65,4.79-4.15,7.09a58,58,0,0,0,10.83-2.32C73.9,60.27,73.85,60,73.8,59.79ZM57,64.76c-2,.19-4,.31-6,.39q-1.8.06-3.6.06-2.37,0-4.74-.12a64.3,64.3,0,0,0,8,7.86,1.42,1.42,0,0,1,.13-.12,77.46,77.46,0,0,0,7.83-8.25ZM51.45,19.08l-.05,0-.54.43a65.56,65.56,0,0,0-9.07,9.1c2.85-.17,5.68-.27,8.53-.27H51c3,0,6,.09,8.93.29A58.34,58.34,0,0,0,51.45,19.08ZM35.35,55.36c-1.51-2.65-3-5.34-4.32-8.08a63.89,63.89,0,0,0-3.27,12,1,1,0,0,0,.16.06,77.34,77.34,0,0,0,11.34,2.7l.23,0C38,59.91,36.66,57.65,35.35,55.36ZM27.77,32.85l-.13,0a.37.37,0,0,1,0,.11A64.46,64.46,0,0,0,31,45.41c1.36-2.75,2.8-5.45,4.35-8.09s3.14-5.24,4.84-7.79A65.54,65.54,0,0,0,27.77,32.85Zm0,0-.13,0a.37.37,0,0,1,0,.11A64.46,64.46,0,0,0,31,45.41c1.36-2.75,2.8-5.45,4.35-8.09s3.14-5.24,4.84-7.79A65.54,65.54,0,0,0,27.77,32.85Zm7.58,22.51c-1.51-2.65-3-5.34-4.32-8.08a63.89,63.89,0,0,0-3.27,12,1,1,0,0,0,.16.06,77.34,77.34,0,0,0,11.34,2.7l.23,0C38,59.91,36.66,57.65,35.35,55.36Zm16.1-36.28-.05,0-.54.43a65.56,65.56,0,0,0-9.07,9.1c2.85-.17,5.68-.27,8.53-.27H51c3,0,6,.09,8.93.29A58.34,58.34,0,0,0,51.45,19.08ZM57,64.76c-2,.19-4,.31-6,.39q-1.8.06-3.6.06-2.37,0-4.74-.12a64.3,64.3,0,0,0,8,7.86,1.42,1.42,0,0,1,.13-.12,77.46,77.46,0,0,0,7.83-8.25Zm16.82-5A75.05,75.05,0,0,0,70.57,48.9c-.22.47-.43,1-.64,1.45-.83,1.83-1.73,3.62-2.67,5.39-1.27,2.42-2.65,4.79-4.15,7.09a58,58,0,0,0,10.83-2.32C73.9,60.27,73.85,60,73.8,59.79Zm.39-27a64.71,64.71,0,0,0-12-3.24c.59.79,1.17,1.57,1.74,2.36,1.17,1.63,2.27,3.31,3.34,5,1.46,2.31,2.82,4.69,4.06,7.14a58.79,58.79,0,0,0,3.51-11v0C74.62,33,74.4,32.9,74.19,32.81Zm0,0a64.71,64.71,0,0,0-12-3.24c.59.79,1.17,1.57,1.74,2.36,1.17,1.63,2.27,3.31,3.34,5,1.46,2.31,2.82,4.69,4.06,7.14a58.79,58.79,0,0,0,3.51-11v0C74.62,33,74.4,32.9,74.19,32.81Zm-.39,27A75.05,75.05,0,0,0,70.57,48.9c-.22.47-.43,1-.64,1.45-.83,1.83-1.73,3.62-2.67,5.39-1.27,2.42-2.65,4.79-4.15,7.09a58,58,0,0,0,10.83-2.32C73.9,60.27,73.85,60,73.8,59.79ZM57,64.76c-2,.19-4,.31-6,.39q-1.8.06-3.6.06-2.37,0-4.74-.12a64.3,64.3,0,0,0,8,7.86,1.42,1.42,0,0,1,.13-.12,77.46,77.46,0,0,0,7.83-8.25ZM51.45,19.08l-.05,0-.54.43a65.56,65.56,0,0,0-9.07,9.1c2.85-.17,5.68-.27,8.53-.27H51c3,0,6,.09,8.93.29A58.34,58.34,0,0,0,51.45,19.08ZM35.35,55.36c-1.51-2.65-3-5.34-4.32-8.08a63.89,63.89,0,0,0-3.27,12,1,1,0,0,0,.16.06,77.34,77.34,0,0,0,11.34,2.7l.23,0C38,59.91,36.66,57.65,35.35,55.36ZM27.77,32.85l-.13,0a.37.37,0,0,1,0,.11A64.46,64.46,0,0,0,31,45.41c1.36-2.75,2.8-5.45,4.35-8.09s3.14-5.24,4.84-7.79A65.54,65.54,0,0,0,27.77,32.85Z"/><path d="M97.68,34.83a27.07,27.07,0,0,0-6.78-6.38,38.17,38.17,0,0,0-5.12-2.86,43.21,43.21,0,0,0,.09-4.54,27.2,27.2,0,0,0-1.74-9,19,19,0,0,0-7.66-9.42l-.12-.06A18.79,18.79,0,0,0,66.72,0a20.31,20.31,0,0,0-2.35.14,27,27,0,0,0-8.92,2.69,37,37,0,0,0-5,3,44,44,0,0,0-3.9-2.36,27.65,27.65,0,0,0-8.62-3A20.59,20.59,0,0,0,34.74.25a18.48,18.48,0,0,0-8.83,2.18l-.13.06a19,19,0,0,0-8.11,9.15,26.85,26.85,0,0,0-2.14,9.09,35.67,35.67,0,0,0,0,5.06,35.61,35.61,0,0,0-4.48,2.51,27.19,27.19,0,0,0-6.93,6.32A19.83,19.83,0,0,0,0,46.22v.12A19.67,19.67,0,0,0,4,58a27.66,27.66,0,0,0,6.9,6.43,41.51,41.51,0,0,0,4.49,2.6,40.61,40.61,0,0,0,0,4.8,27.11,27.11,0,0,0,2,9.17,19.67,19.67,0,0,0,8,9.38l.07,0A19.17,19.17,0,0,0,35.12,93a21.3,21.3,0,0,0,2.52-.15,27.44,27.44,0,0,0,9-2.77,39.86,39.86,0,0,0,4.48-2.59,36.3,36.3,0,0,0,4.17,2.45,26.84,26.84,0,0,0,9,2.83,19.65,19.65,0,0,0,2.65.17,19.31,19.31,0,0,0,9.45-2.39l.08-.05a19.71,19.71,0,0,0,8.14-9.35,27.47,27.47,0,0,0,2.11-9.21,41.19,41.19,0,0,0,0-6,41.32,41.32,0,0,0,3.7-2.06,26.67,26.67,0,0,0,6.88-6,19,19,0,0,0,4.33-11.34v-.13A19,19,0,0,0,97.68,34.83ZM90.61,52.58a19.29,19.29,0,0,1-4.78,4.1,35.75,35.75,0,0,1-5.45,2.76c-1,.44-2.07.82-3.12,1.17a40.08,40.08,0,0,1,.93,10.81,19.09,19.09,0,0,1-1.44,6.37,11.2,11.2,0,0,1-4.55,5.32,10.88,10.88,0,0,1-5.29,1.31,13.5,13.5,0,0,1-1.57-.1,18.66,18.66,0,0,1-6.19-2A30.16,30.16,0,0,1,53.9,79c-.92-.71-1.8-1.47-2.65-2.27a38.91,38.91,0,0,1-8.39,5.77,18.59,18.59,0,0,1-6.23,1.93,12.49,12.49,0,0,1-1.51.1,10.66,10.66,0,0,1-5.37-1.37,11.2,11.2,0,0,1-4.48-5.35,18.39,18.39,0,0,1-1.37-6.35,30,30,0,0,1,.3-6.23,32.89,32.89,0,0,1,.64-3.43,38.32,38.32,0,0,1-9.19-4.38,18.78,18.78,0,0,1-4.79-4.44,11.17,11.17,0,0,1-2.34-6.59,11.2,11.2,0,0,1,2.39-6.55,18.68,18.68,0,0,1,4.81-4.36,30.4,30.4,0,0,1,5.55-2.86A36.15,36.15,0,0,1,25,31.29a35.07,35.07,0,0,1-.7-3.79A30,30,0,0,1,24,21.28,18.5,18.5,0,0,1,25.48,15,10.59,10.59,0,0,1,30,9.92a10.08,10.08,0,0,1,4.79-1.16,10.82,10.82,0,0,1,1.82.15A19.19,19.19,0,0,1,42.51,11a37.59,37.59,0,0,1,5.12,3.35c1,.77,2,1.58,2.91,2.41A41.94,41.94,0,0,1,54,13.79a30.18,30.18,0,0,1,5.26-3.32A18.35,18.35,0,0,1,65.36,8.6a10.24,10.24,0,0,1,1.36-.09A10.54,10.54,0,0,1,72,9.92a10.47,10.47,0,0,1,4.18,5.22,19,19,0,0,1,1.17,6.19,35.33,35.33,0,0,1-.34,6.1c-.16,1.26-.37,2.5-.64,3.74a37.14,37.14,0,0,1,4.27,1.47,30.52,30.52,0,0,1,5.51,2.89,18.22,18.22,0,0,1,4.69,4.39A10.5,10.5,0,0,1,93,46.34,10.58,10.58,0,0,1,90.61,52.58Z"/><path d="M48.93,74.37a35.76,35.76,0,0,1-7.58,4.87,17.11,17.11,0,0,1-5.13,1.53,7.69,7.69,0,0,1-1.07.07A7.45,7.45,0,0,1,31.56,80a7.65,7.65,0,0,1-3.09-3.6,17.54,17.54,0,0,1-1.3-5.22,40.74,40.74,0,0,1,.13-8.61A66.87,66.87,0,0,0,41.43,65c.11.16.21.32.32.47A77.77,77.77,0,0,0,48.93,74.37Z"/><path d="M75.23,30.84l-.39-.1a75.94,75.94,0,0,0-11.91-1.92L61.5,28.7q-.59-.79-1.2-1.56a88.91,88.91,0,0,0-8-8.8,42.78,42.78,0,0,1,8.21-5.14,17.86,17.86,0,0,1,5.21-1.59A10.64,10.64,0,0,1,67,11.54a7.65,7.65,0,0,1,3.62.83A8.3,8.3,0,0,1,74,16.1a17.19,17.19,0,0,1,1.51,5.38A33.44,33.44,0,0,1,75.23,30.84Z"/><path d="M74.66,71.13a17.59,17.59,0,0,1-1.24,5.21,7.72,7.72,0,0,1-3,3.62,7.18,7.18,0,0,1-3.67.93,8.37,8.37,0,0,1-1,0,17.38,17.38,0,0,1-5.17-1.48A41.53,41.53,0,0,1,53.15,75a66.11,66.11,0,0,0,9.11-10.84L63,64A89.17,89.17,0,0,0,74.14,61.6,36.14,36.14,0,0,1,74.66,71.13Z"/><path d="M69.9,47.17a80.44,80.44,0,0,1-4.25,7.65,97.3,97.3,0,0,1-5.92,8.33c-1.87.12-3.74.19-5.62.19-1,0-2.09,0-3.13-.06a94.2,94.2,0,0,1-10.63-1,66.66,66.66,0,0,1-4.71-7.06,65,65,0,0,1-4.27-8.81,66.59,66.59,0,0,1,4.27-8.89,65.54,65.54,0,0,1,5.5-8.1A64.72,64.72,0,0,1,51,28.64h.18a66.83,66.83,0,0,1,9.26.65,79.23,79.23,0,0,1,5.23,8.58A92.63,92.63,0,0,1,69.9,47.17Z"/></g></g></svg>