<?xml version="1.0" encoding="iso-8859-1"?>
<!-- Generator: Adobe Illustrator 26.2.1, SVG Export Plug-In . SVG Version: 6.00 Build 0)  -->
<svg version="1.1" id="Layer_1" color="#ebdbb2" fill="currentColor" xmlns="http://www.w3.org/2000/svg" xmlns:xlink="http://www.w3.org/1999/xlink" x="0px" y="0px"
	 width="800px" height="800px" viewBox="0 0 800 800" enable-background="new 0 0 800 800" xml:space="preserve">
<g>
	<rect x="348.826" y="301.76" width="3.097" height="3.097"/>
	<rect x="299.269" y="276.981" width="3.097" height="3.097"/>
	<polygon points="379.8,273.884 382.897,273.884 382.897,267.689 379.8,267.689 379.8,270.787 376.702,270.787 376.702,276.981 
		379.8,276.981 	"/>
	<path d="M717.41,357.512v-3.097h-3.097v-3.097h3.097v3.097h3.097v-6.195h-3.097v-3.097h3.097v-6.195h-3.097v-3.097h-3.097v3.097
		h-3.097v3.097h-6.195v3.097h-3.097v3.097h3.097v3.097h6.195v9.292h3.097v-3.097H717.41z M708.118,348.22v-3.097h6.195v3.097
		H708.118z"/>
	<rect x="717.41" y="456.628" width="3.097" height="3.097"/>
	<rect x="355.021" y="298.663" width="3.097" height="3.097"/>
	<rect x="382.897" y="280.079" width="3.097" height="3.097"/>
	<rect x="726.702" y="472.114" width="3.097" height="3.097"/>
	<rect x="385.994" y="270.787" width="3.097" height="3.097"/>
	<rect x="385.994" y="276.981" width="3.097" height="3.097"/>
	<rect x="308.561" y="276.981" width="3.097" height="3.097"/>
	<polygon points="705.021,342.026 705.021,338.928 711.216,338.928 711.216,335.831 714.313,335.831 714.313,332.734 
		708.118,332.734 708.118,329.636 711.216,329.636 711.216,326.539 705.021,326.539 705.021,323.442 701.923,323.442 
		701.923,326.539 695.729,326.539 695.729,323.442 698.826,323.442 698.826,317.247 695.729,317.247 695.729,320.344 
		692.631,320.344 692.631,323.442 686.437,323.442 686.437,314.15 680.242,314.15 680.242,317.247 683.339,317.247 683.339,320.344 
		680.242,320.344 680.242,323.442 683.339,323.442 683.339,326.539 680.242,326.539 680.242,332.734 683.339,332.734 
		683.339,329.636 686.437,329.636 686.437,326.539 692.631,326.539 692.631,329.636 698.826,329.636 698.826,332.734 
		701.923,332.734 701.923,329.636 705.021,329.636 705.021,335.831 698.826,335.831 698.826,332.734 692.631,332.734 
		692.631,335.831 695.729,335.831 695.729,338.928 698.826,338.928 698.826,342.026 695.729,342.026 695.729,338.928 
		692.631,338.928 692.631,348.22 695.729,348.22 695.729,345.123 701.923,345.123 701.923,342.026 	"/>
	<rect x="339.534" y="295.566" width="3.097" height="3.097"/>
	<rect x="336.437" y="289.371" width="3.097" height="6.195"/>
	<polygon points="686.437,335.831 686.437,342.026 689.534,342.026 689.534,338.928 692.631,338.928 692.631,335.831 	"/>
	<polygon points="339.534,286.274 339.534,280.079 336.437,280.079 336.437,283.176 333.339,283.176 333.339,286.274 
		330.242,286.274 330.242,289.371 336.437,289.371 336.437,286.274 	"/>
	<rect x="364.313" y="270.787" width="3.097" height="3.097"/>
	<rect x="683.339" y="332.734" width="3.097" height="3.097"/>
	<polygon points="348.826,295.566 345.729,295.566 345.729,298.663 351.923,298.663 351.923,289.371 348.826,289.371 	"/>
	<rect x="364.313" y="276.981" width="3.097" height="3.097"/>
	<rect x="370.508" y="264.592" width="6.195" height="3.097"/>
	<rect x="342.631" y="289.371" width="3.097" height="3.097"/>
	<rect x="339.534" y="286.274" width="3.097" height="3.097"/>
	<rect x="370.508" y="280.079" width="3.097" height="3.097"/>
	<rect x="705.021" y="354.415" width="3.097" height="6.195"/>
	<polygon points="324.047,286.274 324.047,283.176 320.95,283.176 320.95,289.371 327.145,289.371 327.145,286.274 	"/>
	<rect x="367.41" y="267.689" width="3.097" height="3.097"/>
	<rect x="376.702" y="261.495" width="3.097" height="3.097"/>
	<rect x="327.145" y="283.176" width="3.097" height="3.097"/>
	<rect x="293.074" y="270.787" width="3.097" height="3.097"/>
	<rect x="311.658" y="283.176" width="3.097" height="3.097"/>
	<rect x="311.658" y="292.468" width="3.097" height="3.097"/>
	<rect x="308.561" y="286.274" width="3.097" height="3.097"/>
	<rect x="299.269" y="286.274" width="3.097" height="3.097"/>
	<rect x="293.074" y="276.981" width="3.097" height="9.292"/>
	<rect x="289.977" y="286.274" width="3.097" height="3.097"/>
	<polygon points="302.366,286.274 305.463,286.274 305.463,283.176 308.561,283.176 308.561,280.079 302.366,280.079 	"/>
	<rect x="320.95" y="295.566" width="3.097" height="3.097"/>
	<rect x="342.631" y="298.663" width="3.097" height="3.097"/>
	<rect x="351.923" y="286.274" width="3.097" height="3.097"/>
	<rect x="314.755" y="286.274" width="3.097" height="6.195"/>
	<rect x="330.242" y="292.468" width="3.097" height="3.097"/>
	<rect x="327.145" y="289.371" width="3.097" height="3.097"/>
	<rect x="345.729" y="307.955" width="3.097" height="3.097"/>
	<rect x="324.047" y="292.468" width="3.097" height="3.097"/>
	<rect x="723.605" y="391.583" width="3.097" height="3.097"/>
	<polygon points="286.879,270.787 286.879,267.689 283.782,267.689 283.782,273.884 289.977,273.884 289.977,270.787 	"/>
	<rect x="286.879" y="264.592" width="3.097" height="3.097"/>
	<rect x="327.145" y="301.76" width="3.097" height="3.097"/>
	<rect x="330.242" y="304.858" width="3.097" height="3.097"/>
	<rect x="289.977" y="273.884" width="3.097" height="3.097"/>
	<rect x="296.171" y="273.884" width="3.097" height="3.097"/>
	<rect x="345.729" y="314.15" width="3.097" height="3.097"/>
	<path d="M754.578,400.875v-3.097h-6.195v-6.195h3.097v-3.097h-3.097v-3.097h-6.195v-6.195h3.097v-3.097h-3.097v-6.195h-3.097
		v-3.097h-3.097v-3.097h-3.097v-3.097H729.8v-6.195h-3.097v-3.097h3.097v-6.195h-9.292v3.097h3.097v6.195h-3.097v3.097h3.097v6.195
		h-3.097v-6.195h-3.097v3.097h-3.097v3.097h3.097v6.195h9.292v3.097h-9.292v3.097h6.195v3.097h6.195v3.097h-6.195v3.097h6.195v3.097
		h3.097v3.097H729.8v3.097h3.097v3.097H729.8v3.097h3.097v15.487H729.8v3.097h3.097v12.389H729.8v3.097h-6.195v3.097h3.097v3.097
		h3.097v-3.097h3.097v3.097H729.8v3.097h-6.195v9.292h-3.097v3.097h3.097v3.097h-3.097v3.097h-6.195v3.097h3.097v9.292h6.195v-6.195
		h6.195v3.097h3.097v-15.487h3.097v6.195h3.097v-3.097h3.097v-3.097h-3.097v-6.195h6.195v-3.097h-3.097v-3.097h3.097v-3.097h-3.097
		v-3.097h3.097v-3.097h3.097v-3.097h-3.097v-6.195h3.097v6.195h3.097v-12.389h3.097v-3.097h-3.097v-3.097h-3.097v-3.097h3.097
		v-6.195h-3.097v-3.097H754.578z M739.092,376.097h-3.097v-3.097h-3.097v3.097H729.8v-3.097h3.097v-3.097h3.097v3.097h3.097V376.097
		z M745.286,391.583h-3.097v-3.097h3.097V391.583z"/>
	<rect x="717.41" y="444.238" width="3.097" height="3.097"/>
	<rect x="293.074" y="242.911" width="3.097" height="3.097"/>
	<rect x="367.41" y="273.884" width="3.097" height="3.097"/>
	<rect x="296.171" y="267.689" width="3.097" height="3.097"/>
	<rect x="289.977" y="267.689" width="3.097" height="3.097"/>
	<rect x="305.463" y="298.663" width="3.097" height="3.097"/>
	<rect x="717.41" y="379.194" width="3.097" height="3.097"/>
	<rect x="711.216" y="366.805" width="3.097" height="3.097"/>
	<rect x="646.171" y="292.468" width="3.097" height="3.097"/>
	<rect x="330.242" y="215.035" width="3.097" height="3.097"/>
	<rect x="649.269" y="295.566" width="6.195" height="3.097"/>
	<rect x="655.463" y="298.663" width="3.097" height="3.097"/>
	<polygon points="333.339,221.229 330.242,221.229 330.242,218.132 327.145,218.132 327.145,224.327 333.339,224.327 	"/>
	<rect x="649.269" y="311.052" width="3.097" height="3.097"/>
	<rect x="643.074" y="289.371" width="3.097" height="3.097"/>
	<rect x="336.437" y="221.229" width="3.097" height="3.097"/>
	<polygon points="661.658,317.247 661.658,314.15 658.561,314.15 658.561,320.344 664.755,320.344 664.755,317.247 	"/>
	<polygon points="639.977,286.274 639.977,289.371 643.074,289.371 643.074,283.176 636.879,283.176 636.879,286.274 	"/>
	<polygon points="664.755,298.663 667.853,298.663 667.853,301.76 674.047,301.76 674.047,298.663 670.95,298.663 670.95,295.566 
		661.658,295.566 661.658,301.76 664.755,301.76 	"/>
	<rect x="658.561" y="301.76" width="3.097" height="3.097"/>
	<rect x="336.437" y="215.035" width="3.097" height="3.097"/>
	<rect x="655.463" y="311.052" width="3.097" height="3.097"/>
	<polygon points="342.631,221.229 342.631,224.327 345.729,224.327 345.729,221.229 348.826,221.229 348.826,218.132 
		339.534,218.132 339.534,221.229 	"/>
	<rect x="355.021" y="289.371" width="3.097" height="6.195"/>
	<rect x="296.171" y="246.008" width="3.097" height="3.097"/>
	<rect x="630.685" y="298.663" width="6.195" height="3.097"/>
	<polygon points="621.393,292.468 618.295,292.468 618.295,298.663 621.393,298.663 621.393,301.76 624.49,301.76 624.49,295.566 
		621.393,295.566 	"/>
	<rect x="636.879" y="301.76" width="3.097" height="3.097"/>
	<rect x="627.587" y="295.566" width="3.097" height="3.097"/>
	<rect x="624.49" y="292.468" width="3.097" height="3.097"/>
	<polygon points="299.269,246.008 302.366,246.008 302.366,242.911 305.463,242.911 305.463,239.813 296.171,239.813 
		296.171,242.911 299.269,242.911 	"/>
	<rect x="320.95" y="227.424" width="3.097" height="3.097"/>
	<rect x="624.49" y="286.274" width="3.097" height="3.097"/>
	<rect x="324.047" y="224.327" width="3.097" height="3.097"/>
	<rect x="627.587" y="283.176" width="3.097" height="3.097"/>
	<rect x="639.977" y="304.858" width="3.097" height="3.097"/>
	<rect x="686.437" y="329.636" width="6.195" height="3.097"/>
	<rect x="621.393" y="289.371" width="3.097" height="3.097"/>
	<polygon points="646.171,304.858 646.171,307.955 643.074,307.955 643.074,311.052 649.269,311.052 649.269,304.858 	"/>
	<rect x="364.313" y="261.495" width="3.097" height="3.097"/>
	<rect x="401.481" y="273.884" width="3.097" height="3.097"/>
	<rect x="404.578" y="276.981" width="3.097" height="3.097"/>
	<rect x="361.215" y="264.592" width="3.097" height="3.097"/>
	<rect x="367.41" y="246.008" width="3.097" height="3.097"/>
	<rect x="370.508" y="252.203" width="3.097" height="3.097"/>
	<rect x="367.41" y="258.397" width="6.195" height="3.097"/>
	<polygon points="361.215,258.397 358.118,258.397 358.118,252.203 351.923,252.203 351.923,258.397 355.021,258.397 
		355.021,261.495 358.118,261.495 358.118,264.592 361.215,264.592 	"/>
	<polygon points="389.092,267.689 392.189,267.689 392.189,270.787 395.286,270.787 395.286,264.592 389.092,264.592 	"/>
	<rect x="395.286" y="261.495" width="3.097" height="3.097"/>
	<rect x="395.286" y="276.981" width="3.097" height="6.195"/>
	<rect x="404.578" y="561.937" width="3.097" height="3.097"/>
	<rect x="410.773" y="273.884" width="3.097" height="3.097"/>
	<rect x="401.481" y="267.689" width="6.195" height="3.097"/>
	<rect x="670.95" y="320.344" width="3.097" height="3.097"/>
	<path d="M296.171,255.3h3.097v3.097h3.097v3.097h-3.097v-3.097h-3.097v3.097h-6.195v3.097h3.097v3.097h3.097v-3.097h6.195v6.195
		h-3.097v3.097h3.097v3.097h6.195v-3.097h-3.097v-6.195h3.097v-3.097h3.097v3.097h-3.097v6.195h3.097v-3.097h3.097v3.097h-3.097
		v3.097h3.097v6.195h6.195v-3.097h3.097v3.097h3.097v-6.195h3.097v-3.097h3.097v3.097h-3.097v6.195h3.097v-3.097h3.097v-6.195h3.097
		v6.195h3.097v-3.097h3.097v3.097h-3.097v3.097h3.097v6.195h3.097v-3.097h3.097v-3.097h-3.097v-3.097h3.097v3.097h6.195v-3.097
		h-3.097v-3.097h6.195v-3.097h-6.195v-3.097h6.195v-3.097h-3.097v-3.097h-3.097v3.097h-3.097v-3.097h3.097v-3.097h-3.097v-3.097
		h-3.097V255.3h-3.097v-3.097h6.195v-3.097h6.195v-6.195h-6.195v3.097h-6.195v-3.097h3.097v-3.097h3.097v-6.195h-3.097v3.097h-3.097
		v-9.292h-3.097v-3.097h-3.097v3.097h-3.097v3.097h-3.097v-3.097h-6.195v3.097h-3.097v3.097h9.292v6.195h-3.097v-3.097h-6.195
		v-3.097h-3.097v-3.097h-3.097v3.097h-3.097v6.195h3.097v-3.097h3.097v3.097h-3.097v6.195h-3.097v-6.195h-3.097v-6.195h-6.195v3.097
		h3.097v6.195h-3.097v3.097h-3.097v6.195h-6.195v-3.097h-3.097v6.195h-3.097v3.097h6.195V255.3z M348.826,270.787h3.097v6.195
		h-3.097V270.787z M324.047,270.787h-3.097v-3.097h3.097V270.787z M324.047,264.592h-3.097v-3.097h3.097V264.592z M345.729,273.884
		h-3.097v-3.097h3.097V273.884z M345.729,261.495v3.097h-3.097v3.097h-3.097v-3.097h3.097v-3.097H345.729z M339.534,230.521h3.097
		v3.097h-3.097V230.521z M339.534,236.716h3.097v3.097h-3.097V236.716z M336.437,246.008h3.097v3.097h-3.097V246.008z
		 M336.437,258.397h3.097v3.097h-3.097V258.397z M330.242,252.203h3.097v3.097h-3.097V252.203z M330.242,264.592h3.097v3.097h3.097
		v3.097h-3.097v-3.097h-3.097v3.097h-3.097v-3.097h3.097V264.592z M320.95,242.911h3.097v-3.097h3.097v3.097h-3.097v3.097h-3.097
		V242.911z M317.853,252.203h3.097v3.097h-3.097V252.203z M317.853,273.884h6.195v3.097h-6.195V273.884z M314.755,261.495h-3.097
		v-3.097h3.097V261.495z M314.755,252.203v3.097h-3.097v-3.097H314.755z M308.561,246.008h3.097v3.097h-3.097V246.008z
		 M305.463,252.203h3.097v3.097h-3.097V252.203z M305.463,258.397h3.097v3.097h-3.097V258.397z"/>
	<rect x="677.145" y="304.858" width="3.097" height="3.097"/>
	<rect x="333.339" y="224.327" width="3.097" height="3.097"/>
	<polygon points="289.977,261.495 289.977,258.397 286.879,258.397 286.879,255.3 283.782,255.3 283.782,261.495 	"/>
	<rect x="333.339" y="218.132" width="3.097" height="3.097"/>
	<rect x="667.853" y="317.247" width="3.097" height="3.097"/>
	<rect x="674.047" y="301.76" width="3.097" height="3.097"/>
	<rect x="674.047" y="323.442" width="6.195" height="3.097"/>
	<rect x="280.685" y="261.495" width="3.097" height="3.097"/>
	<rect x="361.215" y="252.203" width="3.097" height="6.195"/>
	<rect x="364.313" y="249.105" width="3.097" height="3.097"/>
	<rect x="277.587" y="249.105" width="3.097" height="3.097"/>
	<rect x="358.118" y="249.105" width="3.097" height="3.097"/>
	<rect x="280.685" y="252.203" width="3.097" height="3.097"/>
	<polygon points="348.826,227.424 348.826,230.521 351.923,230.521 351.923,224.327 345.729,224.327 345.729,227.424 	"/>
	<rect x="509.888" y="227.424" width="3.097" height="3.097"/>
	<rect x="506.791" y="233.619" width="3.097" height="3.097"/>
	<rect x="512.985" y="218.132" width="3.097" height="3.097"/>
	<polygon points="528.472,249.105 528.472,246.008 531.569,246.008 531.569,242.911 525.375,242.911 525.375,249.105 	"/>
	<rect x="531.569" y="246.008" width="3.097" height="3.097"/>
	<rect x="358.118" y="283.176" width="3.097" height="3.097"/>
	<rect x="497.499" y="236.716" width="3.097" height="3.097"/>
	<rect x="500.596" y="233.619" width="3.097" height="3.097"/>
	<rect x="500.596" y="221.229" width="3.097" height="3.097"/>
	<polygon points="512.985,246.008 512.985,236.716 509.888,236.716 509.888,242.911 506.791,242.911 506.791,246.008 	"/>
	<rect x="503.693" y="239.813" width="3.097" height="3.097"/>
	<rect x="537.764" y="246.008" width="6.195" height="6.195"/>
	<rect x="547.056" y="246.008" width="3.097" height="3.097"/>
	<rect x="537.764" y="233.619" width="6.195" height="3.097"/>
	<rect x="540.862" y="221.229" width="3.097" height="3.097"/>
	<rect x="519.18" y="236.716" width="3.097" height="3.097"/>
	<rect x="547.056" y="239.813" width="3.097" height="3.097"/>
	<rect x="553.251" y="246.008" width="3.097" height="3.097"/>
	<rect x="540.862" y="239.813" width="3.097" height="3.097"/>
	<rect x="522.277" y="233.619" width="3.097" height="3.097"/>
	<rect x="519.18" y="221.229" width="3.097" height="3.097"/>
	<rect x="491.304" y="224.327" width="3.097" height="3.097"/>
	<rect x="528.472" y="236.716" width="3.097" height="3.097"/>
	<rect x="556.348" y="233.619" width="3.097" height="6.195"/>
	<rect x="451.039" y="230.521" width="3.097" height="3.097"/>
	<rect x="441.746" y="215.035" width="3.097" height="3.097"/>
	<rect x="447.941" y="221.229" width="3.097" height="6.195"/>
	<rect x="454.136" y="218.132" width="3.097" height="3.097"/>
	<rect x="432.454" y="230.521" width="6.195" height="3.097"/>
	<rect x="432.454" y="224.327" width="6.195" height="3.097"/>
	<rect x="426.26" y="233.619" width="3.097" height="3.097"/>
	<rect x="429.357" y="236.716" width="6.195" height="3.097"/>
	<rect x="485.109" y="218.132" width="3.097" height="3.097"/>
	<rect x="429.357" y="221.229" width="3.097" height="3.097"/>
	<rect x="441.746" y="224.327" width="3.097" height="3.097"/>
	<rect x="457.233" y="227.424" width="3.097" height="3.097"/>
	<rect x="472.72" y="236.716" width="6.195" height="3.097"/>
	<rect x="478.915" y="239.813" width="6.195" height="3.097"/>
	<rect x="475.817" y="221.229" width="3.097" height="3.097"/>
	<rect x="482.012" y="233.619" width="3.097" height="3.097"/>
	<rect x="482.012" y="227.424" width="3.097" height="3.097"/>
	<rect x="460.331" y="233.619" width="3.097" height="3.097"/>
	<rect x="460.331" y="221.229" width="3.097" height="3.097"/>
	<rect x="469.623" y="230.521" width="3.097" height="3.097"/>
	<rect x="475.817" y="230.521" width="3.097" height="3.097"/>
	<rect x="466.525" y="227.424" width="3.097" height="3.097"/>
	<rect x="454.136" y="233.619" width="3.097" height="6.195"/>
	<rect x="559.446" y="246.008" width="3.097" height="3.097"/>
	<rect x="661.658" y="270.787" width="3.097" height="3.097"/>
	<rect x="652.366" y="273.884" width="3.097" height="3.097"/>
	<rect x="670.95" y="280.079" width="3.097" height="3.097"/>
	<rect x="677.145" y="286.274" width="3.097" height="3.097"/>
	<rect x="646.171" y="273.884" width="3.097" height="3.097"/>
	<rect x="636.879" y="267.689" width="3.097" height="3.097"/>
	<rect x="646.171" y="267.689" width="3.097" height="3.097"/>
	<rect x="639.977" y="264.592" width="3.097" height="3.097"/>
	<rect x="646.171" y="280.079" width="3.097" height="6.195"/>
	<rect x="689.534" y="295.566" width="3.097" height="3.097"/>
	<rect x="639.977" y="273.884" width="3.097" height="3.097"/>
	<rect x="714.313" y="314.15" width="3.097" height="3.097"/>
	<rect x="723.605" y="338.928" width="3.097" height="3.097"/>
	<rect x="726.702" y="332.734" width="3.097" height="3.097"/>
	<rect x="723.605" y="326.539" width="3.097" height="3.097"/>
	<rect x="732.897" y="338.928" width="3.097" height="3.097"/>
	<rect x="695.729" y="301.76" width="3.097" height="3.097"/>
	<rect x="701.923" y="307.955" width="3.097" height="3.097"/>
	<rect x="705.021" y="311.052" width="3.097" height="3.097"/>
	<rect x="711.216" y="320.344" width="3.097" height="3.097"/>
	<rect x="714.313" y="323.442" width="3.097" height="3.097"/>
	<rect x="670.95" y="286.274" width="3.097" height="3.097"/>
	<rect x="571.835" y="230.521" width="3.097" height="3.097"/>
	<rect x="581.127" y="258.397" width="3.097" height="3.097"/>
	<rect x="587.322" y="258.397" width="3.097" height="3.097"/>
	<rect x="581.127" y="249.105" width="3.097" height="3.097"/>
	<rect x="584.224" y="252.203" width="3.097" height="6.195"/>
	<polygon points="571.835,258.397 571.835,252.203 568.738,252.203 568.738,255.3 565.64,255.3 565.64,258.397 	"/>
	<rect x="571.835" y="242.911" width="3.097" height="3.097"/>
	<rect x="562.543" y="249.105" width="3.097" height="6.195"/>
	<rect x="587.322" y="246.008" width="3.097" height="3.097"/>
	<rect x="571.835" y="249.105" width="3.097" height="3.097"/>
	<rect x="565.64" y="239.813" width="3.097" height="3.097"/>
	<rect x="590.419" y="252.203" width="3.097" height="3.097"/>
	<rect x="621.393" y="264.592" width="3.097" height="6.195"/>
	<rect x="621.393" y="252.203" width="3.097" height="3.097"/>
	<rect x="621.393" y="273.884" width="9.292" height="3.097"/>
	<rect x="627.587" y="267.689" width="3.097" height="3.097"/>
	<rect x="618.295" y="258.397" width="3.097" height="3.097"/>
	<rect x="593.516" y="246.008" width="3.097" height="3.097"/>
	<rect x="590.419" y="239.813" width="3.097" height="3.097"/>
	<rect x="627.587" y="258.397" width="3.097" height="3.097"/>
	<rect x="615.198" y="267.689" width="3.097" height="6.195"/>
	<rect x="612.1" y="249.105" width="3.097" height="3.097"/>
	<rect x="522.277" y="239.813" width="3.097" height="3.097"/>
	<rect x="392.189" y="239.813" width="6.195" height="3.097"/>
	<rect x="348.826" y="215.035" width="3.097" height="3.097"/>
	<rect x="333.339" y="211.937" width="3.097" height="3.097"/>
	<rect x="376.702" y="233.619" width="3.097" height="3.097"/>
	<rect x="345.729" y="208.84" width="3.097" height="6.195"/>
	<rect x="385.994" y="242.911" width="3.097" height="3.097"/>
	<rect x="426.26" y="227.424" width="3.097" height="3.097"/>
	<rect x="324.047" y="215.035" width="3.097" height="3.097"/>
	<rect x="373.605" y="239.813" width="6.195" height="3.097"/>
	<rect x="379.8" y="236.716" width="3.097" height="3.097"/>
	<rect x="370.508" y="242.911" width="3.097" height="3.097"/>
	<rect x="293.074" y="295.566" width="3.097" height="3.097"/>
	<rect x="286.879" y="242.911" width="3.097" height="3.097"/>
	<rect x="324.047" y="208.84" width="3.097" height="3.097"/>
	<rect x="286.879" y="249.105" width="3.097" height="3.097"/>
	<rect x="289.977" y="246.008" width="3.097" height="3.097"/>
	<rect x="280.685" y="239.813" width="3.097" height="3.097"/>
	<rect x="283.782" y="246.008" width="3.097" height="3.097"/>
	<rect x="320.95" y="211.937" width="3.097" height="3.097"/>
	<rect x="320.95" y="221.229" width="3.097" height="3.097"/>
	<rect x="311.658" y="230.521" width="3.097" height="3.097"/>
	<rect x="289.977" y="236.716" width="6.195" height="3.097"/>
	<rect x="311.658" y="224.327" width="9.292" height="3.097"/>
	<rect x="398.384" y="255.3" width="6.195" height="3.097"/>
	<rect x="389.092" y="249.105" width="6.195" height="3.097"/>
	<rect x="379.8" y="255.3" width="3.097" height="3.097"/>
	<rect x="389.092" y="255.3" width="6.195" height="3.097"/>
	<rect x="395.286" y="252.203" width="3.097" height="3.097"/>
	<rect x="286.879" y="230.521" width="3.097" height="3.097"/>
	<polygon points="382.897,264.592 385.994,264.592 385.994,261.495 389.092,261.495 389.092,258.397 382.897,258.397 	"/>
	<rect x="373.605" y="255.3" width="3.097" height="3.097"/>
	<polygon points="379.8,252.203 379.8,249.105 376.702,249.105 376.702,246.008 373.605,246.008 373.605,252.203 	"/>
	<polygon points="382.897,252.203 385.994,252.203 385.994,246.008 379.8,246.008 379.8,249.105 382.897,249.105 	"/>
	<rect x="578.03" y="264.592" width="3.097" height="3.097"/>
	<rect x="385.994" y="252.203" width="3.097" height="3.097"/>
	<rect x="407.676" y="236.716" width="3.097" height="6.195"/>
	<rect x="410.773" y="242.911" width="3.097" height="3.097"/>
	<polygon points="426.26,239.813 420.065,239.813 420.065,242.911 423.162,242.911 423.162,246.008 426.26,246.008 	"/>
	<polygon points="401.481,242.911 398.384,242.911 398.384,246.008 395.286,246.008 395.286,249.105 401.481,249.105 	"/>
	<polygon points="407.676,261.495 401.481,261.495 401.481,264.592 410.773,264.592 410.773,261.495 413.87,261.495 413.87,258.397 
		407.676,258.397 	"/>
	<rect x="404.578" y="246.008" width="3.097" height="3.097"/>
	<rect x="416.968" y="252.203" width="3.097" height="3.097"/>
	<rect x="413.87" y="255.3" width="3.097" height="3.097"/>
	<polygon points="420.065,252.203 423.162,252.203 423.162,246.008 413.87,246.008 413.87,249.105 420.065,249.105 	"/>
	<polygon points="410.773,255.3 410.773,252.203 413.87,252.203 413.87,249.105 407.676,249.105 407.676,255.3 	"/>
	<rect x="401.481" y="249.105" width="3.097" height="3.097"/>
	<rect x="385.994" y="236.716" width="6.195" height="3.097"/>
	<rect x="398.384" y="211.937" width="3.097" height="3.097"/>
	<polygon points="382.897,233.619 389.092,233.619 389.092,230.521 385.994,230.521 385.994,227.424 382.897,227.424 	"/>
	<rect x="395.286" y="221.229" width="3.097" height="3.097"/>
	<rect x="379.8" y="218.132" width="3.097" height="3.097"/>
	<rect x="367.41" y="230.521" width="3.097" height="3.097"/>
	<rect x="385.994" y="224.327" width="3.097" height="3.097"/>
	<rect x="361.215" y="218.132" width="3.097" height="3.097"/>
	<rect x="376.702" y="224.327" width="3.097" height="3.097"/>
	<rect x="364.313" y="227.424" width="3.097" height="3.097"/>
	<rect x="367.41" y="221.229" width="3.097" height="3.097"/>
	<rect x="367.41" y="211.937" width="3.097" height="3.097"/>
	<rect x="395.286" y="233.619" width="3.097" height="3.097"/>
	<polygon points="420.065,230.521 420.065,227.424 413.87,227.424 413.87,233.619 416.968,233.619 416.968,230.521 	"/>
	<rect x="413.87" y="236.716" width="3.097" height="3.097"/>
	<rect x="398.384" y="227.424" width="3.097" height="3.097"/>
	<rect x="416.968" y="233.619" width="3.097" height="3.097"/>
	<rect x="423.162" y="221.229" width="3.097" height="3.097"/>
	<rect x="410.773" y="215.035" width="3.097" height="3.097"/>
	<rect x="404.578" y="224.327" width="3.097" height="3.097"/>
	<rect x="407.676" y="218.132" width="3.097" height="3.097"/>
	<rect x="401.481" y="233.619" width="3.097" height="6.195"/>
	<rect x="407.676" y="230.521" width="3.097" height="3.097"/>
	<rect x="342.631" y="199.548" width="3.097" height="3.097"/>
	<rect x="311.658" y="205.743" width="3.097" height="3.097"/>
	<rect x="314.755" y="215.035" width="3.097" height="6.195"/>
	<rect x="317.853" y="196.451" width="3.097" height="3.097"/>
	<rect x="317.853" y="202.645" width="3.097" height="3.097"/>
	<rect x="308.561" y="218.132" width="3.097" height="3.097"/>
	<rect x="333.339" y="205.743" width="3.097" height="3.097"/>
	<rect x="293.074" y="230.521" width="3.097" height="3.097"/>
	<rect x="299.269" y="233.619" width="3.097" height="3.097"/>
	<rect x="296.171" y="227.424" width="6.195" height="3.097"/>
	<rect x="299.269" y="221.229" width="3.097" height="3.097"/>
	<rect x="305.463" y="227.424" width="3.097" height="3.097"/>
	<rect x="367.41" y="236.716" width="3.097" height="3.097"/>
	<rect x="355.021" y="227.424" width="3.097" height="3.097"/>
	<rect x="348.826" y="196.451" width="3.097" height="3.097"/>
	<rect x="330.242" y="202.645" width="3.097" height="3.097"/>
	<rect x="361.215" y="230.521" width="3.097" height="3.097"/>
	<rect x="361.215" y="236.716" width="3.097" height="9.292"/>
	<rect x="355.021" y="233.619" width="3.097" height="6.195"/>
	<rect x="336.437" y="196.451" width="3.097" height="3.097"/>
	<rect x="289.977" y="221.229" width="3.097" height="3.097"/>
	<rect x="339.534" y="202.645" width="3.097" height="9.292"/>
	<rect x="339.534" y="184.061" width="3.097" height="3.097"/>
	<rect x="506.791" y="264.592" width="3.097" height="6.195"/>
	<polygon points="451.039,252.203 451.039,255.3 454.136,255.3 454.136,258.397 457.233,258.397 457.233,252.203 	"/>
	<rect x="447.941" y="249.105" width="3.097" height="3.097"/>
	<polygon points="432.454,258.397 435.552,258.397 435.552,255.3 438.649,255.3 438.649,252.203 432.454,252.203 	"/>
	<rect x="438.649" y="249.105" width="6.195" height="3.097"/>
	<rect x="463.428" y="255.3" width="6.195" height="3.097"/>
	<rect x="441.746" y="242.911" width="6.195" height="3.097"/>
	<rect x="420.065" y="273.884" width="3.097" height="3.097"/>
	<rect x="423.162" y="270.787" width="3.097" height="3.097"/>
	<rect x="429.357" y="258.397" width="3.097" height="6.195"/>
	<rect x="460.331" y="252.203" width="3.097" height="3.097"/>
	<rect x="491.304" y="258.397" width="3.097" height="3.097"/>
	<rect x="420.065" y="267.689" width="3.097" height="3.097"/>
	<rect x="454.136" y="264.592" width="3.097" height="3.097"/>
	<polygon points="444.844,270.787 451.039,270.787 451.039,267.689 447.941,267.689 447.941,264.592 444.844,264.592 	"/>
	<rect x="482.012" y="258.397" width="3.097" height="3.097"/>
	<rect x="475.817" y="267.689" width="3.097" height="6.195"/>
	<rect x="444.844" y="252.203" width="3.097" height="3.097"/>
	<polygon points="451.039,261.495 451.039,258.397 447.941,258.397 447.941,264.592 454.136,264.592 454.136,261.495 	"/>
	<polygon points="441.746,258.397 438.649,258.397 438.649,261.495 444.844,261.495 444.844,255.3 441.746,255.3 	"/>
	<rect x="426.26" y="264.592" width="3.097" height="3.097"/>
	<polygon points="457.233,264.592 460.331,264.592 460.331,261.495 463.428,261.495 463.428,258.397 457.233,258.397 	"/>
	<polygon points="475.817,264.592 478.915,264.592 478.915,267.689 482.012,267.689 482.012,261.495 475.817,261.495 	"/>
	<rect x="475.817" y="246.008" width="3.097" height="3.097"/>
	<rect x="478.915" y="249.105" width="3.097" height="3.097"/>
	<rect x="469.623" y="242.911" width="6.195" height="3.097"/>
	<rect x="460.331" y="239.813" width="9.292" height="3.097"/>
	<rect x="410.773" y="267.689" width="3.097" height="3.097"/>
	<rect x="482.012" y="246.008" width="6.195" height="3.097"/>
	<rect x="463.428" y="249.105" width="6.195" height="3.097"/>
	<rect x="494.401" y="242.911" width="6.195" height="3.097"/>
	<rect x="491.304" y="239.813" width="3.097" height="3.097"/>
	<polygon points="494.401,236.716 494.401,233.619 488.207,233.619 488.207,239.813 491.304,239.813 491.304,236.716 	"/>
	<polygon points="475.817,252.203 469.623,252.203 469.623,255.3 472.72,255.3 472.72,258.397 482.012,258.397 482.012,255.3 
		475.817,255.3 	"/>
	<rect x="432.454" y="242.911" width="6.195" height="3.097"/>
	<rect x="426.26" y="249.105" width="3.097" height="6.195"/>
	<rect x="429.357" y="246.008" width="3.097" height="3.097"/>
	<rect x="413.87" y="264.592" width="6.195" height="3.097"/>
	<polygon points="423.162,258.397 420.065,258.397 420.065,264.592 423.162,264.592 423.162,261.495 426.26,261.495 426.26,255.3 
		423.162,255.3 	"/>
	<rect x="451.039" y="242.911" width="6.195" height="3.097"/>
	<rect x="438.649" y="239.813" width="3.097" height="3.097"/>
	<rect x="447.941" y="236.716" width="3.097" height="6.195"/>
	<rect x="457.233" y="246.008" width="6.195" height="3.097"/>
	<rect x="441.746" y="233.619" width="3.097" height="6.195"/>
	<rect x="516.083" y="258.397" width="3.097" height="3.097"/>
	<rect x="553.251" y="280.079" width="3.097" height="3.097"/>
	<polygon points="547.056,276.981 547.056,270.787 543.959,270.787 543.959,273.884 534.667,273.884 534.667,276.981 	"/>
	<rect x="565.64" y="286.274" width="3.097" height="3.097"/>
	<rect x="550.154" y="276.981" width="3.097" height="3.097"/>
	<rect x="581.127" y="283.176" width="3.097" height="3.097"/>
	<rect x="556.348" y="276.981" width="3.097" height="3.097"/>
	<rect x="540.862" y="261.495" width="3.097" height="3.097"/>
	<rect x="540.862" y="267.689" width="3.097" height="3.097"/>
	<rect x="584.224" y="286.274" width="3.097" height="3.097"/>
	<rect x="547.056" y="264.592" width="3.097" height="3.097"/>
	<rect x="543.959" y="280.079" width="6.195" height="3.097"/>
	<polygon points="621.393,304.858 621.393,307.955 627.587,307.955 627.587,301.76 624.49,301.76 624.49,304.858 	"/>
	<rect x="615.198" y="298.663" width="3.097" height="3.097"/>
	<rect x="618.295" y="307.955" width="3.097" height="3.097"/>
	<rect x="633.782" y="304.858" width="3.097" height="3.097"/>
	<rect x="612.1" y="292.468" width="3.097" height="3.097"/>
	<rect x="590.419" y="283.176" width="3.097" height="3.097"/>
	<rect x="596.614" y="295.566" width="6.195" height="3.097"/>
	<rect x="593.516" y="289.371" width="3.097" height="3.097"/>
	<rect x="587.322" y="292.468" width="6.195" height="3.097"/>
	<polygon points="605.906,289.371 605.906,292.468 602.808,292.468 602.808,295.566 609.003,295.566 609.003,292.468 612.1,292.468 
		612.1,289.371 	"/>
	<polygon points="512.985,273.884 516.083,273.884 516.083,276.981 519.18,276.981 519.18,270.787 512.985,270.787 	"/>
	<rect x="500.596" y="273.884" width="3.097" height="3.097"/>
	<rect x="503.693" y="270.787" width="3.097" height="3.097"/>
	<rect x="506.791" y="258.397" width="3.097" height="3.097"/>
	<rect x="701.923" y="317.247" width="3.097" height="3.097"/>
	<polygon points="500.596,267.689 500.596,264.592 494.401,264.592 494.401,267.689 497.499,267.689 497.499,270.787 
		503.693,270.787 503.693,267.689 	"/>
	<rect x="506.791" y="273.884" width="3.097" height="3.097"/>
	<rect x="485.109" y="264.592" width="3.097" height="3.097"/>
	<rect x="488.207" y="267.689" width="3.097" height="3.097"/>
	<rect x="491.304" y="270.787" width="3.097" height="6.195"/>
	<rect x="503.693" y="261.495" width="3.097" height="3.097"/>
	<rect x="531.569" y="270.787" width="3.097" height="3.097"/>
	<rect x="522.277" y="270.787" width="3.097" height="6.195"/>
	<rect x="512.985" y="276.981" width="3.097" height="3.097"/>
	<rect x="488.207" y="261.495" width="3.097" height="3.097"/>
	<rect x="531.569" y="276.981" width="3.097" height="3.097"/>
	<rect x="525.375" y="276.981" width="3.097" height="3.097"/>
	<rect x="519.18" y="264.592" width="3.097" height="6.195"/>
	<rect x="491.304" y="246.008" width="3.097" height="3.097"/>
	<rect x="519.18" y="255.3" width="3.097" height="3.097"/>
	<rect x="512.985" y="255.3" width="3.097" height="3.097"/>
	<rect x="512.985" y="261.495" width="3.097" height="6.195"/>
	<rect x="683.339" y="295.566" width="3.097" height="3.097"/>
	<rect x="599.711" y="273.884" width="3.097" height="3.097"/>
	<rect x="602.808" y="276.981" width="3.097" height="3.097"/>
	<rect x="739.092" y="363.707" width="3.097" height="3.097"/>
	<rect x="599.711" y="280.079" width="3.097" height="3.097"/>
	<rect x="602.808" y="261.495" width="3.097" height="3.097"/>
	<rect x="602.808" y="270.787" width="3.097" height="3.097"/>
	<polygon points="599.711,283.176 596.614,283.176 596.614,289.371 602.808,289.371 602.808,286.274 599.711,286.274 	"/>
	<rect x="732.897" y="357.512" width="3.097" height="3.097"/>
	<polygon points="599.711,280.079 599.711,276.981 593.516,276.981 593.516,283.176 596.614,283.176 596.614,280.079 	"/>
	<rect x="739.092" y="357.512" width="3.097" height="3.097"/>
	<rect x="593.516" y="258.397" width="3.097" height="3.097"/>
	<rect x="605.906" y="258.397" width="3.097" height="3.097"/>
	<rect x="605.906" y="267.689" width="3.097" height="3.097"/>
	<rect x="596.614" y="261.495" width="3.097" height="3.097"/>
	<rect x="596.614" y="255.3" width="3.097" height="3.097"/>
	<rect x="599.711" y="252.203" width="3.097" height="3.097"/>
	<rect x="599.711" y="264.592" width="3.097" height="6.195"/>
	<rect x="612.1" y="276.981" width="6.195" height="6.195"/>
	<rect x="729.8" y="351.318" width="3.097" height="3.097"/>
	<rect x="618.295" y="283.176" width="3.097" height="3.097"/>
	<rect x="609.003" y="261.495" width="3.097" height="6.195"/>
	<rect x="609.003" y="270.787" width="3.097" height="6.195"/>
	<rect x="655.463" y="292.468" width="3.097" height="3.097"/>
	<rect x="602.808" y="283.176" width="3.097" height="3.097"/>
	<rect x="674.047" y="292.468" width="3.097" height="3.097"/>
	<rect x="661.658" y="283.176" width="3.097" height="3.097"/>
	<rect x="664.755" y="286.274" width="3.097" height="3.097"/>
	<rect x="677.145" y="295.566" width="3.097" height="3.097"/>
	<rect x="695.729" y="307.955" width="3.097" height="6.195"/>
	<rect x="630.685" y="307.955" width="3.097" height="3.097"/>
	<rect x="649.269" y="289.371" width="3.097" height="3.097"/>
	<rect x="680.242" y="298.663" width="3.097" height="3.097"/>
	<rect x="658.561" y="289.371" width="6.195" height="3.097"/>
	<rect x="609.003" y="283.176" width="3.097" height="3.097"/>
	<rect x="717.41" y="332.734" width="6.195" height="3.097"/>
	<rect x="714.313" y="329.636" width="3.097" height="3.097"/>
	<rect x="605.906" y="280.079" width="3.097" height="3.097"/>
	<rect x="732.897" y="348.22" width="3.097" height="3.097"/>
	<rect x="705.021" y="320.344" width="3.097" height="3.097"/>
	<polygon points="636.879,273.884 633.782,273.884 633.782,280.079 630.685,280.079 630.685,283.176 636.879,283.176 	"/>
	<rect x="624.49" y="280.079" width="3.097" height="3.097"/>
	<polygon points="612.1,286.274 612.1,289.371 615.198,289.371 615.198,292.468 618.295,292.468 618.295,286.274 	"/>
	<rect x="652.366" y="283.176" width="3.097" height="6.195"/>
	<polygon points="531.569,261.495 531.569,258.397 522.277,258.397 522.277,264.592 525.375,264.592 525.375,261.495 	"/>
	<rect x="528.472" y="252.203" width="6.195" height="3.097"/>
	<rect x="534.667" y="255.3" width="3.097" height="3.097"/>
	<polygon points="553.251,267.689 550.154,267.689 550.154,273.884 556.348,273.884 556.348,270.787 553.251,270.787 	"/>
	<polygon points="531.569,264.592 534.667,264.592 534.667,270.787 537.764,270.787 537.764,261.495 531.569,261.495 	"/>
	<rect x="528.472" y="267.689" width="3.097" height="3.097"/>
	<rect x="550.154" y="261.495" width="6.195" height="3.097"/>
	<rect x="540.862" y="255.3" width="3.097" height="3.097"/>
	<rect x="525.375" y="264.592" width="3.097" height="3.097"/>
	<polygon points="553.251,252.203 547.056,252.203 547.056,255.3 550.154,255.3 550.154,258.397 553.251,258.397 	"/>
	<rect x="543.959" y="258.397" width="6.195" height="3.097"/>
	<rect x="537.764" y="258.397" width="3.097" height="3.097"/>
	<rect x="500.596" y="249.105" width="6.195" height="3.097"/>
	<rect x="500.596" y="258.397" width="3.097" height="3.097"/>
	<rect x="494.401" y="252.203" width="6.195" height="6.195"/>
	<rect x="482.012" y="252.203" width="6.195" height="3.097"/>
	<rect x="488.207" y="255.3" width="3.097" height="3.097"/>
	<rect x="506.791" y="252.203" width="3.097" height="3.097"/>
	<polygon points="519.18,246.008 519.18,249.105 509.888,249.105 509.888,252.203 522.277,252.203 522.277,246.008 	"/>
	<rect x="745.286" y="372.999" width="3.097" height="3.097"/>
	<rect x="503.693" y="255.3" width="3.097" height="3.097"/>
	<rect x="488.207" y="249.105" width="3.097" height="3.097"/>
	<rect x="522.277" y="252.203" width="3.097" height="3.097"/>
	<rect x="593.516" y="270.787" width="3.097" height="3.097"/>
	<rect x="584.224" y="276.981" width="6.195" height="6.195"/>
	<rect x="735.994" y="360.61" width="3.097" height="3.097"/>
	<polygon points="581.127,273.884 581.127,270.787 574.932,270.787 574.932,276.981 578.03,276.981 578.03,273.884 	"/>
	<rect x="578.03" y="276.981" width="3.097" height="6.195"/>
	<rect x="745.286" y="379.194" width="3.097" height="3.097"/>
	<rect x="581.127" y="273.884" width="3.097" height="3.097"/>
	<polygon points="590.419,267.689 590.419,270.787 593.516,270.787 593.516,264.592 584.224,264.592 584.224,270.787 
		587.322,270.787 587.322,267.689 	"/>
	<rect x="590.419" y="273.884" width="3.097" height="3.097"/>
	<rect x="587.322" y="270.787" width="3.097" height="3.097"/>
	<rect x="556.348" y="264.592" width="3.097" height="6.195"/>
	<polygon points="571.835,283.176 568.738,283.176 568.738,286.274 574.932,286.274 574.932,276.981 571.835,276.981 	"/>
	<rect x="559.446" y="270.787" width="3.097" height="6.195"/>
	<polygon points="565.64,261.495 562.543,261.495 562.543,258.397 559.446,258.397 559.446,264.592 565.64,264.592 	"/>
	<rect x="574.932" y="258.397" width="3.097" height="3.097"/>
	<rect x="556.348" y="252.203" width="3.097" height="6.195"/>
	<rect x="562.543" y="267.689" width="6.195" height="3.097"/>
	<polygon points="574.932,261.495 568.738,261.495 568.738,264.592 571.835,264.592 571.835,270.787 574.932,270.787 	"/>
	<rect x="565.64" y="273.884" width="3.097" height="3.097"/>
	<rect x="562.543" y="276.981" width="3.097" height="9.292"/>
	<rect x="568.738" y="270.787" width="3.097" height="3.097"/>
	<rect x="441.746" y="561.937" width="3.097" height="3.097"/>
	<rect x="268.295" y="549.548" width="3.097" height="3.097"/>
	<rect x="249.711" y="546.451" width="3.097" height="6.195"/>
	<rect x="234.224" y="543.353" width="3.097" height="3.097"/>
	<rect x="203.251" y="537.158" width="3.097" height="3.097"/>
	<rect x="159.888" y="518.574" width="3.097" height="3.097"/>
	<rect x="444.844" y="549.548" width="3.097" height="3.097"/>
	<rect x="57.676" y="382.291" width="3.097" height="3.097"/>
	<rect x="125.817" y="496.893" width="3.097" height="3.097"/>
	<rect x="382.897" y="561.937" width="3.097" height="3.097"/>
	<rect x="444.844" y="540.256" width="3.097" height="3.097"/>
	<rect x="376.702" y="565.035" width="3.097" height="3.097"/>
	<rect x="85.552" y="354.415" width="3.097" height="3.097"/>
	<rect x="107.233" y="481.406" width="3.097" height="3.097"/>
	<polygon points="66.968,363.707 66.968,369.902 70.065,369.902 70.065,366.805 73.162,366.805 73.162,363.707 	"/>
	<rect x="91.746" y="357.512" width="6.195" height="3.097"/>
	<rect x="85.552" y="345.123" width="3.097" height="3.097"/>
	<rect x="82.454" y="348.22" width="3.097" height="6.195"/>
	<rect x="79.357" y="397.778" width="3.097" height="3.097"/>
	<rect x="104.136" y="478.309" width="3.097" height="3.097"/>
	<rect x="91.746" y="372.999" width="3.097" height="3.097"/>
	<rect x="88.649" y="369.902" width="3.097" height="3.097"/>
	<rect x="271.392" y="552.645" width="3.097" height="3.097"/>
	<rect x="664.755" y="307.955" width="3.097" height="3.097"/>
	<rect x="104.136" y="506.185" width="3.097" height="3.097"/>
	<rect x="667.853" y="304.858" width="6.195" height="3.097"/>
	<rect x="661.658" y="304.858" width="3.097" height="3.097"/>
	<rect x="655.463" y="304.858" width="3.097" height="3.097"/>
	<rect x="73.162" y="360.61" width="3.097" height="3.097"/>
	<rect x="674.047" y="307.955" width="3.097" height="3.097"/>
	<rect x="649.269" y="301.76" width="6.195" height="3.097"/>
	<rect x="643.074" y="301.76" width="3.097" height="3.097"/>
	<rect x="664.755" y="301.76" width="3.097" height="3.097"/>
	<rect x="658.561" y="307.955" width="3.097" height="3.097"/>
	<rect x="265.198" y="552.645" width="3.097" height="3.097"/>
	<rect x="677.145" y="311.052" width="3.097" height="3.097"/>
	<rect x="472.72" y="537.158" width="3.097" height="3.097"/>
	<polygon points="686.437,311.052 686.437,301.76 683.339,301.76 683.339,307.955 680.242,307.955 680.242,311.052 	"/>
	<polygon points="677.145,314.15 674.047,314.15 674.047,320.344 680.242,320.344 680.242,317.247 677.145,317.247 	"/>
	<polygon points="79.357,357.512 82.454,357.512 82.454,354.415 76.26,354.415 76.26,360.61 79.357,360.61 	"/>
	<rect x="466.525" y="537.158" width="3.097" height="3.097"/>
	<rect x="661.658" y="311.052" width="3.097" height="3.097"/>
	<rect x="667.853" y="311.052" width="6.195" height="3.097"/>
	<rect x="664.755" y="314.15" width="3.097" height="3.097"/>
	<rect x="265.198" y="249.105" width="3.097" height="3.097"/>
	<rect x="147.499" y="506.185" width="3.097" height="3.097"/>
	<rect x="203.251" y="530.964" width="3.097" height="3.097"/>
	<rect x="57.676" y="388.486" width="3.097" height="3.097"/>
	<rect x="156.791" y="512.38" width="3.097" height="3.097"/>
	<rect x="91.746" y="348.22" width="3.097" height="6.195"/>
	<rect x="119.623" y="487.601" width="3.097" height="3.097"/>
	<rect x="60.773" y="459.725" width="3.097" height="3.097"/>
	<rect x="76.26" y="345.123" width="3.097" height="6.195"/>
	<rect x="82.454" y="332.734" width="3.097" height="3.097"/>
	<rect x="76.26" y="338.928" width="3.097" height="3.097"/>
	<rect x="283.782" y="283.176" width="3.097" height="3.097"/>
	<rect x="277.587" y="286.274" width="3.097" height="3.097"/>
	<rect x="274.49" y="236.716" width="3.097" height="3.097"/>
	<rect x="280.685" y="276.981" width="3.097" height="3.097"/>
	<rect x="639.977" y="298.663" width="3.097" height="3.097"/>
	<rect x="91.746" y="503.088" width="3.097" height="3.097"/>
	<rect x="274.49" y="242.911" width="3.097" height="3.097"/>
	<rect x="274.49" y="276.981" width="3.097" height="3.097"/>
	<rect x="271.392" y="280.079" width="3.097" height="3.097"/>
	<rect x="274.49" y="264.592" width="3.097" height="9.292"/>
	<rect x="274.49" y="255.3" width="3.097" height="6.195"/>
	<rect x="190.862" y="521.672" width="3.097" height="3.097"/>
	<rect x="147.499" y="537.158" width="3.097" height="3.097"/>
	<rect x="94.844" y="496.893" width="3.097" height="3.097"/>
	<rect x="82.454" y="487.601" width="3.097" height="6.195"/>
	<rect x="116.525" y="518.574" width="3.097" height="3.097"/>
	<rect x="113.428" y="515.477" width="3.097" height="3.097"/>
	<rect x="97.941" y="506.185" width="3.097" height="3.097"/>
	<rect x="60.773" y="450.433" width="3.097" height="3.097"/>
	<rect x="57.676" y="447.335" width="3.097" height="3.097"/>
	<rect x="73.162" y="472.114" width="3.097" height="3.097"/>
	<rect x="66.968" y="469.017" width="6.195" height="3.097"/>
	<rect x="150.596" y="540.256" width="3.097" height="3.097"/>
	<rect x="441.746" y="586.716" width="3.097" height="3.097"/>
	<rect x="522.277" y="577.424" width="3.097" height="3.097"/>
	<rect x="460.331" y="589.813" width="3.097" height="3.097"/>
	<rect x="376.702" y="589.813" width="3.097" height="3.097"/>
	<rect x="178.472" y="552.645" width="3.097" height="3.097"/>
	<rect x="370.508" y="586.716" width="3.097" height="3.097"/>
	<rect x="252.808" y="574.327" width="3.097" height="3.097"/>
	<rect x="135.109" y="534.061" width="3.097" height="3.097"/>
	<rect x="224.932" y="565.035" width="3.097" height="3.097"/>
	<rect x="271.392" y="577.424" width="3.097" height="3.097"/>
	<rect x="646.171" y="317.247" width="3.097" height="3.097"/>
	<rect x="633.782" y="317.247" width="3.097" height="3.097"/>
	<rect x="605.906" y="301.76" width="3.097" height="3.097"/>
	<rect x="646.171" y="326.539" width="3.097" height="3.097"/>
	<rect x="612.1" y="311.052" width="3.097" height="3.097"/>
	<rect x="609.003" y="298.663" width="3.097" height="3.097"/>
	<rect x="624.49" y="314.15" width="3.097" height="3.097"/>
	<rect x="674.047" y="338.928" width="3.097" height="3.097"/>
	<rect x="655.463" y="329.636" width="3.097" height="3.097"/>
	<rect x="677.145" y="335.831" width="3.097" height="3.097"/>
	<rect x="655.463" y="323.442" width="3.097" height="3.097"/>
	<rect x="605.906" y="307.955" width="3.097" height="3.097"/>
	<rect x="568.738" y="298.663" width="3.097" height="3.097"/>
	<rect x="550.154" y="286.274" width="6.195" height="3.097"/>
	<rect x="571.835" y="292.468" width="3.097" height="3.097"/>
	<rect x="683.339" y="345.123" width="3.097" height="3.097"/>
	<rect x="559.446" y="289.371" width="3.097" height="3.097"/>
	<rect x="556.348" y="292.468" width="3.097" height="3.097"/>
	<rect x="593.516" y="311.052" width="3.097" height="3.097"/>
	<rect x="574.932" y="289.371" width="6.195" height="3.097"/>
	<rect x="599.711" y="301.76" width="3.097" height="3.097"/>
	<rect x="587.322" y="301.76" width="3.097" height="3.097"/>
	<rect x="581.127" y="292.468" width="3.097" height="6.195"/>
	<rect x="674.047" y="329.636" width="3.097" height="3.097"/>
	<polygon points="667.853,335.831 670.95,335.831 670.95,329.636 674.047,329.636 674.047,326.539 667.853,326.539 	"/>
	<rect x="661.658" y="323.442" width="3.097" height="3.097"/>
	<rect x="708.118" y="360.61" width="3.097" height="3.097"/>
	<rect x="695.729" y="348.22" width="3.097" height="3.097"/>
	<rect x="701.923" y="351.318" width="3.097" height="3.097"/>
	<rect x="633.782" y="311.052" width="6.195" height="3.097"/>
	<rect x="639.977" y="314.15" width="6.195" height="3.097"/>
	<rect x="664.755" y="320.344" width="3.097" height="3.097"/>
	<rect x="652.366" y="314.15" width="3.097" height="6.195"/>
	<rect x="723.605" y="475.212" width="3.097" height="3.097"/>
	<rect x="717.41" y="478.309" width="3.097" height="3.097"/>
	<rect x="726.702" y="484.504" width="3.097" height="3.097"/>
	<rect x="695.729" y="354.415" width="3.097" height="3.097"/>
	<rect x="720.508" y="481.406" width="3.097" height="3.097"/>
	<rect x="745.286" y="438.043" width="3.097" height="3.097"/>
	<rect x="714.313" y="453.53" width="3.097" height="3.097"/>
	<rect x="726.702" y="428.751" width="3.097" height="3.097"/>
	<rect x="729.8" y="475.212" width="3.097" height="3.097"/>
	<rect x="717.41" y="450.433" width="3.097" height="3.097"/>
	<rect x="680.242" y="342.026" width="3.097" height="3.097"/>
	<rect x="435.552" y="264.592" width="6.195" height="3.097"/>
	<rect x="435.552" y="270.787" width="3.097" height="3.097"/>
	<rect x="420.065" y="280.079" width="3.097" height="3.097"/>
	<rect x="432.454" y="561.937" width="3.097" height="3.097"/>
	<rect x="550.154" y="295.566" width="3.097" height="3.097"/>
	<path d="M537.764,561.937h-3.097v3.097h-3.097v-6.195h-3.097v3.097h-3.097v-9.292h-3.097v9.292h-3.097v-6.195h-6.195v-6.195h-3.097
		v6.195h-3.097v-6.195h-3.097v3.097h-3.097v-3.097h-9.292v-3.097h-3.097v3.097h-3.097v-3.097h-3.097v-6.195h-3.097v6.195h-3.097
		v-3.097h-3.097v-3.097h-3.097v3.097h-3.097v-3.097h-3.097v-3.097h-6.195v-3.097h-3.097v3.097h-6.195v3.097h3.097v3.097h-3.097
		v6.195h3.097v3.097h-3.097v3.097h3.097v3.097h3.097v-3.097h3.097v12.389h-6.195v-3.097h-3.097v3.097H426.26v-3.097h-6.195v3.097
		h3.097v3.097h-3.097v-3.097h-3.097v3.097h-3.097v-6.195h-3.097v6.195h-3.097v-3.097h-12.389v-3.097h-3.097v6.195h-3.097v-6.195
		h-3.097v3.097H379.8v3.097h-6.195v-3.097h-15.487v-3.097h-3.097v3.097h-3.097v-3.097h-3.097v-3.097h-3.097v6.195h-9.292v-6.195
		h-3.097v6.195h-3.097v-6.195h-3.097v3.097h-3.097v-3.097h-3.097v3.097h-3.097v3.097h-3.097v-6.195h-3.097v3.097h-3.097v-6.195
		h-3.097v3.097h-12.389v-6.195h-3.097v3.097h-3.097v3.097h-9.292v-3.097h-6.195v-3.097h-3.097v3.097h-3.097v-3.097h-6.195v-3.097
		h-3.097v3.097h-6.195v-3.097h-3.097v-3.097h-12.389v-3.097h-6.195v3.097h-3.097v-6.195h-6.195v3.097h-3.097v-3.097h-3.097v-6.195
		h-3.097v6.195h-6.195v-3.097h-3.097v-3.097h-3.097v-3.097h-3.097v3.097h-6.195v-3.097h3.097v-3.097h-3.097v-3.097h-3.097v6.195
		h-3.097v-3.097h-3.097v-6.195h-6.195v3.097h3.097v3.097h-3.097v-3.097h-3.097v3.097h-3.097v-6.195h6.195v-3.097h-9.292v3.097
		h-3.097v-3.097h-6.195v-9.292h-3.097v6.195h-3.097v-6.195h-9.292v-3.097h-3.097v-9.292h-3.097v3.097h-3.097v3.097h-3.097v-6.195
		h-3.097v-6.195h-3.097v3.097h-3.097v-9.292h-9.292v-3.097h-3.097v-3.097h-6.195v-3.097h3.097v-3.097h-6.195v-3.097h6.195v-3.097
		h-9.292v3.097h-3.097v-3.097h3.097v-3.097h3.097v-3.097h-9.292v-3.097h6.195v-3.097h-9.292v3.097h-3.097v-3.097h3.097v-3.097h6.195
		v-3.097h-9.292v-6.195H76.26v-3.097h3.097v-6.195H76.26v-30.973h3.097v-3.097H76.26v-3.097h3.097v-3.097H76.26v-3.097h9.292v-3.097
		h-3.097v-3.097h3.097v-9.292h3.097v-3.097h-3.097v-6.195h6.195v-6.195h-3.097v3.097h-3.097v-6.195h-3.097v3.097h-3.097v3.097H76.26
		v3.097h-3.097v6.195h3.097v3.097h-3.097v-3.097H63.87v3.097h3.097v3.097h3.097v3.097H63.87v3.097h-3.097v3.097h6.195v3.097H63.87
		v3.097h-6.195v15.487h-3.097v3.097h3.097v15.487h3.097v3.097h-3.097v3.097h3.097v3.097h-3.097v3.097h3.097v3.097h3.097v6.195h3.097
		v12.389h3.097v3.097h3.097v3.097h3.097v3.097h3.097v6.195H76.26v3.097h9.292v6.195h6.195v3.097h-3.097v3.097h12.389v6.195h-3.097
		v3.097h3.097v3.097h3.097v-3.097h3.097v-3.097h3.097v3.097h-3.097v3.097h3.097v3.097h-3.097v3.097h9.292v3.097h6.195v9.292h3.097
		v-3.097h3.097v3.097h6.195v6.195h6.195v3.097h6.195v-3.097h3.097v6.195h3.097v3.097h3.097v-3.097h3.097v3.097h-3.097v3.097h9.292
		v-3.097h3.097v3.097h-3.097v3.097h6.195v6.195h3.097v-6.195h3.097v-3.097h3.097v3.097h-3.097v3.097h6.195v6.195h3.097v-6.195h3.097
		v6.195h3.097v3.097h6.195v-6.195h3.097v6.195h6.195v3.097h9.292v3.097h3.097v-3.097h6.195v3.097h3.097v3.097h3.097v3.097h3.097
		v-3.097h3.097v3.097h3.097v-3.097h3.097v3.097h3.097v3.097h3.097v-3.097h6.195v3.097h6.195v3.097h6.195v-3.097h3.097v3.097h9.292
		v3.097h9.292v-3.097h3.097v3.097h6.195v6.195h3.097v-3.097h3.097v-3.097h3.097v3.097h6.195v-3.097h3.097v3.097h6.195v3.097h3.097
		v-3.097h3.097v6.195h3.097v-6.195h3.097v3.097h3.097v-3.097h3.097v3.097h15.487v3.097h3.097v-3.097h6.195v-3.097h3.097v3.097
		h12.389v3.097h3.097v-6.195h3.097v3.097h37.168v-3.097h3.097v6.195h3.097v-6.195h3.097v3.097h3.097v-3.097h3.097v3.097h18.584
		v-3.097h-3.097v-3.097h3.097v3.097h3.097v3.097h3.097v-3.097h6.195v3.097h-3.097v3.097h-6.195v3.097h-3.097v3.097h-9.292v3.097
		h-3.097v3.097h3.097v3.097h3.097v3.097h-3.097v3.097h3.097v3.097h3.097v3.097h3.097v-3.097h3.097v-3.097h3.097v-3.097h3.097V605.3
		h3.097v3.097h6.195V605.3h-3.097v-3.097h9.292v-3.097h3.097v-6.195h3.097v6.195h3.097v-9.292h9.292v-3.097h9.292v-9.292h6.195
		v-3.097h6.195v-3.097h3.097v-3.097h9.292v-12.389h-3.097V561.937z M79.357,366.805h3.097v3.097h-3.097V366.805z M76.26,379.194
		h3.097v3.097H76.26V379.194z M76.26,385.389h3.097v3.097H76.26V385.389z M63.87,400.875h-3.097v-3.097h3.097V400.875z
		 M85.552,478.309h-3.097v-3.097h3.097V478.309z M101.039,487.601h-3.097v-3.097h3.097V487.601z M113.428,496.893h-3.097v-3.097
		h3.097V496.893z M132.012,512.38h-3.097v-3.097h3.097V512.38z M141.304,527.866h-3.097v-3.097h3.097V527.866z M243.516,555.743
		h-3.097v-3.097h3.097V555.743z M302.366,568.132h-3.097v-3.097h3.097V568.132z M457.233,543.353v-3.097h3.097v3.097H457.233z
		 M466.525,558.84h-3.097v3.097h3.097v3.097h-6.195v-6.195h3.097v-3.097h3.097V558.84z M475.817,565.035h-3.097v3.097h-3.097v-3.097
		h3.097v-3.097h3.097V565.035z M497.499,555.743h-3.097v-3.097h3.097V555.743z M512.985,583.619h-3.097v-3.097h3.097V583.619z"/>
	<rect x="432.454" y="276.981" width="3.097" height="3.097"/>
	<rect x="286.879" y="280.079" width="3.097" height="3.097"/>
	<rect x="689.534" y="317.247" width="3.097" height="3.097"/>
	<rect x="636.879" y="295.566" width="3.097" height="3.097"/>
	<rect x="429.357" y="270.787" width="3.097" height="3.097"/>
	<rect x="432.454" y="286.274" width="3.097" height="3.097"/>
	<rect x="646.171" y="298.663" width="3.097" height="3.097"/>
	<rect x="636.879" y="289.371" width="3.097" height="3.097"/>
	<rect x="633.782" y="286.274" width="3.097" height="3.097"/>
	<rect x="643.074" y="295.566" width="3.097" height="3.097"/>
	<rect x="639.977" y="292.468" width="3.097" height="3.097"/>
	<rect x="630.685" y="292.468" width="6.195" height="3.097"/>
	<rect x="692.631" y="314.15" width="3.097" height="3.097"/>
	<polygon points="692.631,314.15 692.631,307.955 689.534,307.955 689.534,311.052 686.437,311.052 686.437,314.15 	"/>
	<rect x="652.366" y="307.955" width="3.097" height="3.097"/>
	<rect x="627.587" y="289.371" width="3.097" height="3.097"/>
	<rect x="88.649" y="379.194" width="3.097" height="3.097"/>
	<rect x="506.791" y="283.176" width="3.097" height="3.097"/>
	<rect x="503.693" y="292.468" width="3.097" height="3.097"/>
	<rect x="500.596" y="280.079" width="3.097" height="3.097"/>
	<polygon points="482.012,283.176 488.207,283.176 488.207,280.079 485.109,280.079 485.109,276.981 482.012,276.981 	"/>
	<rect x="512.985" y="283.176" width="6.195" height="3.097"/>
	<rect x="494.401" y="543.353" width="3.097" height="3.097"/>
	<rect x="534.667" y="283.176" width="6.195" height="3.097"/>
	<rect x="525.375" y="283.176" width="3.097" height="3.097"/>
	<rect x="543.959" y="286.274" width="3.097" height="3.097"/>
	<rect x="531.569" y="286.274" width="3.097" height="3.097"/>
	<rect x="463.428" y="283.176" width="3.097" height="3.097"/>
	<rect x="457.233" y="270.787" width="3.097" height="6.195"/>
	<rect x="463.428" y="264.592" width="3.097" height="9.292"/>
	<rect x="444.844" y="276.981" width="3.097" height="3.097"/>
	<rect x="447.941" y="273.884" width="3.097" height="3.097"/>
	<rect x="451.039" y="286.274" width="3.097" height="3.097"/>
	<rect x="475.817" y="283.176" width="3.097" height="3.097"/>
	<rect x="482.012" y="270.787" width="3.097" height="3.097"/>
	<rect x="485.109" y="273.884" width="3.097" height="3.097"/>
	<rect x="469.623" y="270.787" width="3.097" height="6.195"/>
	<rect x="469.623" y="261.495" width="3.097" height="6.195"/>
</g>
</svg>
