<svg color="#ebdbb2" fill="currentColor" xmlns="http://www.w3.org/2000/svg" viewBox="0 0 146.45 105.87"><title>60</title><g id="Layer_2" data-name="Layer 2"><g id="Layer_1-2" data-name="Layer 1"><path d="M31.52,0C14.14,0,0,18.92,0,42.18S14.14,84.35,31.52,84.35,63,65.43,63,42.18,48.89,0,31.52,0Zm0,3C43.85,3,54.38,13.86,58.33,29H4.7C8.65,13.86,19.17,3,31.52,3Zm0,78.29C15.81,81.32,3,63.76,3,42.18A53.51,53.51,0,0,1,4,32H16.75a30.47,30.47,0,0,0-2.83,13c0,13.49,8.27,24.47,18.44,24.47a15.23,15.23,0,0,0,9.32-3.36,22.15,22.15,0,0,0,6-7.49,10,10,0,0,0,1.3-5,9.47,9.47,0,0,0-1.61-5L47,48c-.76-1-1.65-1.83-2.42-2.79a6.49,6.49,0,0,1-1.66-4,6,6,0,0,1,1.49-3.55c1-1.23,2.32-2.31,2.71-3.85a4.61,4.61,0,0,0,0-1.85H59a52.7,52.7,0,0,1,1,10.18C60,63.76,47.22,81.32,31.52,81.32Z"/><path d="M114.93,0c-17.37,0-31.5,18.92-31.5,42.18s14.13,42.17,31.5,42.17,31.52-18.92,31.52-42.17S132.32,0,114.93,0Zm0,3C127.28,3,137.8,13.86,141.75,29H88.12C92.07,13.86,102.6,3,114.93,3Zm0,78.29c-15.7,0-28.48-17.56-28.48-39.14a52.7,52.7,0,0,1,1-10.18h12.74a30.47,30.47,0,0,0-2.84,13c0,13.49,8.27,24.47,18.45,24.47a15.26,15.26,0,0,0,9.32-3.36,22.27,22.27,0,0,0,6-7.49,10.07,10.07,0,0,0,1.3-5,9.56,9.56,0,0,0-1.61-5c-.14-.2-.28-.4-.43-.59-.75-1-1.64-1.83-2.41-2.79a6.51,6.51,0,0,1-1.67-4,6.07,6.07,0,0,1,1.5-3.55c1-1.23,2.32-2.31,2.7-3.85a4.43,4.43,0,0,0,.05-1.85h11.92a53.51,53.51,0,0,1,1,10.18C143.42,63.76,130.64,81.32,114.93,81.32Z"/><path d="M92.13,105.87H68.38a1.51,1.51,0,1,1,0-3H92.13a1.51,1.51,0,0,1,0,3Z"/></g></g></svg>
