<svg color="#ebdbb2" fill="currentColor" xmlns="http://www.w3.org/2000/svg" viewBox="0 0 104.08 143.95"><title>20</title><g id="Layer_2" data-name="Layer 2"><g id="Layer_1-2" data-name="Layer 1"><path d="M102.79,51.35a13.86,13.86,0,0,0-5.07-6.52c-4.37-2.93-9.66-2.57-13.52-1.64-.9-3.1-2.51-5.83-5.48-7.18s-6.41-.57-8.64.17a31.63,31.63,0,0,0-6,2.72c1.46-3.82,2.66-7.62,3.76-11.2,1.84-6,3.49-12.45,1.73-18.56a11.82,11.82,0,0,0-5.35-7.32C60.05-.5,55-.61,50,1.51c-6.14,2.62-11.14,8.1-12.73,14-1.74,6.45-.87,14.53-.18,21l.12,1.1c.22,2.1.49,4.21.76,6.29C36.31,38.56,34.31,32.45,32,26.58c-3.52-9-8.27-14.08-14.49-15.37a14,14,0,0,0-8.56,1,14.83,14.83,0,0,0-6.51,5.65c-2.3,3.74-3,8.65-2,13.82,1.26,6.52,4.69,12,8,17.3l1,1.6A83,83,0,0,0,20.71,65.27a19.11,19.11,0,0,0-1.17,1.85,14.87,14.87,0,0,0-1.84,5.07c-.43,2.77-.22,8.38,6,14.9,1.5,1.57,3.15,3,4.73,4.42a49.93,49.93,0,0,1,6.28,6.22,41.86,41.86,0,0,1,5.7,10.51,117.22,117.22,0,0,1,8.11,33.82l.06.69a47.83,47.83,0,0,0,7.47,1.1,40.11,40.11,0,0,0,24.52-6.32,58.88,58.88,0,0,0,7.23-5.38l.92-.81-.29-.83a58.53,58.53,0,0,1-2.91-13.26A29.9,29.9,0,0,1,85.8,108a41.57,41.57,0,0,1,2.75-7.75l11-25.58c2-4.54,4.17-9.69,4.49-15.1A19.25,19.25,0,0,0,102.79,51.35ZM70.06,39l.85-.3c2.89-1,5-1,6.73-.27a7.48,7.48,0,0,1,3.74,4.65c.1.29.2.58.28.87l-.28.1A36.07,36.07,0,0,0,64.66,56.14,28.06,28.06,0,0,0,57,53.29c-.46-.1-.92-.19-1.39-.27s-1-.16-1.44-.22l-.32,0c.34-.57.71-1.14,1.08-1.69.56-.82,1.15-1.62,1.77-2.38A33,33,0,0,1,60,45.2c.75-.69,1.53-1.35,2.34-2A29.75,29.75,0,0,1,70.06,39ZM39.79,16.18c1.36-5,5.87-10,11.22-12.25,4.24-1.8,8.49-1.73,12,.19,2.53,1.4,3.65,4.2,4.1,5.75,1.56,5.41,0,11.4-1.73,17.06a143.21,143.21,0,0,1-5.15,14.65,36.38,36.38,0,0,0-7.42,8c-.65.95-1.26,1.94-1.82,2.95a41.06,41.06,0,0,0-9.17.76c-.28-2.42-.6-4.83-.91-7.18-.38-2.88-.78-5.85-1.08-8.78l-.12-1.11C39,30,38.18,22.16,39.79,16.18Zm-28.12,33-1-1.61C7.33,42.28,4.17,37.25,3,31.21c-.87-4.53-.27-8.77,1.69-11.95a12.14,12.14,0,0,1,6.13-5A11.2,11.2,0,0,1,17,13.78c5.29,1.1,9.41,5.6,12.58,13.75,3,7.7,5.51,15.85,7.35,22.09.3,1,.67,2,1.07,3.13l.48,1.33c-.92.26-1.83.55-2.73.86a32.6,32.6,0,0,0-13.36,8.28A81.14,81.14,0,0,1,11.67,49.21Zm89.75,10.16c-.3,4.95-2.33,9.66-4.29,14.22l-11,25.58a43.48,43.48,0,0,0-2.91,8.24,32.31,32.31,0,0,0-.32,10.1,61,61,0,0,0,2.75,13,38.74,38.74,0,0,1-12.47,8.36,38.34,38.34,0,0,1-14.47,2.8q-2,0-4-.15c-1.19-.1-2.4-.24-3.63-.43a120.24,120.24,0,0,0-8.22-33.86,44.89,44.89,0,0,0-6.08-11.16,53.7,53.7,0,0,0-6.6-6.55c-1.54-1.36-3.14-2.78-4.57-4.27-2.33-2.45-6.13-7.35-5.31-12.68a12.51,12.51,0,0,1,1.54-4.18c.23-.41.49-.84.8-1.29s.5-.7.78-1.06.55-.66.86-1c2.39-2.64,6.23-5.48,12.34-7.64.88-.31,1.76-.59,2.66-.83.42-.12.84-.23,1.27-.33l.25-.06c.43-.1.86-.2,1.29-.28a38.69,38.69,0,0,1,7.58-.77c.48,0,1,0,1.43,0s.93,0,1.39.08l.14-.21a2,2,0,0,0-.1.21l.77.08.68.08c.49.06,1,.14,1.45.23a25.61,25.61,0,0,1,7.73,2.66q.59.31,1.14.66c.37.23.74.47,1.09.72a19.42,19.42,0,0,1,1.74,1.37c.25.21.49.44.73.66,1.17,1.14,3.86,4.12,3.37,7.37a8.65,8.65,0,0,1-2.85,4.77,19.32,19.32,0,0,1-7.6,4.53c-.42.14-.85.27-1.28.38l-.74.18-.55.11a21.87,21.87,0,0,1-7.82.1c-.51-.08-1-.19-1.52-.31s-1-.27-1.51-.43c-.68-.23-1.34-.49-2-.78-1.13-.52-4.22-2.65-5-1.68-1.2,1.61,4,4.11,4.25,4.23h0l.83.34a22.28,22.28,0,0,0,3,.93c.16.33.32.65.5,1a16.27,16.27,0,0,0,2.22,3.1,12.9,12.9,0,0,0,7.11,4.1,9.38,9.38,0,0,0,3.17,0c2.16,2.66,5.36,2.14,6.9,1.82a26.79,26.79,0,0,0,11.74-5.74,27.5,27.5,0,0,0,3.45-3.46s.86-1.2,1.83-2.69,2.44-4.48,1.21-4.93-2.47,3.54-8.18,9.07a24.28,24.28,0,0,1-10.58,5.18c-2.07.37-3.91.23-5.1-2.31l-.12-.3A27.13,27.13,0,0,1,61.13,81a22.06,22.06,0,0,0,9.08-5.3l.54-.55a12.47,12.47,0,0,0,2.37-3.41,8.57,8.57,0,0,0,.7-2.3c.26-1.71.13-5-3.3-8.77-.26-.29-.54-.58-.85-.88a24.41,24.41,0,0,0-2.77-2.29,33.41,33.41,0,0,1,15.34-11h0c.38-.14.8-.27,1.25-.41s.83-.23,1.28-.34c3.36-.81,7.88-1.15,11.47,1.26C100.44,49.82,101.66,55.24,101.42,59.37ZM60.17,87.15a7.13,7.13,0,0,1-1.38-.1,10.16,10.16,0,0,1-5.64-3.31A13.82,13.82,0,0,1,51.81,82a23.89,23.89,0,0,0,4,0,25.81,25.81,0,0,0,2.8-.36c.07.4.16.8.25,1.2A30.34,30.34,0,0,0,60.17,87.15Z"/></g></g></svg>
