<?xml version="1.0" encoding="iso-8859-1"?>
<!-- Generator: Adobe Illustrator 26.2.1, SVG Export Plug-In . SVG Version: 6.00 Build 0)  -->
<svg version="1.1" id="Layer_1" color="#ebdbb2" fill="currentColor" xmlns="http://www.w3.org/2000/svg" xmlns:xlink="http://www.w3.org/1999/xlink" x="0px" y="0px"
	 width="800px" height="800px" viewBox="0 0 800 800" enable-background="new 0 0 800 800" xml:space="preserve">
<g>
	<path d="M608.535,483.969v5.036h-5.036v5.036h-10.072v-5.036h-10.072v-5.036h-5.036v-5.036h-10.072v-5.036h-5.036v5.036h-5.036
		v5.036h-5.036v5.036h-5.036v10.072h-5.036v5.036h-10.072v5.036h-10.072v5.036h-5.036v25.18h5.036v5.036h5.036v10.072h-5.036v5.036
		h5.036v5.036h-5.036v5.036h5.036v5.036h-5.036v5.036h5.036v15.108h15.108v5.036h5.036v10.072h-5.036v15.108h-5.036v10.072h-5.036
		v5.036h-10.072v5.036h-5.036v15.108h-5.036V670.3h5.036v15.108h10.072v-20.144h5.036v-5.036h5.036v-5.036h15.108v-5.036h5.036
		v-15.108h-5.036v-10.072h-5.036v-5.036h5.036v-10.072h15.108v-5.036h5.036v-5.036h5.036v-15.108h5.036v-5.036h-5.036v-15.108h5.036
		v-15.108h5.036V544.4h-5.036v-5.036h10.072v-5.036h5.036v-5.036h5.036v-5.036h10.072v-5.036h5.036v-10.072h10.072v5.036h-5.036
		v5.036h10.072v-15.108h5.036v-5.036h-10.072v5.036h-5.036v-20.144h-5.036v-5.036h-5.036v5.036H608.535z M588.391,519.221h-5.036
		v5.036h-15.108v-5.036h-5.036v-10.072h-5.036v-5.036h5.036v-5.036h5.036v-5.036h10.072v5.036h5.036v5.036h5.036V519.221z"/>
	<path d="M578.319,398.357v-5.036h5.036v-15.108h15.108v20.144h5.036v5.036h30.216v5.036h10.072v5.036h5.036v5.036h10.072v5.036
		h10.072v-15.108h-5.036v-5.036h-5.036v-5.036h-5.036v-10.072h5.036v-10.072h5.036v-35.252h-5.036v-5.036h5.036v-5.036h-5.036
		v-10.072h-5.036v-10.072h-5.036v-5.036h-5.036v-20.144h-5.036v-20.144h5.036v-5.036h15.108v5.036h15.108V257.35h-5.036v-10.072
		h5.036v-10.072h5.036v-5.036h5.036v-10.072h-5.036v-5.036h-10.072v-5.036h-5.036v-5.036h-5.036v-10.072h5.036v-5.036h-5.036
		v-20.144h-5.036v-15.108h5.036v-25.18h-5.036v-5.036h-5.036v-10.072h-15.108v-5.036h-5.036v-5.036h-5.036v-5.036h-5.036v-5.036
		h5.036v-5.036h-5.036v-5.036h-5.036v-5.036h-5.036V71.019h-10.072V60.947h-5.036v-5.036h-10.072v-5.036h-10.072v5.036h5.036v5.036
		h5.036v5.036h5.036v10.072h5.036v10.072h5.036v5.036h5.036v5.036h10.072v10.072h5.036v10.072h5.036v5.036h5.036v15.108h5.036
		v15.108h-5.036v5.036h5.036v5.036h-5.036v5.036h5.036v25.18h-5.036v5.036h5.036v5.036h-5.036v10.072h-5.036v10.072h-5.036v15.108
		h-5.036v15.108h5.036v10.072h5.036v5.036h-15.108v15.108h5.036v-10.072h5.036v20.144h-20.144v-5.036h-10.072v-10.072h-5.036
		v-10.072h-5.036v-5.036h-5.036v-5.036h-15.108v-5.036h-50.36V232.17h5.036v-5.036h-5.036v-5.036h-10.072v5.036h-10.072v5.036
		h-5.036v5.036h5.036v5.036h-5.036v10.072h-20.144v5.036H452.42v5.036h-10.072v10.072h-5.036v10.072h-5.036v20.144h-5.036V282.53
		h-5.036v15.108h-5.036v10.072h15.108v20.144h-5.036v5.036h5.036v5.036h5.036v10.072h5.036v5.036h-10.072v5.036h-5.036v-5.036
		h-10.072v-10.072h-5.036V332.89h-5.036v-5.036h-20.144v-5.036h-5.036v-5.036h-10.072v5.036h-5.036v-5.036h-5.036v-15.108h-5.036
		v-15.108h-10.072v-10.072h-5.036v-10.072h5.036v-15.108h-10.072v5.036h-5.036v-5.036h-5.036v5.036h-10.072v-15.108h-5.036v-5.036
		h-15.108v5.036h10.072v5.036h5.036v5.036h-5.036v-5.036h-15.108v-5.036h-5.036v5.036h-5.036v-5.036h-5.036v5.036h-5.036v-10.072
		h25.18v-5.036h-55.396v5.036h25.18v10.072h-5.036v-5.036h-10.072v5.036h-5.036v-5.036h-5.036v5.036h-5.036v5.036h-15.108v5.036
		h-10.072v5.036h-5.036v10.072h-10.072v5.036h-15.108v-5.036h-5.036V257.35h-5.036v-10.072h5.036v-5.036h-5.036v-5.036h5.036v-5.036
		h-5.036v-20.144h5.036v15.108h5.036v-10.072h5.036v-5.036h-5.036v-5.036h-10.072v-10.072h5.036v-5.036h5.036v5.036h5.036v-10.072
		h-5.036v-10.072h10.072v-5.036h-10.072v-5.036h-5.036v-5.036h-5.036v-5.036h-5.036v-10.072h5.036v-5.036h5.036v-10.072h5.036
		v-10.072h-5.036v-10.072h5.036v5.036h5.036V96.199h-5.036v10.072h-10.072V96.199h-5.036v10.072h-5.036v5.036h-5.036v15.108h-5.036
		v10.072h-5.036v10.072h-5.036v10.072h-10.072v25.18h5.036v15.108h5.036v15.108h-5.036v5.036h5.036v40.288h-5.036v5.036h5.036
		v20.144h-5.036v25.18h5.036v5.036h-5.036v5.036h5.036v5.036h-5.036v-5.036h-5.036v5.036h-5.036v5.036h15.108v25.18h-5.036v5.036
		h5.036v5.036h-5.036v25.18h5.036v5.036h-5.036v5.036h5.036v15.108h5.036v5.036h5.036v-5.036h10.072v-10.072h-5.036v-5.036h5.036
		v-35.252h5.036v-5.036h10.072v5.036h5.036v5.036h10.072v15.108h5.036v5.036h10.072v5.036h40.288v-5.036h5.036v5.036h10.072v-5.036
		h5.036v5.036h15.108v5.036h10.072v10.072h10.072v5.036h5.036v5.036h5.036v10.072h5.036v40.288h-5.036v5.036h5.036v5.036h-5.036
		v10.072h5.036v5.036h-5.036v5.036h-5.036v-5.036h-15.108v-5.036h-5.036v-5.036h-5.036v-5.036h-5.036v-5.036h-5.036v5.036h-5.036
		v-5.036h-20.144v5.036h-5.036v5.036h5.036v5.036h5.036v10.072h5.036v5.036h-5.036v10.072h-15.108v-15.108h-5.036v-5.036h5.036
		v-10.072h-10.072v-5.036h-10.072v-5.036h-5.036v5.036h-5.036v5.036h5.036v10.072h-5.036v5.036h-10.072v-10.072h-5.036v-5.036h5.036
		v-5.036h5.036v-5.036h5.036v-5.036h-5.036v-5.036h-5.036v-5.036h-10.072v-10.072h-15.108v45.324h5.036v5.036h10.072v5.036h10.072
		v5.036h5.036v5.036h5.036v10.072h5.036v25.18h5.036v10.072h5.036v5.036h-5.036v20.144h-5.036v-25.18h-5.036v-30.216h-5.036v-10.072
		h-5.036v-5.036h-5.036v-5.036h-5.036v-5.036h-10.072v-5.036H165.37v5.036h5.036v5.036h10.072v5.036h5.036v5.036h5.036v5.036h5.036
		v10.072h5.036v5.036h-5.036v5.036h5.036v5.036h-5.036v10.072h5.036v5.036h5.036v20.144h-5.036v5.036h5.036v10.072h5.036v-10.072
		h5.036v5.036h5.036v10.072h-5.036v-5.036h-5.036v10.072h15.108v5.036h-5.036v5.036h5.036v15.108h5.036v15.108h5.036v15.108h5.036
		v10.072h5.036v5.036h5.036v15.108h5.036v5.036h10.072v10.072h5.036v5.036h-5.036v5.036h15.108v5.036h10.072v10.072h10.072v5.036
		h30.216v5.036h5.036v5.036h35.252v-5.036h5.036v-5.036h-5.036v-10.072h-5.036v-5.036h5.036v-5.036h-5.036v-5.036h5.036v-5.036
		h5.036v-10.072h5.036v-5.036h5.036v-20.144h-5.036V670.3h-5.036v-10.072h-5.036V645.12h-5.036v-5.036h-5.036v5.036h-5.036v-5.036
		h-5.036v5.036h-5.036v-5.036h-30.216v-10.072h-10.072v-5.036h-5.036v-5.036h-10.072v-5.036h-10.072v15.108h5.036v15.108h5.036
		v5.036h5.036v5.036h10.072v5.036h5.036v5.036h-5.036v5.036h-5.036v5.036h5.036v5.036h5.036v-5.036h5.036v5.036h5.036v10.072h-5.036
		v25.18h-5.036v5.036h-20.144v-5.036h-5.036v-5.036h-5.036v-5.036h-5.036v-5.036h-5.036v-5.036h-5.036V670.3h-5.036v-15.108h-5.036
		v-5.036h5.036v-5.036h-5.036v-25.18h-5.036v-15.108h5.036v-5.036h10.072v-20.144h5.036v-5.036h-5.036v-5.036h-10.072v-5.036h-5.036
		v-5.036h-10.072v-5.036h10.072v5.036h10.072v-5.036h-5.036v-5.036h10.072V544.4h-5.036v-5.036h-10.072v10.072h-10.072V544.4h5.036
		v-10.072h5.036v-5.036h10.072v10.072h15.108v5.036h5.036v-5.036h5.036v-5.036h5.036V544.4h-5.036v5.036h10.072v-10.072h20.144
		v-5.036h10.072v-15.108h-5.036v10.072h-15.108v5.036h-10.072v-5.036h5.036v-5.036h15.108v-10.072h5.036v-5.036h-5.036v-5.036h5.036
		v-10.072h5.036v-5.036h5.036v-10.072h10.072v-5.036h5.036v-5.036h30.216v-5.036h10.072v-5.036h5.036v-5.036h5.036v5.036h5.036
		v-5.036h5.036v5.036h10.072v5.036h5.036v5.036h5.036v-5.036h5.036v-5.036h10.072v-20.144h5.036v-5.036h-5.036v-5.036h5.036v-35.252
		h5.036v-5.036h15.108v5.036H477.6v5.036h15.108v5.036h10.072v5.036h5.036v5.036h15.108v5.036h5.036v5.036h10.072v-5.036h15.108
		v-5.036h5.036v-5.036h10.072v-5.036h5.036v-5.036H578.319z M628.679,388.285h-5.036v5.036h-5.036v-5.036h-5.036v-10.072h5.036
		v-5.036h5.036v5.036h5.036V388.285z M598.463,347.998h5.036v-5.036h5.036v-15.108h10.072v-5.036h5.036v5.036h5.036v10.072h5.036
		v5.036h-5.036v15.108h-5.036v5.036h-5.036v5.036h-20.144V347.998z M240.909,322.818h-5.036v10.072h-10.072v-5.036h-10.072v-30.216
		h15.108v10.072h5.036v10.072h5.036V322.818z M326.521,700.516h5.036v-5.036h5.036v-5.036h5.036v-15.108h-5.036V670.3h5.036v-5.036
		h10.072v5.036h10.072v15.108h-5.036v15.108h-5.036v10.072h-5.036v5.036h-5.036v-5.036h-5.036v5.036h-5.036v-5.036h-5.036V700.516z
		 M522.924,368.141h-5.036v5.036h-5.036v-5.036h-5.036v-5.036h5.036v-5.036h10.072V368.141z"/>
</g>
</svg>
